<?xml version="1.0" encoding="UTF-8" standalone="no"?>
<!-- Created with Inkscape (http://www.inkscape.org/) -->

<svg
   xmlns:dc="http://purl.org/dc/elements/1.1/"
   xmlns:cc="http://creativecommons.org/ns#"
   xmlns:rdf="http://www.w3.org/1999/02/22-rdf-syntax-ns#"
   xmlns:svg="http://www.w3.org/2000/svg"
   xmlns="http://www.w3.org/2000/svg"
   xmlns:sodipodi="http://sodipodi.sourceforge.net/DTD/sodipodi-0.dtd"
   xmlns:inkscape="http://www.inkscape.org/namespaces/inkscape"
   width="136.87579"
   height="74.419189"
   viewBox="0 0 136.87579 74.419187"
   id="svg5472"
   version="1.1"
   inkscape:version="0.91 r13725"
   sodipodi:docname="rootIntro3.svg">
  <defs
     id="defs5474" />
  <sodipodi:namedview
     id="base"
     pagecolor="#ffffff"
     bordercolor="#666666"
     borderopacity="1.0"
     inkscape:pageopacity="0.0"
     inkscape:pageshadow="2"
     inkscape:zoom="52.07641"
     inkscape:cx="128.56345"
     inkscape:cy="3.9099059"
     inkscape:document-units="px"
     inkscape:current-layer="layer1"
     showgrid="false"
     fit-margin-top="0"
     fit-margin-left="0"
     fit-margin-right="0"
     fit-margin-bottom="0"
     inkscape:window-width="1366"
     inkscape:window-height="705"
     inkscape:window-x="-8"
     inkscape:window-y="-8"
     inkscape:window-maximized="1"
     units="px" />
  <metadata
     id="metadata5477">
    <rdf:RDF>
      <cc:Work
         rdf:about="">
        <dc:format>image/svg+xml</dc:format>
        <dc:type
           rdf:resource="http://purl.org/dc/dcmitype/StillImage" />
        <dc:title></dc:title>
      </cc:Work>
    </rdf:RDF>
  </metadata>
  <g
     inkscape:label="Layer 1"
     inkscape:groupmode="layer"
     id="layer1"
     transform="translate(-217.27639,-560.8669)">
    <path
       style="display:inline;opacity:1;fill:none;stroke:#34a814;stroke-width:1.30217838;stroke-opacity:1"
       d="m 218.05483,561.837 c 0.19643,-0.22039 0.61878,-0.32789 1.2697,-0.3179 0.79565,0.0122 5.49326,2.34236 10.43908,5.17813 6.84467,3.92449 10.29991,5.17598 14.46682,5.23993 3.0109,0.0462 6.92663,1.00134 8.70159,2.12251 2.11772,1.33771 7.02954,2.27579 14.28765,2.72866 6.46585,0.40343 12.63958,1.49929 14.86182,2.63801 3.88537,1.99096 18.11903,18.03112 18.09641,20.39315 -0.006,0.71874 2.06821,3.79328 4.61126,6.83244 3.71133,4.43523 5.32036,5.50309 8.15339,5.41118 1.94132,-0.0631 4.97695,-0.14439 6.74588,-0.18093 1.76893,-0.0366 5.81292,1.33839 8.98664,3.05534 3.84335,2.07926 7.05678,2.9634 9.62263,2.64754 6.49612,-0.79965 12.20208,4.0912 14.41804,12.35838 0.78341,2.9227 0.94385,4.51443 0.64277,4.68415"
       id="path4136"
       inkscape:connector-curvature="0" />
    <path
       style="display:inline;opacity:1;fill:none;stroke:#34a814;stroke-width:1.30217838;stroke-opacity:1"
       d="m 218.05488,561.837 c -0.19649,0.22038 -0.16699,0.55366 0.0858,0.99524 0.50558,0.88315 1.90435,2.19949 4.17525,3.91228 5.43943,4.10259 16.26841,8.41069 23.70846,9.43198 3.03094,0.41606 7.02865,1.71529 8.88382,2.88713 2.2922,1.44795 4.66239,1.90773 7.3967,1.43495 2.213,-0.38263 7.75488,-0.0331 12.31526,0.77672 l 8.29162,1.47241 6.98997,8.74745 c 3.84448,4.81107 7.70769,10.45673 8.58498,12.54585 0.87725,2.08914 2.85907,5.22529 4.404,6.96923 3.29392,3.71832 11.69177,6.42758 13.77849,4.44515 1.93594,-1.83918 6.95284,-0.28571 11.86435,3.6737 3.606,2.90704 4.88298,3.27449 9.04653,2.60321 6.0422,-0.97414 11.0851,2.36786 13.65202,9.04743 1.06269,2.76529 1.82529,4.01758 2.12638,3.84786"
       id="path14136"
       inkscape:connector-curvature="0"
       sodipodi:nodetypes="cssscsscscsssssc" />
  </g>
</svg>
