<?xml version="1.0" encoding="UTF-8" standalone="no"?>
<svg
   xmlns:dc="http://purl.org/dc/elements/1.1/"
   xmlns:cc="http://creativecommons.org/ns#"
   xmlns:rdf="http://www.w3.org/1999/02/22-rdf-syntax-ns#"
   xmlns:svg="http://www.w3.org/2000/svg"
   xmlns="http://www.w3.org/2000/svg"
   xmlns:sodipodi="http://sodipodi.sourceforge.net/DTD/sodipodi-0.dtd"
   xmlns:inkscape="http://www.inkscape.org/namespaces/inkscape"
   version="1.1"
   id="svg6073"
   viewBox="0 0 148.52761 939.38972"
   height="1130"
   width="600"
   inkscape:version="0.91 r13725"
   sodipodi:docname="rootsCentered_add extra roots.svg"
   inkscape:export-filename="C:\Users\Corypheus\Dropbox\Web Design\Andrew Web\img\rootsCentered.png"
   inkscape:export-xdpi="90"
   inkscape:export-ydpi="90">
  <sodipodi:namedview
     pagecolor="#ffffff"
     bordercolor="#666666"
     borderopacity="1"
     objecttolerance="10"
     gridtolerance="10"
     guidetolerance="10"
     inkscape:pageopacity="0"
     inkscape:pageshadow="2"
     inkscape:window-width="1366"
     inkscape:window-height="705"
     id="namedview197"
     showgrid="false"
     fit-margin-top="0"
     fit-margin-left="0"
     fit-margin-right="0"
     fit-margin-bottom="0"
     inkscape:zoom="0.47433628"
     inkscape:cx="300"
     inkscape:cy="565"
     inkscape:window-x="-8"
     inkscape:window-y="-8"
     inkscape:window-maximized="1"
     inkscape:current-layer="rootG">
    <inkscape:grid
       type="xygrid"
       id="grid4325"
       originx="-314.65208"
       originy="60.426736" />
  </sodipodi:namedview>
  <defs
     id="defs6075" />
  <metadata
     id="metadata6078">
    <rdf:RDF>
      <cc:Work
         rdf:about="">
        <dc:format>image/svg+xml</dc:format>
        <dc:type
           rdf:resource="http://purl.org/dc/dcmitype/StillImage" />
        <dc:title></dc:title>
        <cc:license
           rdf:resource="http://creativecommons.org/licenses/by-nc/3.0/" />
      </cc:Work>
      <cc:License
         rdf:about="http://creativecommons.org/licenses/by-nc/3.0/">
        <cc:permits
           rdf:resource="http://creativecommons.org/ns#Reproduction" />
        <cc:permits
           rdf:resource="http://creativecommons.org/ns#Distribution" />
        <cc:requires
           rdf:resource="http://creativecommons.org/ns#Notice" />
        <cc:requires
           rdf:resource="http://creativecommons.org/ns#Attribution" />
        <cc:prohibits
           rdf:resource="http://creativecommons.org/ns#CommercialUse" />
        <cc:permits
           rdf:resource="http://creativecommons.org/ns#DerivativeWorks" />
      </cc:License>
    </rdf:RDF>
  </metadata>
  <g
     transform="translate(-152.36458,-112.9725)"
     id="rootG">
    <g
       id="g5003"
       transform="translate(0,-11.066632)">
      <path
         sodipodi:nodetypes="csssssaaaascccccsssssaasccscsccc"
         style="display:inline;opacity:1;fill:none;stroke:#34a814;stroke-width:1.08635676;stroke-opacity:1"
         d="m -16.125833,495.73863 c 2.092108,1.41442 3.386762,1.96385 7.3631437,1.78376 7.97665036,-0.36123 16.6126604,-5.68844 15.3350221,-9.45954 -0.6049897,-1.78573 2.9274605,-4.69753 5.4140662,-4.46283 3.061169,0.28894 8.42254,-3.18406 9.315553,-6.03445 0.401123,-1.28029 2.363116,-2.88841 4.8693,-3.99104 2.308606,-1.01572 3.716988,-1.84 5.329799,-3.11911 1.537209,-1.21916 3.1255,-2.53981 4.051712,-4.26941 1.008597,-1.88343 1.080381,-4.1406 1.424106,-6.24925 0.307845,-1.88854 0.474379,-3.80107 0.568016,-5.71224 0.06504,-1.32758 -0.262895,-3.1637 -0.0048,-3.98752 0.735645,-2.34806 7.645043,-9.89628 10.228171,-11.17381 2.538101,-1.25531 7.420351,-6.65579 8.16459,-9.03129 0.255388,-0.8151 1.286833,-1.74473 2.292118,-2.06587 2.050893,-0.65509 4.18725,-6.12023 2.58829,-6.62118 -0.566452,-0.17747 -1.342538,0.10197 -1.724641,0.62096 -0.382106,0.51897 -2.167358,2.99055 -3.967232,5.49239 -5.092043,7.07787 -6.705121,8.61781 -9.66589,9.22764 -1.782396,0.36749 -3.00735,1.38556 -3.47967,2.89313 -0.400885,1.27959 -1.853488,2.97121 -3.228011,3.75914 -1.374497,0.78791 -3.206884,2.57184 -4.071927,3.96423 -1.36929,2.20405 -0.657018,5.33595 -0.973286,8.00538 -0.312314,2.63605 -0.03688,5.40516 -0.912746,7.91097 -0.630657,1.80429 -2.922278,4.50742 -3.034374,4.86531 -0.112093,0.35789 -2.460393,1.60471 -5.218364,2.77074 -2.758057,1.16588 -5.249803,2.81928 -5.537398,3.67386 -1.003558,2.98241 -5.387456,6.12204 -9.2168217,6.60095 -4.1780582,0.52251 -5.4698015,1.78986 -7.1322698,6.99753 -1.2279763,3.84696 -6.1291673,6.70974 -11.8169928,6.90249 -2.7725897,0.094 -3.9646877,-1.4666 -5.9549177,-2.17808 -2.34425,-0.83799 -3.962964,0.88704 -1.00451,2.88717 z"
         id="path4799"
         inkscape:connector-curvature="0" />
      <path
         style="display:inline;opacity:1;fill:none;stroke:#34a814;stroke-width:1.08635676;stroke-opacity:1"
         d="m 255.19659,600.97604 c -3.19296,-2.91724 -4.44806,-2.29071 -5.09096,2.54131 -0.64537,4.85079 -6.79165,18.40024 -12.85334,28.33521 -2.5894,4.24398 -4.70801,8.23923 -4.70801,8.87835 0,0.6391 -0.92471,2.62365 -2.05491,4.41009 -1.13021,1.78646 -3.69837,6.81115 -5.70701,11.16596 -2.00866,4.35481 -4.75749,9.67914 -6.10855,11.83176 -2.36567,3.76927 -5.66634,16.98164 -7.94295,31.79498 -1.30896,8.51714 -1.40391,43.7906 -0.15299,56.82941 0.86835,9.0509 -0.7257,36.60621 -2.61018,45.1204 -0.26979,1.21901 -0.58328,6.4051 -0.69664,11.52471 -0.17186,7.76149 -0.72401,10.5608 -3.32241,16.84389 -3.45546,8.3556 -3.86249,14.115 -2.29438,32.4648 0.60937,7.1306 0.48891,10.6875 -0.43537,12.8545 -0.70284,1.64791 -1.70252,8.9801 -2.22153,16.2939 -1.41073,19.87941 -3.48549,32.3783 -6.91642,41.6664 -1.91856,5.1939 -9.99317,20.9827 -16.00845,31.3025 -2.32196,3.98351 -4.22174,7.5024 -4.22174,7.8197 0,0.31731 -0.88151,2.2164 -1.95892,4.2202 -1.07742,2.0037 -2.54693,5.2389 -3.26559,7.1892 -2.68405,7.2841 -9.00837,18.85989 -14.36165,26.28709 -3.04063,4.2187 -5.52841,7.9256 -5.52841,8.2375 0,0.312 -0.82408,1.322 -1.83126,2.2446 -2.07618,1.9017 -5.20772,7.0532 -8.63553,14.2058 -7.65337,15.9698 -7.92567,16.3894 -10.81868,16.6811 -3.18338,0.3209 -3.34938,-0.024 -1.32196,-2.7495 0.8034,-1.0799 1.79573,-2.9609 2.20519,-4.1798 0.71861,-2.1393 0.67694,-2.1615 -1.19909,-0.6364 -1.06896,0.869 -2.45407,2.8636 -3.07801,4.4326 -0.76213,1.9164 -1.91681,2.9498 -3.51821,3.1488 -2.19056,0.2724 -1.86611,-0.5257 4.00304,-9.8473 l -5e-5,0 c 3.51275,-5.5788 7.57182,-12.8107 9.02012,-16.0704 3.34629,-7.5317 10.28546,-19.3088 19.63966,-33.33208 1.46358,-2.19421 3.94605,-7.38031 5.51661,-11.52481 3.7287,-9.8396 7.44429,-17.2255 16.27814,-32.35799 3.9849,-6.8262 7.70208,-14.5164 8.26036,-17.0893 0.55831,-2.573 1.49579,-5.439 2.08328,-6.369 0.58751,-0.93 1.06819,-5.6431 1.06819,-10.4735 0,-5.2392 0.62873,-10.5384 1.55833,-13.1345 1.96075,-5.4756 1.98693,-9.0746 0.0939,-12.9127 -1.55527,-3.1534 -1.53364,-3.8946 0.51581,-17.6677 1.09729,-7.3742 1.02829,-9.5067 -0.5216,-16.1237 -1.28087,-5.4684 -1.58011,-9.3966 -1.05788,-13.8864 0.40451,-3.4778 0.31924,-6.2595 -0.19181,-6.2577 -2.1729,0.01 -7.72388,3.6495 -7.74517,5.0812 -0.0463,3.1077 -3.66366,5.7707 -8.72245,6.4211 -2.67192,0.3435 -4.85803,0.2889 -4.85803,-0.1214 0,-0.4102 1.57518,-0.7459 3.50037,-0.7459 4.02365,0 6.3933,-1.8341 7.65972,-5.9285 0.53232,-1.721 2.27492,-3.6272 4.45747,-4.8758 7.74719,-4.4325 11.55655,-11.4367 12.2044,-22.4402 1.45623,-24.7333 1.6077,-53.5272 0.34662,-65.89501 -0.77904,-7.64049 -1.43173,-21.96947 -1.4504,-31.84216 -0.0186,-9.87268 -0.36497,-17.9511 -0.76953,-17.95203 -3.34624,-0.008 -6.48403,2.72269 -9.84887,8.57007 -2.05633,3.57348 -4.19685,6.73706 -4.7567,7.03019 -2.3317,1.22083 -1.99156,-0.71672 0.82547,-4.70203 1.65267,-2.33808 3.2403,-4.71804 3.52807,-5.28883 0.28775,-0.57082 2.69462,-2.97687 5.34854,-5.3468 5.69415,-5.0848 7.58854,-8.00645 9.08106,-14.00535 4.02382,-16.17286 6.32573,-23.33937 10.33125,-32.1645 2.49672,-5.50081 4.53947,-10.3121 4.53947,-10.69175 0,-0.37967 1.22302,-3.25927 2.71783,-6.39914 6.61618,-13.89745 12.26212,-28.70573 14.85168,-38.95334 2.54326,-10.06442 2.80193,-12.84716 2.81818,-30.31921 0.0208,-22.30247 -0.66844,-24.36311 -5.38547,-16.10213 -3.97057,6.95371 -9.75218,11.50967 -20.46153,16.12383 -6.81676,2.93702 -9.65107,4.73928 -12.1201,7.70681 -2.41138,2.89823 -4.13969,4.01904 -6.86546,4.45226 -2.03937,0.32411 -4.7948,1.67426 -6.25994,3.06735 -1.43942,1.36862 -4.07068,2.75886 -5.84723,3.08943 -1.77655,0.33056 -3.75744,1.4662 -4.40199,2.52363 -1.68879,2.7706 -13.89301,12.0434 -18.42957,14.00281 -3.47473,1.5008 -17.00653,2.98509 -17.00653,1.86545 0,-1.37922 4.28044,-2.81138 8.47611,-2.83596 4.59992,-0.0269 10.37271,-2.59242 15.42098,-6.85323 0.76925,-0.64925 3.00602,-2.21911 4.97058,-3.48857 1.96459,-1.26947 3.57197,-2.79731 3.57197,-3.39526 0,-1.51605 3.47257,-4.02152 5.57378,-4.02152 0.96055,0 3.4938,-1.39626 5.62944,-3.10282 2.13563,-1.70656 4.75762,-3.10282 5.82663,-3.10282 3.09938,0 5.63695,-1.52057 8.04409,-4.82019 1.50268,-2.05979 4.15126,-3.81111 8.05147,-5.32379 5.93152,-2.30054 18.0645,-9.28966 18.11967,-10.4377 0.0167,-0.34924 1.9141,-3.10388 4.21625,-6.12145 2.30218,-3.01756 4.18576,-5.96119 4.18576,-6.54141 0,-0.58022 0.90785,-1.75097 2.01745,-2.60169 1.94246,-1.48926 2.08828,-1.4367 3.92415,1.41402 1.7022,2.64319 1.90472,5.3378 1.88803,25.12374 -0.0177,20.93012 -0.17133,22.68082 -2.76281,31.47146 -1.50925,5.11965 -3.22176,10.50527 -3.80554,11.96803 -0.5838,1.46276 -2.31849,6.0505 -3.85488,10.19498 -2.52333,6.80681 -16.40963,39.30511 -20.08032,46.99428 -0.81697,1.71134 -1.92702,6.29908 -2.46676,10.19496 -0.53976,3.8959 -1.68891,9.67652 -2.55367,12.84583 -2.20535,8.08252 -3.98167,29.22532 -3.16546,37.67709 0.3767,3.9007 1.34364,12.27829 2.14879,18.61693 1.13696,8.95114 1.24296,15.28624 0.47467,28.36864 -0.54405,9.2641 -1.2659,24.8225 -1.60409,34.5743 -0.53033,15.2911 -0.92604,18.4012 -2.87648,22.6062 -1.89676,4.0894 -2.23762,6.5204 -2.11315,15.0709 0.0815,5.6072 0.62658,11.2595 1.21104,12.5605 0.72152,1.6062 0.71293,5.1634 -0.0268,11.0815 -0.59917,4.7938 -0.79383,13.1373 -0.43261,18.5412 0.49702,7.4354 0.26715,11.0927 -0.94509,15.0355 -0.88102,2.8656 -1.60187,8.8032 -1.60187,13.1946 0,4.6735 -0.62143,9.4671 -1.49863,11.5601 -0.82425,1.9667 -2.26521,5.9693 -3.20213,8.8949 -0.93692,2.9255 -2.61701,6.7944 -3.73358,8.5975 -2.48777,4.0176 -2.7094,5.8382 -0.52363,4.3015 2.05475,-1.4447 7.36033,-11.2218 9.23477,-17.0179 0.84424,-2.6105 2.33538,-8.7357 3.31365,-13.6115 0.97826,-4.8759 2.40821,-11.8572 3.17766,-15.5141 0.76945,-3.6569 1.15898,-9.2848 0.86559,-12.5064 -0.34082,-3.7425 0.12141,-8.653 1.28015,-13.6001 1.37743,-5.8807 1.61557,-9.3755 0.99025,-14.5325 -1.67114,-13.7819 0.0659,-30.736 3.74563,-36.5611 0.54696,-0.8658 1.48065,-6.689 2.07486,-12.9404 0.59423,-6.2513 1.53077,-13.9591 2.0812,-17.1285 0.55045,-3.1693 0.93101,-18.3287 0.84568,-33.6877 -0.40073,-72.13214 1.28367,-83.96869 15.44739,-108.55114 1.3896,-2.41176 2.52655,-4.87277 2.52655,-5.4689 0,-0.59614 0.67629,-2.21327 1.50286,-3.59364 0.8266,-1.38039 2.76295,-4.90338 4.30301,-7.8289 1.54007,-2.92552 3.94491,-7.23958 5.34407,-9.5868 3.27764,-5.49858 9.27501,-20.04216 10.86748,-26.35364 1.13296,-4.49021 1.04985,-5.17572 -0.96712,-7.97868 -2.2732,-3.15904 -3.02323,-8.82881 -1.16794,-8.82881 0.57554,0 1.04644,1.1526 1.04644,2.56135 0,1.40872 0.90208,3.50314 2.0046,4.65423 l 2.0046,2.09288 0.57706,-2.21631 c 3.99057,-15.3263 2.74917,-48.90936 -2.425,-65.60247 -2.98016,-9.61469 -9.08914,-25.28727 -10.96719,-28.13623 -2.90988,-4.41426 -9.91891,-24.46188 -11.03575,-31.56506 -1.45942,-9.28207 -1.47756,-32.20515 -0.0319,-40.47545 1.76695,-10.10945 9.61386,-33.47523 12.69849,-37.81235 1.09324,-1.53714 3.36266,-6.92275 5.04317,-11.96802 1.68051,-5.04526 3.8285,-10.96842 4.77333,-13.16255 4.1562,-9.65178 4.74152,-12.92646 2.87858,-16.10435 -0.95302,-1.62569 -2.34941,-3.48299 -3.10309,-4.1273 -1.74353,-1.49055 -1.72912,-2.34847 0.0605,-3.60678 1.08831,-0.76517 1.74524,-0.68504 2.74424,0.33472 2.63679,2.69162 4.19647,1.56632 4.19647,-3.02775 0,-6.7005 -2.07057,-18.13231 -3.46384,-19.12431 -0.68484,-0.48759 -1.0996,-1.95328 -0.92169,-3.2571 0.39027,-2.86043 -3.10934,-8.97671 -6.17831,-10.79779 -1.22118,-0.72464 -1.91666,-1.73378 -1.54549,-2.24256 0.37116,-0.50875 -0.28414,-1.73744 -1.45623,-2.73041 -1.1721,-0.99295 -2.13107,-2.38973 -2.13107,-3.10396 0,-0.71423 -0.90407,-1.70849 -2.00907,-2.20949 -1.105,-0.501 -2.54416,-2.28447 -3.19816,-3.96328 -0.65402,-1.6788 -1.51581,-3.17786 -1.91511,-3.33124 -1.51642,-0.58251 -7.67892,-12.58861 -8.72371,-16.99593 -1.10991,-4.68203 0.65407,-21.31467 3.25713,-30.71177 1.77146,-6.395 2.67753,-32.49832 1.18108,-34.02589 -0.90383,-0.92261 -0.92923,-1.44556 -0.0916,-1.88416 1.30073,-0.68102 0.65294,-18.93587 -1.02221,-28.80591 -0.5379,-3.16929 -1.27074,-8.05624 -1.62857,-10.85986 -0.50453,-3.95331 -1.04472,-5.10054 -2.40655,-5.11107 -1.40878,-0.0109 -1.47007,-0.16696 -0.30996,-0.78943 1.03724,-0.55655 1.24274,-1.69385 0.72691,-4.02317 -0.58601,-2.64639 -1.12608,-3.19754 -2.91839,-2.97827 -1.20962,0.14798 -2.40004,-0.22964 -2.64538,-0.83912 -0.26745,-0.66441 0.47236,-1.10814 1.84745,-1.10814 1.97262,0 2.19643,-0.34111 1.59957,-2.43794 -0.38165,-1.34085 -1.42165,-2.91004 -2.3111,-3.4871 -0.88945,-0.57703 -1.29402,-1.4921 -0.89908,-2.0335 0.39496,-0.54139 0.15399,-1.56018 -0.5355,-2.26399 -0.6895,-0.70381 -0.95479,-1.93935 -0.58956,-2.74564 0.36521,-0.80629 -0.0245,-2.35633 -0.86623,-3.44453 -1.66519,-2.153 -1.11786,-5.7503 0.87489,-5.7503 1.23978,0 3.04508,3.91222 6.23855,13.51943 5.64567,16.98441 6.71899,21.0197 7.4867,28.147 3.05918,28.40145 3.3277,34.1607 2.46015,52.76602 -0.5958,12.77772 -1.43366,20.79065 -2.45087,23.43941 -1.90023,4.94811 -3.69019,14.2762 -3.70079,19.28609 -0.015,7.07522 5.87634,18.42339 16.23914,31.28082 13.25474,16.44551 15.53929,21.89303 15.61481,37.23383 0.03,6.09483 -0.32927,11.73615 -0.79843,12.53626 -0.60424,1.03051 0.0812,2.3562 2.35026,4.54557 2.49124,2.40375 4.70581,3.41051 9.96281,4.52924 3.71775,0.79116 8.13334,1.43845 9.81241,1.43845 3.67358,0 11.19728,2.79878 14.9023,5.54355 1.47877,1.09554 4.84974,4.78442 7.49107,8.19751 7.27913,9.40609 10.09546,11.58733 17.13788,13.27318 17.06248,4.08453 24.2104,6.19474 26.76352,7.90117 1.54306,1.03135 4.52715,2.87251 6.63131,4.09147 2.71501,1.57283 4.84276,4.05963 7.32876,8.56543 2.44812,4.43713 4.23267,6.5377 5.92596,6.97538 1.33263,0.34445 3.12931,1.12441 3.99261,1.73329 0.86332,0.60887 3.59155,1.36705 6.06273,1.68486 4.51349,0.58043 7.53406,1.68762 10.95298,4.0148 1.45017,0.98709 2.62077,1.05161 5.49947,0.30313 3.68188,-0.95731 4.3398,-0.8666 17.77277,2.45033 5.89296,1.45512 9.94119,4.92351 9.94119,8.51733 0,1.58656 0.4709,3.1312 1.04644,3.43255 1.64811,0.86292 1.22235,7.16275 -0.71695,10.608 -1.70689,3.03238 -1.67535,3.35973 0.98424,10.21703 1.51118,3.89639 4.47529,9.2894 6.5869,11.98454 2.11162,2.6951 4.24743,6.38884 4.74624,8.20831 1.17978,4.30339 1.20666,9.957 0.0474,9.957 -0.99849,0 -2.20018,-5.08298 -2.21828,-9.38312 -0.007,-1.76108 -1.55634,-4.60077 -4.35203,-7.97867 -4.95011,-5.98106 -10.30962,-16.04027 -10.30962,-19.35011 0,-1.22915 0.78577,-3.63079 1.74617,-5.33698 1.46053,-2.59467 1.54611,-3.66786 0.52322,-6.56019 -0.67263,-1.90194 -1.22294,-4.51529 -1.22294,-5.80746 0,-2.64775 -2.05309,-3.64716 -13.7013,-6.66971 -4.33466,-1.12477 -8.27835,-1.60073 -10.60889,-1.28033 -2.77493,0.3815 -4.46399,0.0461 -6.70431,-1.33113 -1.64715,-1.0126 -5.3493,-2.29304 -8.22702,-2.84539 -11.37156,-2.18275 -13.24207,-2.7798 -16.64978,-5.31457 -1.94402,-1.44601 -3.84845,-3.7219 -4.23211,-5.0575 -1.67699,-5.83832 -5.57255,-9.08975 -15.62718,-13.04325 -5.31634,-2.09039 -11.9909,-4.07871 -14.83239,-4.41849 -2.84146,-0.33978 -6.40838,-1.08561 -7.92647,-1.6574 -4.32664,-1.62965 -12.34537,-7.74158 -15.90261,-12.12113 -8.79692,-10.83038 -13.69694,-13.3912 -28.669,-14.98277 -4.77578,-0.50768 -9.37001,-1.65808 -12.45481,-3.11873 -2.68826,-1.27289 -5.07231,-2.15798 -5.29785,-1.96689 -0.22557,0.19106 -0.63593,1.49342 -0.91193,2.89413 -0.70167,3.56079 -3.82011,11.45643 -12.03518,30.47207 -14.45159,33.45148 -17.09546,46.82094 -14.20039,71.80811 1.93776,16.72478 5.68784,29.90733 11.07611,38.93565 5.39079,9.03249 11.61994,28.42505 14.83052,46.17025 1.71341,9.47013 2.02454,14.09586 1.49071,22.16301 -0.37104,5.60725 -0.81862,12.38911 -0.99457,15.07084 -0.48756,7.43026 -1.672,12.19822 -3.31769,13.35532 -1.95115,1.37183 -1.91478,2.93051 0.0534,2.29065 0.84773,-0.27558 2.97893,0.52373 4.73601,1.77626"
         id="path4778"
         inkscape:connector-curvature="0" />
      <path
         style="display:inline;opacity:1;fill:none;stroke:#34a814;stroke-width:1.08635676;stroke-opacity:1"
         d="m 141.50393,1017.7232 c 6.41814,-8.5298 8.29302,-11.3451 12.08376,-18.14579 2.03837,-3.65689 4.40617,-7.7288 5.26177,-9.0488 1.54071,-2.3768 8.802,-19.9858 8.81087,-21.3668 0.0143,-2.2219 -2.23626,1.0891 -4.26012,6.2676 -3.05433,7.8152 -15.00961,28.27889 -20.84077,35.67279 -1.72359,2.1855 -6.28772,10.028 -6.28772,10.8042 0,1.7885 1.85432,0.306 5.23221,-4.1832 z"
         id="path4776"
         inkscape:connector-curvature="0" />
      <path
         style="display:inline;opacity:1;fill:none;stroke:#34a814;stroke-width:1.08635676;stroke-opacity:1"
         d="m 172.4667,961.44521 c 0.63254,-2.9502 0.58887,-3.0069 -0.95886,-1.2457 -0.89189,1.0149 -1.94441,3.0096 -2.33895,4.4326 -0.65126,2.349 -0.56292,2.4637 0.95888,1.2457 0.92191,-0.7379 1.97445,-2.7326 2.33893,-4.4326 z"
         id="path4774"
         inkscape:connector-curvature="0" />
      <path
         style="display:inline;opacity:1;fill:none;stroke:#34a814;stroke-width:1.08635676;stroke-opacity:1"
         d="m 161.41835,851.97191 c 0,-0.9752 0.45647,-2.3715 1.01438,-3.1029 0.83998,-1.10109 1.0144,-1.0249 1.0144,0.4433 0,0.9752 -0.45648,2.3714 -1.0144,3.10281 -0.83998,1.10119 -1.01438,1.02499 -1.01438,-0.44321 z"
         id="path4772"
         inkscape:connector-curvature="0" />
      <path
         style="display:inline;opacity:1;fill:none;stroke:#34a814;stroke-width:1.08635676;stroke-opacity:1"
         d="m 143.59681,744.25972 c 0,-0.48761 1.19973,-0.88654 2.66606,-0.88654 3.45409,0 7.48814,-3.7105 8.91514,-8.20005 0.90394,-2.84395 1.86921,-3.77951 5.10888,-4.95159 4.08372,-1.47749 6.33161,-4.65052 6.33161,-8.93751 0,-2.17783 3.07069,-7.16599 4.41138,-7.16599 1.2298,0 0.99817,1.28226 -0.74239,4.10962 -0.85977,1.39661 -1.56612,3.81525 -1.56967,5.37478 -0.006,2.89003 -3.11734,6.55126 -6.44591,7.58656 -0.95177,0.29603 -3.27513,3.19635 -5.16302,6.44514 -3.48775,6.00193 -5.69186,7.51208 -10.96409,7.51208 -1.40138,0 -2.54799,-0.39893 -2.54799,-0.88651 z"
         id="path4770"
         inkscape:connector-curvature="0" />
      <path
         style="display:inline;opacity:1;fill:none;stroke:#34a814;stroke-width:1.08635676;stroke-opacity:1"
         d="m 116.10809,620.96237 c 0.37004,-1.19875 0.84437,-1.60061 1.10562,-0.93666 0.25164,0.63958 -0.04,1.58436 -0.64807,2.09952 -0.77654,0.65787 -0.91272,0.31173 -0.45755,-1.16286 z"
         id="path4768"
         inkscape:connector-curvature="0" />
      <path
         style="display:inline;opacity:1;fill:none;stroke:#34a814;stroke-width:1.08635676;stroke-opacity:1"
         d="m 119.52867,616.73824 c 0,-0.41202 1.00282,-1.50909 2.2285,-2.43792 1.22566,-0.92885 3.12109,-3.44074 4.21206,-5.58201 2.36835,-4.64833 3.71936,-4.28788 1.90904,0.50934 -1.71383,4.54154 -8.3496,10.5105 -8.3496,7.51059 z"
         id="path4766"
         inkscape:connector-curvature="0" />
      <path
         style="display:inline;opacity:1;fill:none;stroke:#34a814;stroke-width:1.08635676;stroke-opacity:1"
         d="m 43.13855,597.91208 c 0,-1.33519 2.94611,-5.92319 6.38894,-9.94956 2.2208,-2.59723 3.02903,-4.55743 3.02903,-7.34643 0,-2.09221 0.47089,-4.05058 1.04643,-4.35191 0.57553,-0.30136 1.04643,-2.64742 1.04643,-5.21353 0,-5.34942 1.98561,-10.84066 6.43827,-17.80528 3.27047,-5.11552 6.82289,-7.80241 11.61284,-8.78352 1.58274,-0.32419 2.8777,-1.15174 2.8777,-1.839 0,-2.51627 3.19395,-4.03578 8.48309,-4.03578 4.85233,0 9.63987,-1.62973 11.65897,-3.96885 0.4306,-0.49885 0.5064,-2.53719 0.16848,-4.52963 -0.56265,-3.31724 -0.24091,-3.98982 3.81684,-7.97868 2.43723,-2.39583 5.27985,-4.63466 6.31699,-4.97521 3.05533,-1.00318 5.1346,-5.51598 5.1346,-11.14393 0,-8.69865 2.33607,-13.48659 10.49616,-21.51263 4.01134,-3.94544 7.29333,-7.48507 7.29333,-7.86586 0,-0.38079 1.12051,-1.79707 2.49002,-3.14731 4.35845,-4.29708 6.92793,-9.67841 6.92793,-14.5093 0,-5.79762 2.74986,-8.56177 15.14745,-15.22622 4.9887,-2.68171 11.74843,-6.67106 15.02163,-8.8652 3.27321,-2.19414 6.71088,-4.38827 7.6393,-4.87585 5.20173,-2.7319 12.46533,-7.78684 18.60176,-12.94551 6.91351,-5.81193 6.97238,-5.90288 8.32191,-12.85454 2.33197,-12.01256 9.82291,-32.92535 17.90353,-49.98224 2.51789,-5.31481 5.62688,-20.70326 4.68871,-23.20746 -0.67577,-1.80377 -3.02117,-0.0528 -29.35985,21.91998 -18.27397,15.24484 -23.72725,18.19659 -34.80093,18.83701 -3.66302,0.21185 -6.95931,0.0356 -7.32508,-0.39168 -0.36578,-0.42729 -3.37294,-2.52002 -6.68262,-4.65051 -4.33513,-2.79062 -6.38313,-3.62329 -7.32507,-2.97821 -0.71913,0.49247 -3.66199,1.17038 -6.53973,1.50645 -2.8777,0.33609 -6.47935,1.0789 -8.00367,1.65069 -2.99083,1.12189 -12.4019,10.01901 -12.4019,11.72461 0,0.57157 -1.4207,2.55372 -3.15708,4.40477 -1.94768,2.0763 -2.93217,3.96588 -2.56996,4.93269 1.64651,4.39491 -5.76628,11.44901 -12.03116,11.44901 -5.46398,0 -7.35636,1.37109 -7.35636,5.32988 0,2.84951 -0.53112,3.77735 -2.87772,5.02733 -1.58273,0.8431 -4.4245,2.64748 -6.31504,4.00978 -1.89055,1.36229 -4.24503,2.47838 -5.23221,2.48021 -0.98717,0.002 -3.37431,0.81909 -5.30476,1.81613 -1.93043,0.99707 -4.01511,1.67015 -4.63263,1.49579 -1.37515,-0.38835 5.7032,-4.20176 7.79917,-4.20176 0.82636,0 3.12525,-1.43492 5.10868,-3.1887 1.98342,-1.75381 4.66573,-3.53914 5.9607,-3.9674 1.87772,-0.62101 2.35449,-1.47338 2.35449,-4.20931 0,-4.18486 2.35517,-6.23922 7.98013,-6.96089 2.22967,-0.28609 5.58435,-1.29891 7.45486,-2.25073 3.08739,-1.57104 3.40094,-2.1263 3.40094,-6.02286 0,-3.21433 0.62107,-4.92162 2.47309,-6.79822 1.36021,-1.37827 3.44038,-4.10168 4.62262,-6.05204 2.70406,-4.46087 10.23367,-10.60443 14.35631,-11.7136 4.53868,-1.22107 4.46966,-3.32643 -0.19546,-5.96084 -2.19467,-1.23935 -5.08151,-2.92249 -6.41523,-3.74034 -3.28259,-2.01289 -13.61679,-2.01863 -17.00277,-0.009 -1.36951,0.81267 -4.34517,1.47757 -6.6126,1.47757 -5.01819,0 -12.45772,3.41212 -16.91227,7.75676 -2.89936,2.82781 -3.84633,3.16372 -10.46441,3.712 -6.45004,0.53434 -7.73678,0.96777 -11.32832,3.81584 -2.53578,2.01083 -5.53182,3.42484 -8.00746,3.77918 -3.46208,0.49552 -4.03722,0.93436 -4.60906,3.51666 -0.35935,1.62275 -1.22952,3.34325 -1.93371,3.8233 -0.7042,0.48005 -5.59454,1.04025 -10.86742,1.24487 -9.37822,0.36396 -9.68273,0.4453 -13.9809,3.73501 -4.579,3.50465 -14.36801,7.86356 -15.88077,7.0715 -1.546469,-0.8097 0.12321,-1.96169 7.00089,-4.83009 3.70294,-1.54436 7.481,-3.77558 8.39572,-4.95826 2.35399,-3.04359 6.17466,-4.05516 14.92245,-3.95085 7.36819,0.0879 7.64982,0.0125 8.74491,-2.33921 2.15106,-4.6195 2.69607,-5.09325 6.87485,-5.97609 2.30793,-0.48759 6.46035,-2.38252 9.22758,-4.21098 4.6977,-3.10398 5.50722,-3.32444 12.20715,-3.32444 6.63442,0 7.2655,-0.16684 8.3651,-2.21137 0.65411,-1.21625 2.64535,-3.00934 4.42495,-3.98463 1.77957,-0.97532 4.64831,-2.57116 6.37493,-3.54635 1.72663,-0.9752 4.61222,-1.77518 6.41246,-1.77775 1.80022,-0.003 4.96366,-0.60306 7.02985,-1.33444 2.06621,-0.73138 4.93264,-1.32978 6.36986,-1.32978 4.57822,0 12.44498,2.76849 16.76181,5.89883 5.64138,4.09085 7.93057,4.4223 13.88942,2.01107 6.16841,-2.49603 15.61618,-9.16585 17.60984,-12.43199 0.81675,-1.33807 3.43192,-4.33858 5.81148,-6.66776 2.37955,-2.32919 6.10367,-7.44646 8.27581,-11.37174 2.60078,-4.69984 5.62459,-8.49905 8.85541,-11.12617 2.69833,-2.19413 5.76965,-5.3856 6.82517,-7.09215 1.05553,-1.70655 4.07749,-5.2298 6.71552,-7.82944 2.63801,-2.59964 4.79462,-4.99324 4.79246,-5.31911 -0.002,-0.32589 -0.86889,-1.79413 -1.92608,-3.26277 -4.80959,-6.68141 -5.85519,-11.65014 -5.68768,-27.02816 0.15823,-14.5288 0.41457,-16.07723 5.65034,-34.13102 2.74608,-9.46894 4.17091,-41.85505 2.28163,-51.8614 -2.58216,-13.67625 -3.81158,-19.08526 -4.53371,-19.9467 -0.40872,-0.48757 -1.33773,-3.08066 -2.06444,-5.76237 -0.72672,-2.68172 -3.14188,-9.92368 -5.36702,-16.09326 -4.4801,-12.42174 -4.76681,-14.04841 -2.47606,-14.04841 0.8633,0 1.56965,0.1409 1.56965,0.31311 0,0.17223 1.17724,3.06277 2.6161,6.42343 1.43885,3.36067 2.61609,6.8284 2.61609,7.70607 0,0.87767 1.1958,4.86874 2.65733,8.86905 2.89453,7.92251 3.99243,11.36997 5.56312,17.46824 0.56514,2.19413 1.65439,6.38294 2.42058,9.30847 2.66776,10.18644 1.23681,46.69423 -2.31075,58.95356 -6.2615,21.63796 -7.44542,40.05071 -3.21667,50.02656 1.2257,2.89152 2.88246,5.88354 3.68164,6.64889 0.79922,0.76539 1.6365,2.18946 1.86067,3.16463 0.25915,1.12732 1.08855,1.67276 2.27745,1.49767 1.29933,-0.19136 1.78422,0.21438 1.58919,1.32978 -0.53909,3.0832 4.55175,9.63336 12.43857,16.00409 7.18371,5.8028 8.11405,6.29305 9.67343,5.0975 2.49423,-1.91228 3.44364,-1.63071 2.88275,0.85497 -0.42098,1.86575 -0.22343,2.05628 1.37887,1.32979 2.49378,-1.13065 3.05432,-1.0706 3.05432,0.32727 0,0.64637 -1.10491,2.05463 -2.45535,3.12943 -2.3251,1.85048 -2.42974,2.4114 -1.97203,10.57113 0.51332,9.15149 -0.59563,13.23341 -7.75998,28.56367 -12.96368,27.73961 -15.61943,36.72237 -13.57471,45.91489 0.80276,3.6089 0.65368,3.95921 -2.88998,6.79055 -4.89861,3.91394 -6.05225,8.4013 -6.0016,23.34443 0.043,12.69275 0.64232,17.0168 2.87707,20.7584 0.7864,1.31666 1.42981,3.217 1.42981,4.22301 0,1.00599 0.46707,2.52179 1.03796,3.36847 0.57086,0.84666 1.96644,4.53139 3.10128,8.18828 2.09281,6.74388 9.18433,24.11086 14.09598,34.52074 1.48148,3.13986 2.69359,6.17878 2.69359,6.75312 0,0.57437 1.41269,4.67598 3.13932,9.1147 3.6305,9.33313 3.7457,10.12562 1.41533,9.73816 -1.21453,-0.20193 -2.56974,-2.90635 -4.58606,-9.15182 -1.57414,-4.87588 -5.30401,-14.64974 -8.28862,-21.71974 -8.63343,-20.45112 -15.8489,-38.90581 -18.02394,-46.09904 -2.41838,-7.99804 -3.6803,-26.52444 -2.12807,-31.24286 0.6246,-1.89868 0.694,-3.52553 0.16225,-3.80395 -1.27957,-0.66996 -7.26918,2.05475 -7.26918,3.30683 0,2.9579 -20.09912,16.24339 -26.70636,17.65286 -2.61549,0.55794 -5.2138,1.74002 -5.77403,2.62685 -0.56023,0.88683 -3.29156,2.69485 -6.06962,4.01783 -5.22499,2.48824 -8.5398,6.88515 -8.5398,11.32755 0,2.91113 -4.52364,11.27515 -7.20286,13.3178 -1.21831,0.92884 -2.2151,2.25991 -2.2151,2.95791 0,0.69801 -2.76617,3.72792 -6.14701,6.73314 -3.38085,3.00521 -6.92468,6.76055 -7.87517,8.34522 -0.95049,1.58463 -2.14303,2.88117 -2.6501,2.88117 -0.50703,0 -1.25211,3.88962 -1.65571,8.64358 -0.85243,10.04056 -2.41456,13.44978 -7.00711,15.29246 -5.33273,2.13965 -7.46022,5.35656 -7.2443,10.95395 0.17723,4.5952 -0.0142,4.98319 -3.76092,7.62627 -3.13397,2.21081 -4.81035,2.75111 -8.13339,2.62147 -7.52125,-0.29346 -8.73079,-0.03 -9.08358,1.97892 -0.1839,1.04728 -1.04073,2.17964 -1.90405,2.51636 -6.40164,2.49689 -8.08365,3.59882 -11.16559,7.31493 -4.61716,5.56723 -7.66916,12.58383 -7.6698,17.63311 -2.9e-4,2.25647 -0.68822,5.49701 -1.5287,7.20117 -0.84049,1.70417 -1.21432,3.36439 -0.83072,3.68935 0.74114,0.62788 -1.22467,4.25928 -6.38455,11.79407 -2.97642,4.34632 -5.90672,6.63448 -5.90672,4.61232 z"
         id="path4764"
         inkscape:connector-curvature="0" />
      <path
         style="display:inline;opacity:1;fill:none;stroke:#34a814;stroke-width:1.08635676;stroke-opacity:1"
         d="m 203.69074,413.12548 c 1.10905,-0.71085 1.7644,-1.50599 1.45628,-1.76701 -0.3081,-0.26103 -1.68642,0.31997 -3.06293,1.29112 -2.86164,2.01894 -1.45223,2.43641 1.60665,0.47589 z"
         id="path4762"
         inkscape:connector-curvature="0" />
      <path
         style="display:inline;opacity:1;fill:none;stroke:#34a814;stroke-width:1.08635676;stroke-opacity:1"
         d="m 165.51112,365.78816 c 5.63649,-1.25367 8.64293,-2.50349 11.44007,-4.75582 2.08684,-1.68036 5.48727,-4.00686 7.5565,-5.16995 2.06923,-1.16309 6.20675,-4.60805 9.19449,-7.65546 2.98774,-3.0474 6.08303,-5.54074 6.87843,-5.54074 0.79539,0 2.45209,-1.3789 3.68159,-3.06424 2.12666,-2.91514 12.06178,-11.11333 13.48342,-11.12615 0.36942,-0.004 1.83616,-1.45433 3.2594,-3.22443 l 2.58775,-3.21837 -7.99924,-6.30565 c -4.39961,-3.46812 -9.23861,-8.02682 -10.75336,-10.1305 l -2.75408,-3.82482 -4.27882,3.62494 c -5.14274,4.35678 -6.65154,4.05249 -2.0277,-0.40895 3.24317,-3.12928 4.10261,-4.87479 2.40022,-4.87479 -1.67528,0 -8.66293,7.13647 -8.48123,8.66183 0.40328,3.38542 -0.19274,4.77122 -3.1977,7.43508 -1.72662,1.53064 -3.15242,3.22248 -3.16844,3.75964 -0.039,1.3093 -6.24953,8.21519 -6.24953,6.94929 0,-0.54565 0.47764,-1.2422 1.06141,-1.54785 0.58377,-0.30566 2.04544,-2.18985 3.24817,-4.1871 l 2.18679,-3.63139 -3.50981,1.81249 c -3.94019,2.03473 -8.92945,9.61901 -9.6742,14.70595 -1.04417,7.13196 -10.67563,17.89012 -23.25396,25.97427 l -2.90204,1.86514 4.54475,2.78907 c 5.31953,3.26454 6.57604,3.3463 16.72712,1.08852 z"
         id="path4760"
         inkscape:connector-curvature="0" />
      <path
         style="display:inline;opacity:1;fill:none;stroke:#34a814;stroke-width:1.08635676;stroke-opacity:1"
         d="m 166.5253,339.99803 c 1.76725,-2.4332 3.04507,-4.42402 2.8396,-4.42402 -0.70079,0 -7.9786,8.26697 -7.9786,9.06302 0,1.51506 1.94354,-0.23937 5.139,-4.639 z"
         id="path4758"
         inkscape:connector-curvature="0" />
      <path
         style="display:inline;opacity:1;fill:none;stroke:#34a814;stroke-width:1.08635676;stroke-opacity:1"
         d="m 102.78564,500.4144 c 0,-0.51635 0.47089,-0.69228 1.04645,-0.39093 0.57554,0.30134 1.04644,0.72383 1.04644,0.93884 0,0.21501 -0.4709,0.39094 -1.04644,0.39094 -0.57556,0 -1.04645,-0.42247 -1.04645,-0.93885 z"
         id="path14136"
         inkscape:connector-curvature="0" />
      <path
         d="m 177.82744,127.54304 20.52895,12.12029 19.20456,-10.10024 z"
         style="display:inline;fill:none;stroke:#34a814;stroke-width:1.1449765;stroke-linejoin:bevel;stroke-opacity:1"
         id="path12184"
         inkscape:connector-curvature="0" />
      <path
         d="m 198.35639,139.66333 10.92672,5.30262 8.27784,-15.40286 z"
         style="display:inline;fill:none;stroke:#34a814;stroke-width:1.1449765;stroke-linejoin:bevel;stroke-opacity:1"
         id="path12186"
         inkscape:connector-curvature="0" />
      <path
         d="m 209.28311,144.96595 14.5925,2.97188 -6.31466,-18.37474 z"
         style="display:inline;fill:none;stroke:#34a814;stroke-width:1.1449765;stroke-linejoin:bevel;stroke-opacity:1"
         id="path12188"
         inkscape:connector-curvature="0" />
      <path
         d="m 192.79809,160.18065 16.48502,-15.2147 -10.92672,-5.30262 z"
         style="display:inline;fill:none;stroke:#34a814;stroke-width:1.1449765;stroke-linejoin:bevel;stroke-opacity:1"
         id="path12190"
         inkscape:connector-curvature="0" />
      <path
         d="m 192.79809,160.18065 13.17388,3.72324 3.31114,-18.93794 z"
         style="display:inline;fill:none;stroke:#34a814;stroke-width:1.1449765;stroke-linejoin:bevel;stroke-opacity:1"
         id="path12192"
         inkscape:connector-curvature="0" />
      <path
         d="m 205.97197,163.90389 17.90364,-15.96606 -14.5925,-2.97188 z"
         style="display:inline;fill:none;stroke:#34a814;stroke-width:1.1449765;stroke-linejoin:bevel;stroke-opacity:1"
         id="path12194"
         inkscape:connector-curvature="0" />
      <path
         d="m 177.82744,127.54304 14.97065,32.63761 5.5583,-20.51732 z"
         style="display:inline;fill:none;stroke:#34a814;stroke-width:1.1449765;stroke-linejoin:bevel;stroke-opacity:1"
         id="path12196"
         inkscape:connector-curvature="0" />
      <path
         d="m 217.22981,170.72155 6.6458,-22.78372 -17.90364,15.96606 z"
         style="display:inline;fill:none;stroke:#34a814;stroke-width:1.1449765;stroke-linejoin:bevel;stroke-opacity:1"
         id="path12198"
         inkscape:connector-curvature="0" />
      <path
         d="m 217.22981,170.72155 12.39803,1.91546 -5.75223,-24.69918 z"
         style="display:inline;fill:none;stroke:#34a814;stroke-width:1.1449765;stroke-linejoin:bevel;stroke-opacity:1"
         id="path12200"
         inkscape:connector-curvature="0" />
      <path
         d="m 199.32626,192.24583 17.90355,-21.52428 -11.25784,-6.81766 z"
         style="display:inline;fill:none;stroke:#34a814;stroke-width:1.1449765;stroke-linejoin:bevel;stroke-opacity:1"
         id="path12202"
         inkscape:connector-curvature="0" />
      <path
         d="m 192.79809,160.18065 6.52817,32.06518 6.64571,-28.34194 z"
         style="display:inline;fill:none;stroke:#34a814;stroke-width:1.1449765;stroke-linejoin:bevel;stroke-opacity:1"
         id="path12204"
         inkscape:connector-curvature="0" />
      <path
         d="m 220.87209,200.76977 11.56537,-2.52505 -2.80962,-25.6077 z"
         style="display:inline;fill:none;stroke:#34a814;stroke-width:1.1449765;stroke-linejoin:bevel;stroke-opacity:1"
         id="path12206"
         inkscape:connector-curvature="0" />
      <path
         d="m 217.22981,170.72155 3.64228,30.04822 8.75575,-28.13276 z"
         style="display:inline;fill:none;stroke:#34a814;stroke-width:1.1449765;stroke-linejoin:bevel;stroke-opacity:1"
         id="path12208"
         inkscape:connector-curvature="0" />
      <path
         d="m 199.32626,192.24583 21.54583,8.52394 -3.64228,-30.04822 z"
         style="display:inline;fill:none;stroke:#34a814;stroke-width:1.1449765;stroke-linejoin:bevel;stroke-opacity:1"
         id="path12210"
         inkscape:connector-curvature="0" />
      <path
         d="m 207.95869,204.55735 12.9134,-3.78758 -21.54583,-8.52394 z"
         style="display:inline;fill:none;stroke:#34a814;stroke-width:1.1449765;stroke-linejoin:bevel;stroke-opacity:1"
         id="path12212"
         inkscape:connector-curvature="0" />
      <path
         d="m 220.87209,200.76977 12.88988,19.75675 -1.32451,-22.2818 z"
         style="display:inline;fill:none;stroke:#34a814;stroke-width:1.1449765;stroke-linejoin:bevel;stroke-opacity:1"
         id="path12214"
         inkscape:connector-curvature="0" />
      <path
         d="m 207.95869,204.55735 25.80328,15.96916 -12.88988,-19.75674 z"
         style="display:inline;fill:none;stroke:#34a814;stroke-width:1.1449765;stroke-linejoin:bevel;stroke-opacity:1"
         id="path12216"
         inkscape:connector-curvature="0" />
      <path
         d="m 199.32626,192.24583 -1.3245,31.60657 9.95693,-19.29505 z"
         style="display:inline;fill:none;stroke:#34a814;stroke-width:1.1449765;stroke-linejoin:bevel;stroke-opacity:1"
         id="path12218"
         inkscape:connector-curvature="0" />
      <path
         d="m 207.95869,204.55735 11.58898,25.50311 14.2143,-9.53395 z"
         style="display:inline;fill:none;stroke:#34a814;stroke-width:1.1449765;stroke-linejoin:bevel;stroke-opacity:1"
         id="path12220"
         inkscape:connector-curvature="0" />
      <path
         d="m 198.00176,223.8524 21.54591,6.20806 -11.58898,-25.50311 z"
         style="display:inline;fill:none;stroke:#34a814;stroke-width:1.1449765;stroke-linejoin:bevel;stroke-opacity:1"
         id="path12222"
         inkscape:connector-curvature="0" />
      <path
         d="m 206.96533,230.31297 12.58234,-0.2525 -21.54591,-6.20806 z"
         style="display:inline;fill:none;stroke:#34a814;stroke-width:1.1449765;stroke-linejoin:bevel;stroke-opacity:1"
         id="path12224"
         inkscape:connector-curvature="0" />
      <path
         d="m 230.33718,242.38992 3.42479,-21.8634 -14.2143,9.53395 z"
         style="display:inline;fill:none;stroke:#34a814;stroke-width:1.1449765;stroke-linejoin:bevel;stroke-opacity:1"
         id="path12226"
         inkscape:connector-curvature="0" />
      <path
         d="m 191.7009,246.83788 15.26443,-16.52492 -8.96357,-6.46056 z"
         style="display:inline;fill:none;stroke:#34a814;stroke-width:1.1449765;stroke-linejoin:bevel;stroke-opacity:1"
         id="path12228"
         inkscape:connector-curvature="0" />
      <path
         d="m 219.54767,230.06046 -5.29777,23.98808 16.08728,-11.65862 z"
         style="display:inline;fill:none;stroke:#34a814;stroke-width:1.1449765;stroke-linejoin:bevel;stroke-opacity:1"
         id="path12230"
         inkscape:connector-curvature="0" />
      <path
         d="m 206.96533,230.31297 7.28457,23.73558 5.29777,-23.98808 z"
         style="display:inline;fill:none;stroke:#34a814;stroke-width:1.1449765;stroke-linejoin:bevel;stroke-opacity:1"
         id="path12232"
         inkscape:connector-curvature="0" />
      <path
         d="m 191.7009,246.83788 22.549,7.21066 -7.28457,-23.73558 z"
         style="display:inline;fill:none;stroke:#34a814;stroke-width:1.1449765;stroke-linejoin:bevel;stroke-opacity:1"
         id="path12234"
         inkscape:connector-curvature="0" />
      <path
         d="m 201.66756,254.80603 12.58234,-0.75748 -22.549,-7.21066 z"
         style="display:inline;fill:none;stroke:#34a814;stroke-width:1.1449765;stroke-linejoin:bevel;stroke-opacity:1"
         id="path12236"
         inkscape:connector-curvature="0" />
      <path
         d="m 191.7009,246.83788 -3.45818,23.01217 13.42484,-15.04402 z"
         style="display:inline;fill:none;stroke:#34a814;stroke-width:1.1449765;stroke-linejoin:bevel;stroke-opacity:1"
         id="path12238"
         inkscape:connector-curvature="0" />
      <path
         style="display:inline;fill:none;stroke:#34a814;stroke-width:1.1449765;stroke-linejoin:bevel;stroke-opacity:1"
         d="m 226.43239,260.08701 3.90479,-17.69709 -16.08728,11.65863 z"
         id="path14130"
         inkscape:connector-curvature="0" />
      <path
         style="display:inline;fill:none;stroke:#34a814;stroke-width:1.1449765;stroke-linejoin:bevel;stroke-opacity:1"
         d="m 214.2499,254.04855 16.55552,17.9279 -4.37303,-11.88944 z"
         id="path12240"
         inkscape:connector-curvature="0" />
      <path
         d="m 214.2499,254.04855 3.6422,24.24053 12.91332,-6.31263 z"
         style="display:inline;fill:none;stroke:#34a814;stroke-width:1.1449765;stroke-linejoin:bevel;stroke-opacity:1"
         id="path12242"
         inkscape:connector-curvature="0" />
      <path
         d="m 201.66756,254.80603 16.22454,23.48305 -3.6422,-24.24054 z"
         style="display:inline;fill:none;stroke:#34a814;stroke-width:1.1449765;stroke-linejoin:bevel;stroke-opacity:1"
         id="path12244"
         inkscape:connector-curvature="0" />
      <path
         d="m 188.24272,269.85005 29.64938,8.43903 -16.22454,-23.48305 z"
         style="display:inline;fill:none;stroke:#34a814;stroke-width:1.1449765;stroke-linejoin:bevel;stroke-opacity:1"
         id="path12246"
         inkscape:connector-curvature="0" />
      <path
         d="m 188.24272,269.85005 20.37819,15.25669 9.27119,-6.81766 z"
         style="display:inline;fill:none;stroke:#34a814;stroke-width:1.1449765;stroke-linejoin:bevel;stroke-opacity:1"
         id="path12248"
         inkscape:connector-curvature="0" />
      <path
         d="m 193.72083,290.15688 14.90008,-5.05014 -20.37819,-15.25669 z"
         style="display:inline;fill:none;stroke:#34a814;stroke-width:1.1449765;stroke-linejoin:bevel;stroke-opacity:1"
         id="path12250"
         inkscape:connector-curvature="0" />
      <path
         d="m 226.83216,296.21702 3.97326,-24.24057 -12.91332,6.31263 z"
         style="display:inline;fill:none;stroke:#34a814;stroke-width:1.1449765;stroke-linejoin:bevel;stroke-opacity:1"
         id="path12252"
         inkscape:connector-curvature="0" />
      <path
         d="m 208.62091,285.10674 18.21125,11.11028 -8.94006,-17.92794 z"
         style="display:inline;fill:none;stroke:#34a814;stroke-width:1.1449765;stroke-linejoin:bevel;stroke-opacity:1"
         id="path12254"
         inkscape:connector-curvature="0" />
      <path
         d="m 226.83216,296.21702 17.2178,-1.01003 -13.24454,-23.23054 z"
         style="display:inline;fill:none;stroke:#34a814;stroke-width:1.1449765;stroke-linejoin:bevel;stroke-opacity:1"
         id="path12256"
         inkscape:connector-curvature="0" />
      <path
         d="m 208.62091,285.10674 12.58224,19.69549 5.62901,-8.58521 z"
         style="display:inline;fill:none;stroke:#34a814;stroke-width:1.1449765;stroke-linejoin:bevel;stroke-opacity:1"
         id="path12258"
         inkscape:connector-curvature="0" />
      <path
         d="m 193.72083,290.15688 27.48232,14.64535 -12.58224,-19.69549 z"
         style="display:inline;fill:none;stroke:#34a814;stroke-width:1.1449765;stroke-linejoin:bevel;stroke-opacity:1"
         id="path12260"
         inkscape:connector-curvature="0" />
      <path
         d="m 236.10319,312.88241 7.94677,-17.67542 -17.2178,1.01003 z"
         style="display:inline;fill:none;stroke:#34a814;stroke-width:1.1449765;stroke-linejoin:bevel;stroke-opacity:1"
         id="path12262"
         inkscape:connector-curvature="0" />
      <path
         d="m 221.20315,304.80223 14.90004,8.08018 -9.27103,-16.66539 z"
         style="display:inline;fill:none;stroke:#34a814;stroke-width:1.1449765;stroke-linejoin:bevel;stroke-opacity:1"
         id="path12264"
         inkscape:connector-curvature="0" />
      <path
         d="m 193.72083,290.15688 18.54227,22.22053 8.94005,-7.57518 z"
         style="display:inline;fill:none;stroke:#34a814;stroke-width:1.1449765;stroke-linejoin:bevel;stroke-opacity:1"
         id="path12266"
         inkscape:connector-curvature="0" />
      <path
         d="m 236.10319,312.88241 20.01366,-2.54607 -12.06689,-15.12935 z"
         style="display:inline;fill:none;stroke:#34a814;stroke-width:1.1449765;stroke-linejoin:bevel;stroke-opacity:1"
         id="path12268"
         inkscape:connector-curvature="0" />
      <path
         d="m 212.2631,312.37741 23.84009,0.505 -14.90004,-8.08018 z"
         style="display:inline;fill:none;stroke:#34a814;stroke-width:1.1449765;stroke-linejoin:bevel;stroke-opacity:1"
         id="path12270"
         inkscape:connector-curvature="0" />
      <path
         d="m 212.2631,312.37741 15.782,12.46563 8.05809,-11.96063 z"
         style="display:inline;fill:none;stroke:#34a814;stroke-width:1.1449765;stroke-linejoin:bevel;stroke-opacity:1"
         id="path12272"
         inkscape:connector-curvature="0" />
      <path
         d="m 236.10319,312.88241 14.2379,14.64535 5.77576,-17.19142 z"
         style="display:inline;fill:none;stroke:#34a814;stroke-width:1.1449765;stroke-linejoin:bevel;stroke-opacity:1"
         id="path12276"
         inkscape:connector-curvature="0" />
      <path
         d="m 250.34109,327.52776 11.419,1.60045 -5.64324,-18.79187 z"
         style="display:inline;fill:none;stroke:#34a814;stroke-width:1.1449765;stroke-linejoin:bevel;stroke-opacity:1"
         id="path12278"
         inkscape:connector-curvature="0" />
      <path
         d="m 228.0451,324.84304 22.29599,2.68472 -14.2379,-14.64535 z"
         style="display:inline;fill:none;stroke:#34a814;stroke-width:1.1449765;stroke-linejoin:bevel;stroke-opacity:1"
         id="path12280"
         inkscape:connector-curvature="0" />
      <path
         d="m 238.0899,333.3354 12.25119,-5.80764 -22.29599,-2.68472 z"
         style="display:inline;fill:none;stroke:#34a814;stroke-width:1.1449765;stroke-linejoin:bevel;stroke-opacity:1"
         id="path12282"
         inkscape:connector-curvature="0" />
      <path
         d="m 247.69217,343.43564 2.64892,-15.90788 -12.25119,5.80764 z"
         style="display:inline;fill:none;stroke:#34a814;stroke-width:1.1449765;stroke-linejoin:bevel;stroke-opacity:1"
         id="path12284"
         inkscape:connector-curvature="0" />
      <path
         d="m 247.69217,343.43564 14.06792,-14.30743 -11.419,-1.60045 z"
         style="display:inline;fill:none;stroke:#34a814;stroke-width:1.1449765;stroke-linejoin:bevel;stroke-opacity:1"
         id="path12286"
         inkscape:connector-curvature="0" />
      <path
         d="m 247.69217,343.43564 12.47846,3.63968 1.58946,-17.94711 z"
         style="display:inline;fill:none;stroke:#34a814;stroke-width:1.1449765;stroke-linejoin:bevel;stroke-opacity:1"
         id="path12288"
         inkscape:connector-curvature="0" />
      <path
         d="m 236.10319,347.22322 11.58898,-3.78758 -9.60227,-10.10024 z"
         style="display:inline;fill:none;stroke:#34a814;stroke-width:1.1449765;stroke-linejoin:bevel;stroke-opacity:1"
         id="path12290"
         inkscape:connector-curvature="0" />
      <path
         d="m 228.0451,324.84304 8.05809,22.38018 1.98671,-13.88782 z"
         style="display:inline;fill:none;stroke:#34a814;stroke-width:1.1449765;stroke-linejoin:bevel;stroke-opacity:1"
         id="path12294"
         inkscape:connector-curvature="0" />
      <path
         d="m 228.0451,324.84304 -1.37371,29.79258 9.4318,-7.4124 z"
         style="display:inline;fill:none;stroke:#34a814;stroke-width:1.1449765;stroke-linejoin:bevel;stroke-opacity:1"
         id="path12296"
         inkscape:connector-curvature="0" />
      <path
         d="m 199.32626,192.24583 -7.62536,54.59205 6.30086,-22.98548 z"
         style="display:inline;fill:none;stroke:#34a814;stroke-width:1.1449765;stroke-linejoin:bevel;stroke-opacity:1"
         id="path12298"
         inkscape:connector-curvature="0" />
      <path
         d="m 231.46763,363.38361 4.63556,-16.16039 -9.4318,7.4124 z"
         style="display:inline;fill:none;stroke:#34a814;stroke-width:1.1449765;stroke-linejoin:bevel;stroke-opacity:1"
         id="path12302"
         inkscape:connector-curvature="0" />
      <path
         d="m 236.10319,347.22322 24.06744,-0.1479 -12.47846,-3.63968 z"
         style="display:inline;fill:none;stroke:#34a814;stroke-width:1.1449765;stroke-linejoin:bevel;stroke-opacity:1"
         id="path12306"
         inkscape:connector-curvature="0" />
      <path
         d="m 236.10319,347.22322 15.58585,23.31723 8.48159,-23.46513 z"
         style="display:inline;fill:none;stroke:#34a814;stroke-width:1.1449765;stroke-linejoin:bevel;stroke-opacity:1"
         id="path12310"
         inkscape:connector-curvature="0" />
      <path
         d="m 231.46763,363.38361 20.22141,7.15684 -15.58585,-23.31723 z"
         style="display:inline;fill:none;stroke:#34a814;stroke-width:1.1449765;stroke-linejoin:bevel;stroke-opacity:1"
         id="path12312"
         inkscape:connector-curvature="0" />
      <path
         d="m 239.41432,369.69625 12.27472,0.8442 -20.22141,-7.15684 z"
         style="display:inline;fill:none;stroke:#34a814;stroke-width:1.1449765;stroke-linejoin:bevel;stroke-opacity:1"
         id="path12314"
         inkscape:connector-curvature="0" />
      <path
         d="m 222.85873,383.0791 16.55559,-13.38285 -7.94669,-6.31264 z"
         style="display:inline;fill:none;stroke:#34a814;stroke-width:1.1449765;stroke-linejoin:bevel;stroke-opacity:1"
         id="path12318"
         inkscape:connector-curvature="0" />
      <path
         d="m 213.5876,383.56925 9.27113,-0.49015 8.6089,-19.69549 z"
         style="display:inline;fill:none;stroke:#34a814;stroke-width:1.1449765;stroke-linejoin:bevel;stroke-opacity:1"
         id="path12320"
         inkscape:connector-curvature="0" />
      <path
         d="m 226.67139,354.63562 -13.08379,28.93363 17.88003,-20.18563 z"
         style="display:inline;fill:none;stroke:#34a814;stroke-width:1.1449765;stroke-linejoin:bevel;stroke-opacity:1"
         id="path12322"
         inkscape:connector-curvature="0" />
      <path
         d="m 234.11655,389.13925 5.29777,-19.443 -16.55559,13.38286 z"
         style="display:inline;fill:none;stroke:#34a814;stroke-width:1.1449765;stroke-linejoin:bevel;stroke-opacity:1"
         id="path12324"
         inkscape:connector-curvature="0" />
      <path
         d="m 234.11655,389.13925 17.57249,-18.5988 -12.27472,-0.8442 z"
         style="display:inline;fill:none;stroke:#34a814;stroke-width:1.1449765;stroke-linejoin:bevel;stroke-opacity:1"
         id="path12326"
         inkscape:connector-curvature="0" />
      <path
         d="m 217.22981,407.06713 5.62892,-23.98803 -9.27113,0.49015 z"
         style="display:inline;fill:none;stroke:#34a814;stroke-width:1.1449765;stroke-linejoin:bevel;stroke-opacity:1"
         id="path12328"
         inkscape:connector-curvature="0" />
      <path
         d="m 217.22981,407.06713 16.88674,-17.92788 -11.25782,-6.06015 z"
         style="display:inline;fill:none;stroke:#34a814;stroke-width:1.1449765;stroke-linejoin:bevel;stroke-opacity:1"
         id="path12330"
         inkscape:connector-curvature="0" />
      <path
         d="m 217.22981,407.06713 20.19788,-1.76753 -3.31114,-16.16035 z"
         style="display:inline;fill:none;stroke:#34a814;stroke-width:1.1449765;stroke-linejoin:bevel;stroke-opacity:1"
         id="path12332"
         inkscape:connector-curvature="0" />
      <path
         d="m 213.5876,383.56925 -9.42396,28.40556 13.06617,-4.90768 z"
         style="display:inline;fill:none;stroke:#34a814;stroke-width:1.1449765;stroke-linejoin:bevel;stroke-opacity:1"
         id="path12334"
         inkscape:connector-curvature="0" />
      <path
         d="m 226.16986,416.15738 11.25783,-10.85778 -20.19788,1.76753 z"
         style="display:inline;fill:none;stroke:#34a814;stroke-width:1.1449765;stroke-linejoin:bevel;stroke-opacity:1"
         id="path12338"
         inkscape:connector-curvature="0" />
      <path
         d="m 237.42769,405.2996 14.26135,-34.75915 -17.57249,18.5988 z"
         style="display:inline;fill:none;stroke:#34a814;stroke-width:1.1449765;stroke-linejoin:bevel;stroke-opacity:1"
         id="path12340"
         inkscape:connector-curvature="0" />
      <path
         d="m 204.16364,411.97481 22.00622,4.18257 -8.94005,-9.09025 z"
         style="display:inline;fill:none;stroke:#34a814;stroke-width:1.1449765;stroke-linejoin:bevel;stroke-opacity:1"
         id="path12342"
         inkscape:connector-curvature="0" />
      <path
         d="m 204.16364,411.97481 10.41724,21.35296 11.58898,-17.17039 z"
         style="display:inline;fill:none;stroke:#34a814;stroke-width:1.1449765;stroke-linejoin:bevel;stroke-opacity:1"
         id="path12344"
         inkscape:connector-curvature="0" />
      <path
         d="m 214.58088,433.32777 13.93244,-3.85519 -2.34346,-13.3152 z"
         style="display:inline;fill:none;stroke:#34a814;stroke-width:1.1449765;stroke-linejoin:bevel;stroke-opacity:1"
         id="path12346"
         inkscape:connector-curvature="0" />
      <path
         d="m 228.51332,429.47258 8.91437,-24.17298 -11.25783,10.85778 z"
         style="display:inline;fill:none;stroke:#34a814;stroke-width:1.1449765;stroke-linejoin:bevel;stroke-opacity:1"
         id="path12348"
         inkscape:connector-curvature="0" />
      <path
         d="m 214.58088,433.32777 -18.4522,11.13872 12.82337,-3.81604 z"
         style="display:inline;fill:none;stroke:#34a814;stroke-width:1.1449765;stroke-linejoin:bevel;stroke-opacity:1"
         id="path12352"
         inkscape:connector-curvature="0" />
      <path
         d="m 204.16364,411.97481 -8.03496,32.49168 18.4522,-11.13871 z"
         style="display:inline;fill:none;stroke:#34a814;stroke-width:1.1449765;stroke-linejoin:bevel;stroke-opacity:1"
         id="path12354"
         inkscape:connector-curvature="0" />
      <path
         d="m 208.95205,440.65045 19.56127,-11.17787 -13.93244,3.85519 z"
         style="display:inline;fill:none;stroke:#34a814;stroke-width:1.1449765;stroke-linejoin:bevel;stroke-opacity:1"
         id="path12356"
         inkscape:connector-curvature="0" />
      <path
         d="m 218.55431,459.08337 9.95901,-29.61079 -19.56127,11.17787 z"
         style="display:inline;fill:none;stroke:#34a814;stroke-width:1.1449765;stroke-linejoin:bevel;stroke-opacity:1"
         id="path12358"
         inkscape:connector-curvature="0" />
      <path
         d="m 196.12868,444.46649 22.42563,14.61688 -9.60226,-18.43292 z"
         style="display:inline;fill:none;stroke:#34a814;stroke-width:1.1449765;stroke-linejoin:bevel;stroke-opacity:1"
         id="path12360"
         inkscape:connector-curvature="0" />
      <path
         d="m 230.80542,466.91108 -2.2921,-37.4385 -9.95901,29.61079 z"
         style="display:inline;fill:none;stroke:#34a814;stroke-width:1.1449765;stroke-linejoin:bevel;stroke-opacity:1"
         id="path12362"
         inkscape:connector-curvature="0" />
      <path
         d="m 217.56095,471.20366 13.24447,-4.29257 -12.25111,-7.82772 z"
         style="display:inline;fill:none;stroke:#34a814;stroke-width:1.1449765;stroke-linejoin:bevel;stroke-opacity:1"
         id="path12364"
         inkscape:connector-curvature="0" />
      <path
         d="m 196.12868,444.46649 21.43227,26.73717 0.99336,-12.12029 z"
         style="display:inline;fill:none;stroke:#34a814;stroke-width:1.1449765;stroke-linejoin:bevel;stroke-opacity:1"
         id="path12366"
         inkscape:connector-curvature="0" />
      <path
         d="m 217.56095,471.20366 -9.18292,13.97612 8.18957,-4.38088 z"
         style="display:inline;fill:none;stroke:#34a814;stroke-width:1.1449765;stroke-linejoin:bevel;stroke-opacity:1"
         id="path12368"
         inkscape:connector-curvature="0" />
      <path
         d="m 216.5676,480.7989 14.23782,-13.88781 -13.24447,4.29257 z"
         style="display:inline;fill:none;stroke:#34a814;stroke-width:1.1449765;stroke-linejoin:bevel;stroke-opacity:1"
         id="path12370"
         inkscape:connector-curvature="0" />
      <path
         d="m 227.82542,487.86908 2.98,-20.958 -14.23782,13.88782 z"
         style="display:inline;fill:none;stroke:#34a814;stroke-width:1.1449765;stroke-linejoin:bevel;stroke-opacity:1"
         id="path12372"
         inkscape:connector-curvature="0" />
      <path
         d="m 196.12868,444.46649 12.24935,40.71329 9.18292,-13.97612 z"
         style="display:inline;fill:none;stroke:#34a814;stroke-width:1.1449765;stroke-linejoin:bevel;stroke-opacity:1"
         id="path12374"
         inkscape:connector-curvature="0" />
      <path
         d="m 208.37803,485.17978 19.44739,2.6893 -11.25782,-7.07018 z"
         style="display:inline;fill:none;stroke:#34a814;stroke-width:1.1449765;stroke-linejoin:bevel;stroke-opacity:1"
         id="path12376"
         inkscape:connector-curvature="0" />
      <path
         d="m 239.28349,495.53558 -8.47807,-28.6245 -2.98,20.958 z"
         style="display:inline;fill:none;stroke:#34a814;stroke-width:1.1449765;stroke-linejoin:bevel;stroke-opacity:1"
         id="path12378"
         inkscape:connector-curvature="0" />
      <path
         d="m 208.37803,485.17978 11.5007,13.79954 7.94669,-11.11024 z"
         style="display:inline;fill:none;stroke:#34a814;stroke-width:1.1449765;stroke-linejoin:bevel;stroke-opacity:1"
         id="path12380"
         inkscape:connector-curvature="0" />
      <path
         d="m 219.87873,498.97932 19.40476,-3.44374 -11.45807,-7.6665 z"
         style="display:inline;fill:none;stroke:#34a814;stroke-width:1.1449765;stroke-linejoin:bevel;stroke-opacity:1"
         id="path12382"
         inkscape:connector-curvature="0" />
      <path
         d="m 219.87873,498.97932 13.90668,5.80764 5.49808,-9.25138 z"
         style="display:inline;fill:none;stroke:#34a814;stroke-width:1.1449765;stroke-linejoin:bevel;stroke-opacity:1"
         id="path12384"
         inkscape:connector-curvature="0" />
      <path
         d="m 220.37057,508.49532 13.41484,-3.70836 -13.90668,-5.80764 z"
         style="display:inline;fill:none;stroke:#34a814;stroke-width:1.1449765;stroke-linejoin:bevel;stroke-opacity:1"
         id="path12386"
         inkscape:connector-curvature="0" />
      <path
         d="m 233.78541,504.78696 14.2379,9.09022 -8.73982,-18.3416 z"
         style="display:inline;fill:none;stroke:#34a814;stroke-width:1.1449765;stroke-linejoin:bevel;stroke-opacity:1"
         id="path12390"
         inkscape:connector-curvature="0" />
      <path
         d="m 220.37057,508.49532 9.77264,13.20953 3.6422,-16.91789 z"
         style="display:inline;fill:none;stroke:#34a814;stroke-width:1.1449765;stroke-linejoin:bevel;stroke-opacity:1"
         id="path12392"
         inkscape:connector-curvature="0" />
      <path
         d="m 230.14321,521.70485 17.8801,-7.82767 -14.2379,-9.09022 z"
         style="display:inline;fill:none;stroke:#34a814;stroke-width:1.1449765;stroke-linejoin:bevel;stroke-opacity:1"
         id="path12394"
         inkscape:connector-curvature="0" />
      <path
         d="m 230.14321,521.70485 11.58889,2.52508 6.29121,-10.35275 z"
         style="display:inline;fill:none;stroke:#34a814;stroke-width:1.1449765;stroke-linejoin:bevel;stroke-opacity:1"
         id="path12396"
         inkscape:connector-curvature="0" />
      <path
         d="m 208.37803,485.17978 11.99254,23.31554 -0.49184,-9.516 z"
         style="display:inline;fill:none;stroke:#34a814;stroke-width:1.1449765;stroke-linejoin:bevel;stroke-opacity:1"
         id="path12398"
         inkscape:connector-curvature="0" />
      <path
         d="m 241.7321,524.22993 14.2379,7.32266 -7.94669,-17.67541 z"
         style="display:inline;fill:none;stroke:#34a814;stroke-width:1.1449765;stroke-linejoin:bevel;stroke-opacity:1"
         id="path12400"
         inkscape:connector-curvature="0" />
      <path
         d="m 241.7321,524.22993 4.63564,14.89784 9.60226,-7.57518 z"
         style="display:inline;fill:none;stroke:#34a814;stroke-width:1.1449765;stroke-linejoin:bevel;stroke-opacity:1"
         id="path12402"
         inkscape:connector-curvature="0" />
      <path
         d="m 230.14321,521.70485 3.05281,19.5392 8.53608,-17.01412 z"
         style="display:inline;fill:none;stroke:#34a814;stroke-width:1.1449765;stroke-linejoin:bevel;stroke-opacity:1"
         id="path12404"
         inkscape:connector-curvature="0" />
      <path
         d="m 233.19602,541.24405 13.17172,-2.11627 -4.63564,-14.89784 z"
         style="display:inline;fill:none;stroke:#34a814;stroke-width:1.1449765;stroke-linejoin:bevel;stroke-opacity:1"
         id="path12408"
         inkscape:connector-curvature="0" />
      <path
         d="m 239.41432,549.98554 6.95342,-10.85776 -13.17172,2.11627 z"
         style="display:inline;fill:none;stroke:#34a814;stroke-width:1.1449765;stroke-linejoin:bevel;stroke-opacity:1"
         id="path12410"
         inkscape:connector-curvature="0" />
      <path
         d="m 257.54571,553.02827 -1.57571,-21.47568 -9.60226,7.57519 z"
         style="display:inline;fill:none;stroke:#34a814;stroke-width:1.1449765;stroke-linejoin:bevel;stroke-opacity:1"
         id="path12412"
         inkscape:connector-curvature="0" />
      <path
         d="m 239.41432,549.98554 18.13139,3.04273 -11.17797,-13.90049 z"
         style="display:inline;fill:none;stroke:#34a814;stroke-width:1.1449765;stroke-linejoin:bevel;stroke-opacity:1"
         id="path12414"
         inkscape:connector-curvature="0" />
      <path
         d="m 239.41432,549.98554 13.57562,12.8778 4.55577,-9.83507 z"
         style="display:inline;fill:none;stroke:#34a814;stroke-width:1.1449765;stroke-linejoin:bevel;stroke-opacity:1"
         id="path12416"
         inkscape:connector-curvature="0" />
      <path
         d="m 236.10327,569.93353 16.88667,-7.07018 -13.57562,-12.87781 z"
         style="display:inline;fill:none;stroke:#34a814;stroke-width:1.1449765;stroke-linejoin:bevel;stroke-opacity:1"
         id="path12418"
         inkscape:connector-curvature="0" />
      <path
         d="m 239.74547,577.00369 13.24447,-14.14035 -16.88667,7.07019 z"
         style="display:inline;fill:none;stroke:#34a814;stroke-width:1.1449765;stroke-linejoin:bevel;stroke-opacity:1"
         id="path12422"
         inkscape:connector-curvature="0" />
      <path
         d="m 239.74547,577.00369 17.54896,-1.01003 -4.30449,-13.13032 z"
         style="display:inline;fill:none;stroke:#34a814;stroke-width:1.1449765;stroke-linejoin:bevel;stroke-opacity:1"
         id="path12424"
         inkscape:connector-curvature="0" />
      <path
         d="m 220.37057,508.49532 12.82545,32.74873 -3.05281,-19.53919 z"
         style="display:inline;fill:none;stroke:#34a814;stroke-width:1.1449765;stroke-linejoin:bevel;stroke-opacity:1"
         id="path12426"
         inkscape:connector-curvature="0" />
      <path
         d="m 233.19602,541.24405 2.90725,28.68948 3.31105,-19.94799 z"
         style="display:inline;fill:none;stroke:#34a814;stroke-width:1.1449765;stroke-linejoin:bevel;stroke-opacity:1"
         id="path12428"
         inkscape:connector-curvature="0" />
      <path
         d="m 257.29443,575.99366 0.25128,-22.96539 -4.55577,9.83507 z"
         style="display:inline;fill:none;stroke:#34a814;stroke-width:1.1449765;stroke-linejoin:bevel;stroke-opacity:1"
         id="path12430"
         inkscape:connector-curvature="0" />
      <path
         d="m 239.74547,577.00369 12.58225,8.33268 4.96671,-9.34271 z"
         style="display:inline;fill:none;stroke:#34a814;stroke-width:1.1449765;stroke-linejoin:bevel;stroke-opacity:1"
         id="path12432"
         inkscape:connector-curvature="0" />
      <path
         d="m 240.40768,592.15404 11.92004,-6.81767 -12.58225,-8.33268 z"
         style="display:inline;fill:none;stroke:#34a814;stroke-width:1.1449765;stroke-linejoin:bevel;stroke-opacity:1"
         id="path12436"
         inkscape:connector-curvature="0" />
      <path
         d="m 257.62558,593.16405 -0.33115,-17.17039 -4.96671,9.34271 z"
         style="display:inline;fill:none;stroke:#34a814;stroke-width:1.1449765;stroke-linejoin:bevel;stroke-opacity:1"
         id="path12438"
         inkscape:connector-curvature="0" />
      <path
         d="m 239.74547,577.00369 -11.58897,20.20047 12.25118,-5.05012 z"
         style="display:inline;fill:none;stroke:#34a814;stroke-width:1.1449765;stroke-linejoin:bevel;stroke-opacity:1"
         id="path12440"
         inkscape:connector-curvature="0" />
      <path
         d="m 240.40768,592.15404 17.2179,1.01001 -5.29786,-7.82768 z"
         style="display:inline;fill:none;stroke:#34a814;stroke-width:1.1449765;stroke-linejoin:bevel;stroke-opacity:1"
         id="path12442"
         inkscape:connector-curvature="0" />
      <path
         d="m 236.10327,569.93353 -7.94677,27.27063 11.58897,-20.20047 z"
         style="display:inline;fill:none;stroke:#34a814;stroke-width:1.1449765;stroke-linejoin:bevel;stroke-opacity:1"
         id="path12446"
         inkscape:connector-curvature="0" />
      <path
         d="m 240.40768,592.15404 12.58226,12.12029 4.63564,-11.11028 z"
         style="display:inline;fill:none;stroke:#34a814;stroke-width:1.1449765;stroke-linejoin:bevel;stroke-opacity:1"
         id="path12448"
         inkscape:connector-curvature="0" />
      <path
         d="m 232.12992,605.78936 8.27776,-13.63532 -12.25118,5.05012 z"
         style="display:inline;fill:none;stroke:#34a814;stroke-width:1.1449765;stroke-linejoin:bevel;stroke-opacity:1"
         id="path12450"
         inkscape:connector-curvature="0" />
      <path
         d="m 232.12992,605.78936 20.86002,-1.51503 -12.58226,-12.12029 z"
         style="display:inline;fill:none;stroke:#34a814;stroke-width:1.1449765;stroke-linejoin:bevel;stroke-opacity:1"
         id="path12452"
         inkscape:connector-curvature="0" />
      <path
         d="m 232.12992,605.78936 15.95989,8.70775 4.90013,-10.22278 z"
         style="display:inline;fill:none;stroke:#34a814;stroke-width:1.1449765;stroke-linejoin:bevel;stroke-opacity:1"
         id="path12456"
         inkscape:connector-curvature="0" />
      <path
         d="m 237.09655,619.92971 10.99326,-5.4326 -15.95989,-8.70775 z"
         style="display:inline;fill:none;stroke:#34a814;stroke-width:1.1449765;stroke-linejoin:bevel;stroke-opacity:1"
         id="path12458"
         inkscape:connector-curvature="0" />
      <path
         d="m 223.83071,618.73419 13.26584,1.19552 -4.96663,-14.14035 z"
         style="display:inline;fill:none;stroke:#34a814;stroke-width:1.1449765;stroke-linejoin:bevel;stroke-opacity:1"
         id="path12460"
         inkscape:connector-curvature="0" />
      <path
         d="m 228.1565,597.20416 -4.32579,21.53003 8.29921,-12.94483 z"
         style="display:inline;fill:none;stroke:#34a814;stroke-width:1.1449765;stroke-linejoin:bevel;stroke-opacity:1"
         id="path12462"
         inkscape:connector-curvature="0" />
      <path
         d="m 224.84544,633.565 12.25111,-13.63529 -13.26584,-1.19553 z"
         style="display:inline;fill:none;stroke:#34a814;stroke-width:1.1449765;stroke-linejoin:bevel;stroke-opacity:1"
         id="path12464"
         inkscape:connector-curvature="0" />
      <path
         d="m 223.83071,618.73419 -11.48726,21.91152 12.50199,-7.0807 z"
         style="display:inline;fill:none;stroke:#34a814;stroke-width:1.1449765;stroke-linejoin:bevel;stroke-opacity:1"
         id="path12468"
         inkscape:connector-curvature="0" />
      <path
         d="m 234.6008,641.23132 2.49575,-21.30161 -12.25111,13.6353 z"
         style="display:inline;fill:none;stroke:#34a814;stroke-width:1.1449765;stroke-linejoin:bevel;stroke-opacity:1"
         id="path12470"
         inkscape:connector-curvature="0" />
      <path
         d="m 234.6008,641.23132 13.48901,-26.73421 -10.99326,5.4326 z"
         style="display:inline;fill:none;stroke:#34a814;stroke-width:1.1449765;stroke-linejoin:bevel;stroke-opacity:1"
         id="path12472"
         inkscape:connector-curvature="0" />
      <path
         d="m 212.34345,640.64571 22.25735,0.58561 -9.75536,-7.66632 z"
         style="display:inline;fill:none;stroke:#34a814;stroke-width:1.1449765;stroke-linejoin:bevel;stroke-opacity:1"
         id="path12474"
         inkscape:connector-curvature="0" />
      <path
         d="m 212.34345,640.64571 15.48197,10.84725 6.77538,-10.26163 z"
         style="display:inline;fill:none;stroke:#34a814;stroke-width:1.1449765;stroke-linejoin:bevel;stroke-opacity:1"
         id="path12476"
         inkscape:connector-curvature="0" />
      <path
         d="m 212.9254,652.75549 14.90002,-1.26253 -15.48197,-10.84725 z"
         style="display:inline;fill:none;stroke:#34a814;stroke-width:1.1449765;stroke-linejoin:bevel;stroke-opacity:1"
         id="path12478"
         inkscape:connector-curvature="0" />
      <path
         d="m 212.34345,640.64571 -8.35811,17.66492 8.94006,-5.55513 z"
         style="display:inline;fill:none;stroke:#34a814;stroke-width:1.1449765;stroke-linejoin:bevel;stroke-opacity:1"
         id="path12480"
         inkscape:connector-curvature="0" />
      <path
         d="m 233.19602,541.24405 -5.03952,55.96011 7.94677,-27.27063 z"
         style="display:inline;fill:none;stroke:#34a814;stroke-width:1.1449765;stroke-linejoin:bevel;stroke-opacity:1"
         id="path12482"
         inkscape:connector-curvature="0" />
      <path
         d="m 211.93204,665.88577 0.99336,-13.13028 -8.94006,5.55513 z"
         style="display:inline;fill:none;stroke:#34a814;stroke-width:1.1449765;stroke-linejoin:bevel;stroke-opacity:1"
         id="path12484"
         inkscape:connector-curvature="0" />
      <path
         d="m 220.20979,668.91584 -7.28439,-16.16035 -0.99336,13.13028 z"
         style="display:inline;fill:none;stroke:#34a814;stroke-width:1.1449765;stroke-linejoin:bevel;stroke-opacity:1"
         id="path12486"
         inkscape:connector-curvature="0" />
      <path
         d="m 220.20979,668.91584 7.61563,-17.42289 -14.90002,1.26254 z"
         style="display:inline;fill:none;stroke:#34a814;stroke-width:1.1449765;stroke-linejoin:bevel;stroke-opacity:1"
         id="path12488"
         inkscape:connector-curvature="0" />
      <path
         d="m 196.20322,675.15559 15.72882,-9.26982 -7.9467,-7.57515 z"
         style="display:inline;fill:none;stroke:#34a814;stroke-width:1.1449765;stroke-linejoin:bevel;stroke-opacity:1"
         id="path12490"
         inkscape:connector-curvature="0" />
      <path
         d="m 196.20322,675.15559 24.00657,-6.23975 -8.27775,-3.03007 z"
         style="display:inline;fill:none;stroke:#34a814;stroke-width:1.1449765;stroke-linejoin:bevel;stroke-opacity:1"
         id="path12498"
         inkscape:connector-curvature="0" />
      <path
         d="m 199.34978,686.59127 20.86001,-17.67543 -24.00657,6.23975 z"
         style="display:inline;fill:none;stroke:#34a814;stroke-width:1.1449765;stroke-linejoin:bevel;stroke-opacity:1"
         id="path12500"
         inkscape:connector-curvature="0" />
      <path
         d="m 228.1565,597.20416 -15.81305,43.44155 11.48726,-21.91152 z"
         style="display:inline;fill:none;stroke:#34a814;stroke-width:1.1449765;stroke-linejoin:bevel;stroke-opacity:1"
         id="path12502"
         inkscape:connector-curvature="0" />
      <path
         d="m 211.18764,693.72464 9.02215,-24.8088 -20.86001,17.67543 z"
         style="display:inline;fill:none;stroke:#34a814;stroke-width:1.1449765;stroke-linejoin:bevel;stroke-opacity:1"
         id="path12504"
         inkscape:connector-curvature="0" />
      <path
         d="m 196.70086,703.50916 14.48678,-9.78452 -11.83786,-7.13338 z"
         style="display:inline;fill:none;stroke:#34a814;stroke-width:1.1449765;stroke-linejoin:bevel;stroke-opacity:1"
         id="path12506"
         inkscape:connector-curvature="0" />
      <path
         d="m 199.34978,686.59127 -9.6023,19.6955 6.95338,-2.7776 z"
         style="display:inline;fill:none;stroke:#34a814;stroke-width:1.1449765;stroke-linejoin:bevel;stroke-opacity:1"
         id="path12508"
         inkscape:connector-curvature="0" />
      <path
         d="m 208.62091,712.8519 2.56673,-19.12726 -14.48678,9.78453 z"
         style="display:inline;fill:none;stroke:#34a814;stroke-width:1.1449765;stroke-linejoin:bevel;stroke-opacity:1"
         id="path12510"
         inkscape:connector-curvature="0" />
      <path
         d="m 201.33642,715.37698 7.28449,-2.52508 -11.92005,-9.34274 z"
         style="display:inline;fill:none;stroke:#34a814;stroke-width:1.1449765;stroke-linejoin:bevel;stroke-opacity:1"
         id="path12512"
         inkscape:connector-curvature="0" />
      <path
         d="m 196.20322,675.15559 -6.45574,31.13117 9.6023,-19.6955 z"
         style="display:inline;fill:none;stroke:#34a814;stroke-width:1.1449765;stroke-linejoin:bevel;stroke-opacity:1"
         id="path12514"
         inkscape:connector-curvature="0" />
      <path
         d="m 189.74748,706.28676 11.58894,9.09021 -4.63556,-11.86781 z"
         style="display:inline;fill:none;stroke:#34a814;stroke-width:1.1449765;stroke-linejoin:bevel;stroke-opacity:1"
         id="path12516"
         inkscape:connector-curvature="0" />
      <path
         d="m 189.74748,706.28676 1.65557,20.70549 9.93337,-11.61527 z"
         style="display:inline;fill:none;stroke:#34a814;stroke-width:1.1449765;stroke-linejoin:bevel;stroke-opacity:1"
         id="path12518"
         inkscape:connector-curvature="0" />
      <path
         d="m 198.68754,731.03233 2.64888,-15.65535 -9.93337,11.61527 z"
         style="display:inline;fill:none;stroke:#34a814;stroke-width:1.1449765;stroke-linejoin:bevel;stroke-opacity:1"
         id="path12520"
         inkscape:connector-curvature="0" />
      <path
         d="m 198.68754,731.03233 8.28571,0.90174 -5.63683,-16.55709 z"
         style="display:inline;fill:none;stroke:#34a814;stroke-width:1.1449765;stroke-linejoin:bevel;stroke-opacity:1"
         id="path12522"
         inkscape:connector-curvature="0" />
      <path
         d="m 206.97325,731.93407 1.64766,-19.08217 -7.28449,2.52508 z"
         style="display:inline;fill:none;stroke:#34a814;stroke-width:1.1449765;stroke-linejoin:bevel;stroke-opacity:1"
         id="path12524"
         inkscape:connector-curvature="0" />
      <path
         d="m 198.68754,731.03233 2.98002,14.39282 5.30569,-13.49108 z"
         style="display:inline;fill:none;stroke:#34a814;stroke-width:1.1449765;stroke-linejoin:bevel;stroke-opacity:1"
         id="path12526"
         inkscape:connector-curvature="0" />
      <path
         d="m 191.52057,746.93216 10.14699,-1.50702 -2.98002,-14.39281 z"
         style="display:inline;fill:none;stroke:#34a814;stroke-width:1.1449765;stroke-linejoin:bevel;stroke-opacity:1"
         id="path12528"
         inkscape:connector-curvature="0" />
      <path
         d="m 191.40305,726.99225 0.11748,19.93992 7.16697,-15.89983 z"
         style="display:inline;fill:none;stroke:#34a814;stroke-width:1.1449765;stroke-linejoin:bevel;stroke-opacity:1"
         id="path12530"
         inkscape:connector-curvature="0" />
      <path
         d="m 208.28983,754.01041 -1.31658,-22.07634 -5.30569,13.49108 z"
         style="display:inline;fill:none;stroke:#34a814;stroke-width:1.1449765;stroke-linejoin:bevel;stroke-opacity:1"
         id="path12534"
         inkscape:connector-curvature="0" />
      <path
         d="m 191.52057,746.93216 16.76926,7.07825 -6.62227,-8.58527 z"
         style="display:inline;fill:none;stroke:#34a814;stroke-width:1.1449765;stroke-linejoin:bevel;stroke-opacity:1"
         id="path12536"
         inkscape:connector-curvature="0" />
      <path
         d="m 196.70086,760.57551 11.58897,-6.5651 -16.76926,-7.07825 z"
         style="display:inline;fill:none;stroke:#34a814;stroke-width:1.1449765;stroke-linejoin:bevel;stroke-opacity:1"
         id="path12538"
         inkscape:connector-curvature="0" />
      <path
         d="m 196.70086,760.57551 12.58225,11.61531 -0.99328,-18.1804 z"
         style="display:inline;fill:none;stroke:#34a814;stroke-width:1.1449765;stroke-linejoin:bevel;stroke-opacity:1"
         id="path12544"
         inkscape:connector-curvature="0" />
      <path
         d="m 191.73419,782.47181 17.54892,-10.28099 -12.58225,-11.61531 z"
         style="display:inline;fill:none;stroke:#34a814;stroke-width:1.1449765;stroke-linejoin:bevel;stroke-opacity:1"
         id="path12546"
         inkscape:connector-curvature="0" />
      <path
         d="m 191.73419,782.47181 17.21786,-0.4333 0.33106,-9.8477 z"
         style="display:inline;fill:none;stroke:#34a814;stroke-width:1.1449765;stroke-linejoin:bevel;stroke-opacity:1"
         id="path12548"
         inkscape:connector-curvature="0" />
      <path
         d="m 199.34978,792.89631 9.60227,-10.8578 -17.21786,0.4333 z"
         style="display:inline;fill:none;stroke:#34a814;stroke-width:1.1449765;stroke-linejoin:bevel;stroke-opacity:1"
         id="path12550"
         inkscape:connector-curvature="0" />
      <path
         d="m 191.52057,746.93216 0.21362,35.53965 4.96667,-21.8963 z"
         style="display:inline;fill:none;stroke:#34a814;stroke-width:1.1449765;stroke-linejoin:bevel;stroke-opacity:1"
         id="path12554"
         inkscape:connector-curvature="0" />
      <path
         d="m 205.30985,811.32921 -5.96007,-18.4329 -1.98671,12.3728 z"
         style="display:inline;fill:none;stroke:#34a814;stroke-width:1.1449765;stroke-linejoin:bevel;stroke-opacity:1"
         id="path12558"
         inkscape:connector-curvature="0" />
      <path
         d="m 191.73419,782.47181 5.62888,22.7973 1.98671,-12.3728 z"
         style="display:inline;fill:none;stroke:#34a814;stroke-width:1.1449765;stroke-linejoin:bevel;stroke-opacity:1"
         id="path12560"
         inkscape:connector-curvature="0" />
      <path
         d="m 205.30985,811.32921 3.6422,-29.2907 -9.60227,10.8578 z"
         style="display:inline;fill:none;stroke:#34a814;stroke-width:1.1449765;stroke-linejoin:bevel;stroke-opacity:1"
         id="path12562"
         inkscape:connector-curvature="0" />
      <path
         d="m 189.41638,817.38941 15.89347,-6.0602 -7.94678,-6.0601 z"
         style="display:inline;fill:none;stroke:#34a814;stroke-width:1.1449765;stroke-linejoin:bevel;stroke-opacity:1"
         id="path12564"
         inkscape:connector-curvature="0" />
      <path
         d="m 191.73419,782.47181 -2.31781,34.9176 7.94669,-12.1203 z"
         style="display:inline;fill:none;stroke:#34a814;stroke-width:1.1449765;stroke-linejoin:bevel;stroke-opacity:1"
         id="path12566"
         inkscape:connector-curvature="0" />
      <path
         d="m 196.36975,832.53971 -6.95337,-15.1503 -1.98668,11.3627 z"
         style="display:inline;fill:none;stroke:#34a814;stroke-width:1.1449765;stroke-linejoin:bevel;stroke-opacity:1"
         id="path12568"
         inkscape:connector-curvature="0" />
      <path
         d="m 196.36975,832.53971 8.9401,-21.2105 -15.89347,6.0602 z"
         style="display:inline;fill:none;stroke:#34a814;stroke-width:1.1449765;stroke-linejoin:bevel;stroke-opacity:1"
         id="path12572"
         inkscape:connector-curvature="0" />
      <path
         d="m 187.4297,828.75211 10.26448,12.3728 -1.32443,-8.5852 z"
         style="display:inline;fill:none;stroke:#34a814;stroke-width:1.1449765;stroke-linejoin:bevel;stroke-opacity:1"
         id="path12574"
         inkscape:connector-curvature="0" />
      <path
         d="m 187.4297,828.75211 2.64889,20.958 7.61559,-8.5852 z"
         style="display:inline;fill:none;stroke:#34a814;stroke-width:1.1449765;stroke-linejoin:bevel;stroke-opacity:1"
         id="path12578"
         inkscape:connector-curvature="0" />
      <path
         d="m 197.69418,841.12491 7.61567,-29.7957 -8.9401,21.2105 z"
         style="display:inline;fill:none;stroke:#34a814;stroke-width:1.1449765;stroke-linejoin:bevel;stroke-opacity:1"
         id="path12584"
         inkscape:connector-curvature="0" />
      <path
         d="m 199.01864,866.88062 -1.32446,-25.75571 -7.61559,8.5852 z"
         style="display:inline;fill:none;stroke:#34a814;stroke-width:1.1449765;stroke-linejoin:bevel;stroke-opacity:1"
         id="path12586"
         inkscape:connector-curvature="0" />
      <path
         d="m 186.10528,860.56791 12.17714,14.7821 0.73622,-8.46939 z"
         style="display:inline;fill:none;stroke:#34a814;stroke-width:1.1449765;stroke-linejoin:bevel;stroke-opacity:1"
         id="path12588"
         inkscape:connector-curvature="0" />
      <path
         d="m 187.4297,828.75211 -1.32442,31.8158 3.97331,-10.8578 z"
         style="display:inline;fill:none;stroke:#34a814;stroke-width:1.1449765;stroke-linejoin:bevel;stroke-opacity:1"
         id="path12592"
         inkscape:connector-curvature="0" />
      <path
         d="m 192.72751,898.69632 -4.30445,-17.42291 -3.97334,9.0902 z"
         style="display:inline;fill:none;stroke:#34a814;stroke-width:1.1449765;stroke-linejoin:bevel;stroke-opacity:1"
         id="path12594"
         inkscape:connector-curvature="0" />
      <path
         d="m 192.72751,898.69632 5.28881,-22.8053 -9.59326,5.38239 z"
         style="display:inline;fill:none;stroke:#34a814;stroke-width:1.1449765;stroke-linejoin:bevel;stroke-opacity:1"
         id="path12596"
         inkscape:connector-curvature="0" />
      <path
         d="m 186.10528,860.56791 -1.65556,29.7957 3.97334,-9.0902 z"
         style="display:inline;fill:none;stroke:#34a814;stroke-width:1.1449765;stroke-linejoin:bevel;stroke-opacity:1"
         id="path12598"
         inkscape:connector-curvature="0" />
      <path
         d="m 192.72751,898.69632 -8.27779,19.1905 9.60221,-7.5752 z"
         style="display:inline;fill:none;stroke:#34a814;stroke-width:1.1449765;stroke-linejoin:bevel;stroke-opacity:1"
         id="path12600"
         inkscape:connector-curvature="0" />
      <path
         d="m 184.44972,890.36361 0,27.5232 8.27779,-19.1905 z"
         style="display:inline;fill:none;stroke:#34a814;stroke-width:1.1449765;stroke-linejoin:bevel;stroke-opacity:1"
         id="path12604"
         inkscape:connector-curvature="0" />
      <path
         d="m 194.05193,910.31161 4.14753,-34.3209 -5.47195,22.7056 z"
         style="display:inline;fill:none;stroke:#34a814;stroke-width:1.1449765;stroke-linejoin:bevel;stroke-opacity:1"
         id="path12610"
         inkscape:connector-curvature="0" />
      <path
         d="m 176.83412,939.60231 17.21781,-29.2907 -9.60221,7.5752 z"
         style="display:inline;fill:none;stroke:#34a814;stroke-width:1.1449765;stroke-linejoin:bevel;stroke-opacity:1"
         id="path12612"
         inkscape:connector-curvature="0" />
      <path
         style="display:inline;fill:none;stroke:#34a814;stroke-width:1.1449765;stroke-linejoin:bevel;stroke-opacity:1"
         d="m 182.0574,938.54801 11.99453,-28.2364 -17.21781,29.2907 z"
         id="path14134"
         inkscape:connector-curvature="0" />
      <path
         style="display:inline;fill:none;stroke:#34a814;stroke-width:1.1449765;stroke-linejoin:bevel;stroke-opacity:1"
         d="m 176.83412,939.60231 -6.77126,27.18231 11.99454,-28.2366 z"
         id="path12634"
         inkscape:connector-curvature="0" />
      <path
         d="m 189.74748,706.28676 1.77309,40.6454 -0.11748,-19.93991 z"
         style="display:inline;fill:none;stroke:#34a814;stroke-width:1.1449765;stroke-linejoin:bevel;stroke-opacity:1"
         id="path12646"
         inkscape:connector-curvature="0" />
      <path
         d="m 257.62558,593.16405 -0.0798,-40.13578 -0.25128,22.96539 z"
         style="display:inline;fill:none;stroke:#34a814;stroke-width:1.1449765;stroke-linejoin:bevel;stroke-opacity:1"
         id="path12670"
         inkscape:connector-curvature="0" />
    </g>
  </g>
  <path
     inkscape:connector-curvature="0"
     style="display:inline;opacity:1;fill:none;stroke:#34a814;stroke-width:1.08635664;stroke-opacity:1"
     d="m 273.35281,231.79213 c -3.93403,-2.8043 -3.77856,-2.87184 -8.49584,-3.47914 -3.59922,-0.46318 -4.45889,-0.83125 -6.32292,-0.14084 -1.86402,0.69044 -3.25483,1.50782 -4.59895,2.61016 -1.94247,1.59306 -4.951,3.09482 -6.6856,3.33725 -2.06958,0.2892 -5.70329,2.3386 -10.56986,5.96134 -4.33535,3.22732 -8.85777,5.85622 -10.88669,6.32848 -3.54737,0.82571 -21.256,-1.71982 -22.51442,-3.23632 -0.38333,-0.46111 -3.36127,-1.30137 -6.61858,-1.86656 -4.75367,-0.82478 -6.35386,-0.63782 -8.10862,0.94735 -1.20244,1.08622 -3.0919,2.77387 -4.1988,3.75038 -1.10691,0.97646 -4.42334,2.28001 -7.36981,2.89673 -3.5682,0.74684 -6.09118,1.91537 -7.55511,3.49918 -3.70633,4.00984 -9.97585,3.96975 -15.84204,-0.10133 -4.14779,-2.87849 -3.83965,-3.70909 0.49417,-1.33208 5.23421,2.87081 10.24683,2.28179 13.57002,-1.59457 2.28995,-2.67113 3.30123,-3.12523 7.16432,-3.21697 5.26163,-0.125 9.2939,-1.83909 9.53577,-4.05363 0.26069,-2.38703 7.06905,-5.1869 11.17055,-4.5938 1.92367,0.27822 4.87584,1.20758 6.56031,2.06538 1.68448,0.85775 7.18713,2.37158 12.22814,3.36397 l 9.16548,1.80437 6.07417,-3.53035 c 3.34078,-1.9417 7.05863,-4.70543 8.26185,-6.14163 1.48666,-1.77453 3.244,-2.75888 5.48404,-3.07198 1.81299,-0.25337 5.05914,-1.58015 7.21368,-2.94846 2.64438,-1.67938 6.27112,-3.29198 9.94614,-4.52453 3.67502,-1.23255 7.54801,0.47118 10.19558,1.50423 4.75574,1.85563 7.71146,4.99518 6.03172,6.37276 z"
     id="path4756"
     sodipodi:nodetypes="cssscssccscssssscsscscsscssscc" />
</svg>
