<?xml version="1.0" encoding="UTF-8" standalone="no"?>
<!-- Created with Inkscape (http://www.inkscape.org/) -->

<svg
   xmlns:dc="http://purl.org/dc/elements/1.1/"
   xmlns:cc="http://creativecommons.org/ns#"
   xmlns:rdf="http://www.w3.org/1999/02/22-rdf-syntax-ns#"
   xmlns:svg="http://www.w3.org/2000/svg"
   xmlns="http://www.w3.org/2000/svg"
   xmlns:sodipodi="http://sodipodi.sourceforge.net/DTD/sodipodi-0.dtd"
   xmlns:inkscape="http://www.inkscape.org/namespaces/inkscape"
   width="27.220062mm"
   height="26.262217mm"
   viewBox="0 0 96.449039 93.055098"
   id="svg4909"
   version="1.1"
   inkscape:version="0.91 r13725"
   sodipodi:docname="rootIntro2.svg">
  <defs
     id="defs4911" />
  <sodipodi:namedview
     id="base"
     pagecolor="#ffffff"
     bordercolor="#666666"
     borderopacity="1.0"
     inkscape:pageopacity="0.0"
     inkscape:pageshadow="2"
     inkscape:zoom="0.35"
     inkscape:cx="503.22452"
     inkscape:cy="169.38469"
     inkscape:document-units="px"
     inkscape:current-layer="layer1"
     showgrid="false"
     fit-margin-top="0"
     fit-margin-left="0"
     fit-margin-right="0"
     fit-margin-bottom="0"
     inkscape:window-width="1366"
     inkscape:window-height="705"
     inkscape:window-x="-8"
     inkscape:window-y="-8"
     inkscape:window-maximized="1" />
  <metadata
     id="metadata4914">
    <rdf:RDF>
      <cc:Work
         rdf:about="">
        <dc:format>image/svg+xml</dc:format>
        <dc:type
           rdf:resource="http://purl.org/dc/dcmitype/StillImage" />
        <dc:title></dc:title>
      </cc:Work>
    </rdf:RDF>
  </metadata>
  <g
     inkscape:label="Layer 1"
     inkscape:groupmode="layer"
     id="layer1"
     transform="translate(585.36738,-608.6918)">
    <path
       sodipodi:nodetypes="csssssaaaascccccsssssaasccscsccc"
       style="display:inline;opacity:1;fill:none;stroke:#34a814;stroke-width:1.30678797;stroke-opacity:1"
       d="m -582.79444,698.91114 c 2.51661,1.70142 4.07397,2.36234 8.85719,2.1457 9.59519,-0.43452 19.98352,-6.84267 18.44664,-11.37896 -0.72774,-2.14807 3.52146,-5.6507 6.51263,-5.36837 3.6823,0.34756 10.13155,-3.83014 11.20576,-7.2589 0.48251,-1.54007 2.84261,-3.47449 5.85732,-4.80086 2.77705,-1.22181 4.47119,-2.21335 6.41126,-3.752 1.84912,-1.46654 3.75969,-3.05516 4.87384,-5.13571 1.21326,-2.2656 1.2996,-4.98076 1.71307,-7.51727 0.37031,-2.27174 0.57063,-4.57235 0.68327,-6.87132 0.0783,-1.59694 -0.31623,-3.80563 -0.006,-4.79661 0.88491,-2.8245 9.19629,-11.90433 12.30356,-13.44108 3.05311,-1.51002 8.92602,-8.00631 9.82128,-10.86382 0.3072,-0.98048 1.54793,-2.09874 2.7572,-2.48505 2.46704,-0.78801 5.03688,-7.36207 3.11348,-7.96468 -0.6814,-0.21348 -1.61495,0.12266 -2.07459,0.74696 -0.45963,0.62428 -2.60714,3.59737 -4.77221,6.60685 -6.12527,8.51403 -8.06566,10.36644 -11.6272,11.1 -2.14406,0.44207 -3.61757,1.66671 -4.18573,3.48018 -0.48223,1.53923 -2.22958,3.5741 -3.88301,4.5219 -1.65339,0.94778 -3.85758,3.09369 -4.89815,4.76861 -1.64713,2.65127 -0.79033,6.41866 -1.17078,9.62974 -0.37568,3.17093 -0.0444,6.50192 -1.09795,9.51618 -0.75861,2.17039 -3.51523,5.42201 -3.65007,5.85252 -0.13484,0.4305 -2.95962,1.93032 -6.27721,3.33295 -3.31769,1.40245 -6.31504,3.39133 -6.66099,4.41931 -1.20719,3.58756 -6.48062,7.36426 -11.087,7.94035 -5.02582,0.62853 -6.57966,2.15303 -8.57947,8.41737 -1.47714,4.62756 -7.37282,8.07122 -14.21476,8.30308 -3.33518,0.11303 -4.76915,-1.76419 -7.16322,-2.62003 -2.81992,-1.00803 -4.76709,1.06702 -1.20834,3.473 z"
       id="path4799"
       inkscape:connector-curvature="0" />
  </g>
</svg>
