<?xml version="1.0" encoding="UTF-8" standalone="no"?>
<svg
   xmlns:dc="http://purl.org/dc/elements/1.1/"
   xmlns:cc="http://creativecommons.org/ns#"
   xmlns:rdf="http://www.w3.org/1999/02/22-rdf-syntax-ns#"
   xmlns:svg="http://www.w3.org/2000/svg"
   xmlns="http://www.w3.org/2000/svg"
   xmlns:sodipodi="http://sodipodi.sourceforge.net/DTD/sodipodi-0.dtd"
   xmlns:inkscape="http://www.inkscape.org/namespaces/inkscape"
   version="1.1"
   id="svg6073"
   viewBox="0 0 148.52761 942.715"
   height="1130"
   width="600"
   inkscape:version="0.91 r13725"
   sodipodi:docname="rootsNotWireframe_main.svg"
   inkscape:export-filename="C:\Users\Corypheus\Dropbox\Web Design\Andrew Web\img\rootsCentered.png"
   inkscape:export-xdpi="90"
   inkscape:export-ydpi="90">
  <sodipodi:namedview
     pagecolor="#ffffff"
     bordercolor="#666666"
     borderopacity="1"
     objecttolerance="10"
     gridtolerance="10"
     guidetolerance="10"
     inkscape:pageopacity="0"
     inkscape:pageshadow="2"
     inkscape:window-width="1366"
     inkscape:window-height="705"
     id="namedview197"
     showgrid="false"
     fit-margin-top="0"
     fit-margin-left="0"
     fit-margin-right="0"
     fit-margin-bottom="0"
     inkscape:zoom="4.0447825"
     inkscape:cx="289.56872"
     inkscape:cy="39.656116"
     inkscape:window-x="-8"
     inkscape:window-y="-8"
     inkscape:window-maximized="1"
     inkscape:current-layer="layer1"
     showguides="true"
     inkscape:guide-bbox="true">
    <inkscape:grid
       type="xygrid"
       id="grid4325"
       originx="-314.65208"
       originy="60.426726" />
    <sodipodi:guide
       position="74.263805,942.715"
       orientation="1,0"
       id="guide4338"
       inkscape:label="center"
       inkscape:color="rgb(0,0,255)" />
  </sodipodi:namedview>
  <defs
     id="defs6075" />
  <metadata
     id="metadata6078">
    <rdf:RDF>
      <cc:Work
         rdf:about="">
        <dc:format>image/svg+xml</dc:format>
        <dc:type
           rdf:resource="http://purl.org/dc/dcmitype/StillImage" />
        <dc:title />
        <cc:license
           rdf:resource="http://creativecommons.org/licenses/by-nc/3.0/" />
      </cc:Work>
      <cc:License
         rdf:about="http://creativecommons.org/licenses/by-nc/3.0/">
        <cc:permits
           rdf:resource="http://creativecommons.org/ns#Reproduction" />
        <cc:permits
           rdf:resource="http://creativecommons.org/ns#Distribution" />
        <cc:requires
           rdf:resource="http://creativecommons.org/ns#Notice" />
        <cc:requires
           rdf:resource="http://creativecommons.org/ns#Attribution" />
        <cc:prohibits
           rdf:resource="http://creativecommons.org/ns#CommercialUse" />
        <cc:permits
           rdf:resource="http://creativecommons.org/ns#DerivativeWorks" />
      </cc:License>
    </rdf:RDF>
  </metadata>
  <g
     inkscape:groupmode="layer"
     id="layer1"
     inkscape:label="roots"
     style="display:inline">
    <path
       style="display:inline;opacity:1;fill:none;stroke:#34a814;stroke-width:1.08635676;stroke-opacity:1"
       d="m 120.16148,475.3016 c -0.79326,0.39598 -1.26776,1.76061 -1.58921,4.17663 -0.6454,4.85079 -6.79165,18.40024 -12.85334,28.33521 -2.5894,4.24398 -4.70801,8.23923 -4.70801,8.87835 0,0.6391 -0.92471,2.62365 -2.054917,4.41009 -1.13021,1.78646 -3.69837,6.81115 -5.70701,11.16596 -2.00866,4.35481 -4.75749,9.67914 -6.10855,11.83176 -2.36567,3.76927 -5.66634,16.98164 -7.94295,31.79498 -1.30896,8.51714 -1.40391,43.7906 -0.15299,56.82941 0.86835,9.0509 -0.7257,36.6062 -2.61018,45.1204 -0.26979,1.219 -0.58328,6.4051 -0.69664,11.5247 -0.17186,7.7615 -0.72401,10.5608 -3.32241,16.8439 -3.45546,8.3556 -3.86249,14.115 -2.29438,32.4648 0.60937,7.1306 0.48891,10.6875 -0.43537,12.8545 -0.70284,1.6479 -1.70252,8.9801 -2.22153,16.2939 -1.41073,19.8794 -3.48549,32.3783 -6.91642,41.6664 -1.91856,5.1939 -9.99317,20.9827 -16.00845,31.3025 -2.32196,3.9835 -4.22174,7.5024 -4.22174,7.8197 0,0.3173 -0.88151,2.2164 -1.95892,4.2202 -1.07742,2.0037 -2.54693,5.2389 -3.26559,7.1892 -2.68405,7.2841 -9.00837,18.8599 -14.36165,26.2871 -3.04063,4.2187 -5.52841,7.9256 -5.52841,8.2375 0,0.312 -0.82408,1.322 -1.83126,2.2446 -5.1571385,8.78995 -11.8537699,16.90314 -19.77007,23.3212 -1.06896,0.869 -2.45407,2.8636 -3.07801,4.4326 -0.76213,1.9164 -3.860024,3.4939 -5.461424,3.6929"
       id="taprootOutsideRight2"
       inkscape:label="#path4183" />
    <path
       style="display:inline;opacity:1;fill:none;stroke:#34a814;stroke-width:1.08635676;stroke-opacity:1"
       d="m 124.35076,228.70034 c -0.22557,0.19106 -0.63593,1.49342 -0.91193,2.89413 -0.70167,3.56079 -3.82011,11.45643 -12.03518,30.47207 -14.451597,33.45148 -17.095467,46.82094 -14.200397,71.80811 1.93776,16.72478 5.687847,29.90733 11.076117,38.93565 5.39079,9.03249 11.61994,28.42505 14.83052,46.17025 1.71341,9.47013 2.02454,14.09586 1.49071,22.16301 -0.37104,5.60725 -0.81862,12.38911 -0.99457,15.07084 -0.48756,7.43026 -0.98948,8.60297 -2.21844,12.91562 -0.22134,0.77672 -0.11001,1.72217 0.32821,2.40058"
       id="taprootOutsideRight1"
       inkscape:label="#path4181" />
    <path
       style="display:inline;opacity:1;fill:none;stroke:#34a814;stroke-width:1.08635676;stroke-opacity:1"
       d="m 84.706433,0.543176 c 0.309945,0 0.655235,0.24451375 1.048724,0.761397 0.393489,0.5168833 0.835177,1.3061361 1.337917,2.3956143 1.005482,2.1789562 2.255174,5.5588137 3.851909,10.3624187 5.645676,16.984408 6.71899,21.019699 7.4867,28.146999 3.059187,28.40145 3.327707,34.1607 2.460157,52.76602 -0.5958,12.777725 -1.433667,20.790655 -2.450877,23.439415 -1.90023,4.94811 -3.69019,14.2762 -3.70079,19.28609 -0.015,7.07522 5.876347,18.42339 16.239147,31.28082 13.25474,16.44551 15.53929,21.89303 15.61481,37.23383 0.03,6.09483 -0.32927,11.73615 -0.79843,12.53626 -0.30212,0.51525 -0.28182,1.10431 0.0976,1.83821"
       id="taprootOutsideRight0"
       inkscape:label="" />
    <path
       style="display:inline;opacity:1;fill:none;stroke:#34a814;stroke-width:1.08635676;stroke-opacity:1"
       d="m 51.305007,0.543656 c -2.29075,0 -2.00404,1.62667 2.47606,14.04841 2.22514,6.16958 4.6403,13.41154 5.36702,16.09326 0.72671,2.681719 1.65572,5.274809 2.06444,5.762379 0.72213,0.86144 1.95155,6.27045 4.53371,19.9467 1.88928,10.00635 0.46445,42.39246 -2.28163,51.861395 -5.23577,18.05379 -5.49211,19.60222 -5.65034,34.13102 -0.16751,15.37802 0.87809,20.34675 5.68768,27.02816 1.05719,1.46864 1.92408,2.93688 1.92608,3.26277"
       id="taprootOutsideLeft0"
       inkscape:label="#path4161" />
    <path
       style="display:inline;opacity:1;fill:none;stroke:#34a814;stroke-width:1.08635676;stroke-opacity:1"
       d="m 69.853206,178.35473 c 1.707409,0.20924 3.453637,3.203 3.453637,3.203 1.51475,2.10367 6.35375,6.66238 10.75336,10.13049 0,0 3.989527,2.02296 7.299683,6.07247"
       id="taprootOutsideLeft1"
       inkscape:label="#path4159" />
    <path
       style="display:inline;opacity:1;fill:none;stroke:#34a814;stroke-width:1.08635676;stroke-opacity:1"
       d="m 93.064605,205.9118 c 0.726454,-0.25382 0.999748,0.82996 1.168691,1.28091 0.938179,2.50419 -2.248549,17.65946 -4.766439,22.97427 -8.08062,17.05689 -15.571526,37.96969 -17.90353,49.98224 -0.674765,3.47583 -1.026865,5.23648 -2.074463,6.85467"
       id="taprootOutsideLeft2"
       inkscape:label="#path4157" />
    <path
       style="display:inline;opacity:1;fill:none;stroke:#34a814;stroke-width:1.08635676;stroke-opacity:1"
       d="m 64.329597,298.82831 c 0.53175,0.27842 0.46235,1.90527 -0.16225,3.80395 -1.55223,4.71842 -0.29031,23.24482 2.12807,31.24286 2.17504,7.19323 9.39051,25.64792 18.02394,46.09904 2.98461,7.07 6.714467,16.84386 8.28862,21.71974 1.00816,3.12274 1.959213,4.79507 2.208965,7.3369 0.09212,0.93761 0.06197,1.88525 -0.04426,2.82796"
       id="taprootOutsideLeft3"
       inkscape:label="#path4155" />
    <path
       style="display:inline;opacity:1;fill:none;stroke:#34a814;stroke-width:1.08635676;stroke-opacity:1"
       d="m 95.947117,418.7369 c 1.261744,0.54278 0.864005,5.8612 1.213854,8.25609 0.135392,3.20039 0.174572,7.51089 0.169372,13.08651 -0.01629,17.47205 -0.27492,20.25479 -2.81818,30.31921 -2.58956,10.24761 -8.2355,25.05589 -14.85168,38.95334 -1.49481,3.13987 -2.71783,6.01947 -2.71783,6.39914 0,0.37965 -2.04275,5.19094 -4.53947,10.69175 -4.00552,8.82513 -6.307458,15.99163 -10.33125,32.1645 -0.37313,1.49973 -0.771377,2.80712 -1.247833,4.00407"
       id="taprootOutsideLeft4"
       inkscape:label="#path4153" />
    <path
       style="display:inline;opacity:1;fill:none;stroke:#34a814;stroke-width:1.08635676;stroke-opacity:1"
       d="m 57.894363,572.35019 c 0.40456,9.3e-4 0.75093,8.07935 0.76953,17.95203 0.01867,9.87269 0.67136,24.20167 1.4504,31.84216 1.26108,12.36781 1.109596,41.16171 -0.34662,65.89501 -0.323925,5.50175 -1.438228,10.00368 -3.439947,13.68423 -0.50043,0.92013 -1.056324,1.78893 -1.669198,2.60919"
       id="taprootOutsideLeft5"
       inkscape:label="#path4151" />
    <path
       style="display:inline;opacity:1;fill:none;stroke:#34a814;stroke-width:1.08635676;stroke-opacity:1"
       d="m 53.271363,710.64889 c 0.51105,-0.002 0.59632,2.7799 0.19181,6.2577 -0.52223,4.4898 -0.22299,8.418 1.05788,13.8864 1.54989,6.617 1.61889,8.7495 0.5216,16.1237 -2.04945,13.7731 -2.07108,14.5143 -0.51581,17.6677 1.89303,3.8381 1.86685,7.4371 -0.0939,12.9127 -0.9296,2.5961 -1.55833,7.8953 -1.55833,13.1345 0,4.8304 -0.48068,9.5435 -1.06819,10.4735 -0.58749,0.93 -1.52497,3.796 -2.08328,6.369 -0.55828,2.5729 -4.27546,10.2631 -8.26036,17.0893 -8.83385,15.13249 -12.54944,22.51839 -16.27814,32.35799 -1.57056,4.1445 -4.05303,9.3306 -5.51661,11.52481 -9.3542,14.02329 -16.29337,25.80039 -19.63965999,33.33209 -1.44830001,3.2597 -5.50737001,10.4916 -9.02012001,16.0704 l 5e-5,1e-5 c -5.869154,9.3216 -3.317643,5.30053 -5.946254,10.3914"
       id="taprootOutsideLeft6"
       inkscape:label="#path4179" />
    <path
       style="display:inline;opacity:1;fill:none;stroke:#34a814;stroke-width:1.0862079;stroke-opacity:1;stroke-miterlimit:4;stroke-dasharray:none"
       d="m 51.305007,0.543656 c 0.8633,0 1.56965,0.1409 1.56965,0.31311 0,0.17223 1.17724,3.06277 2.6161,6.42343 1.43885,3.36067 2.61609,6.8284 2.61609,7.70607 0,0.87767 1.1958,4.86874 2.65733,8.86905 2.89453,7.92251 3.99243,11.369979 5.56312,17.468249 0.56514,2.19413 1.65439,6.38294 2.42058,9.30847 2.66776,10.18644 1.23681,46.69423 -2.31075,58.953555 -6.2615,21.63796 -7.44542,40.05071 -3.21667,50.02656 1.2257,2.89152 2.88246,5.88354 3.68164,6.64889 0.79922,0.76539 1.6365,2.18946 1.86067,3.16463 0.25915,1.12732 1.480023,0.54065 2.332412,1.38775 1.07948,1.07277 0.822379,1.39607 1.286897,2.23665 1.513884,2.73951 4.799081,8.83641 12.685901,15.20714 4.42284,4.61873 9.056298,5.54593 12.668535,9.88395 1.639056,2.62776 -0.564255,3.26641 -0.106545,11.42614 0.51332,9.15149 -0.59563,13.23341 -7.75998,28.56367 -12.96368,27.73961 -12.313364,38.36118 -14.818367,47.39173 -1.521913,5.4865 -1.90068,5.94356 -4.600008,9.58878 -4.509968,6.09034 -3.098565,4.12623 -3.047915,19.06936 0.043,12.69275 0.64232,17.0168 2.87707,20.7584 0.7864,1.31666 1.42981,3.217 1.42981,4.22301 0,1.00599 0.46707,2.52179 1.03796,3.36847 0.57086,0.84666 1.96644,4.53139 3.10128,8.18828 2.09281,6.74388 9.18433,24.11086 14.09598,34.52074 1.48148,3.13986 2.69359,6.17878 2.69359,6.75312 0,0.57437 1.412698,4.67598 3.13932,9.1147 1.81525,4.66657 2.289304,5.58345 2.942991,8.5143 0.599325,2.68711 0.527378,5.48182 0.874629,8.21297 0.164692,1.29531 0.467093,2.57363 0.573133,3.87506 0.51415,6.31001 0.30778,9.09743 0.29943,18.9904 -0.0177,20.93012 -0.17133,22.68082 -2.762813,31.47146 -1.50925,5.11965 -3.22176,10.50527 -3.80554,11.96803 -0.5838,1.46276 -2.31849,6.0505 -3.85488,10.19498 -2.52333,6.80681 -16.40963,39.30511 -20.08032,46.99428 -0.81697,1.71134 -1.92702,6.29908 -2.46676,10.19496 -0.53976,3.8959 -1.68891,9.67652 -2.55367,12.84583 -2.20535,8.08252 -3.98167,29.22532 -3.16546,37.67709 0.3767,3.9007 1.34364,12.27829 2.14879,18.61693 1.13696,8.95114 1.24296,15.28624 0.47467,28.36864 -0.54405,9.2641 -1.2659,24.8225 -1.60409,34.5743 -0.53033,15.2911 -0.92604,18.4012 -2.87648,22.6062 -1.89676,4.0894 -2.23762,6.5204 -2.11315,15.0709 0.0815,5.6072 0.62658,11.2595 1.21104,12.5605 0.72152,1.6062 0.71293,5.1634 -0.0268,11.0815 -0.59917,4.7938 -0.79383,13.1373 -0.43261,18.5412 0.49702,7.4354 0.26715,11.0927 -0.94509,15.0355 -0.88102,2.8656 -1.60187,8.8032 -1.60187,13.1946 0,4.6735 -0.62143,9.4671 -1.49863,11.5601 -0.82425,1.9667 -2.26521,5.9693 -3.20213,8.8949 -0.93692,2.9255 -2.61701,6.7944 -3.73358,8.5975 -1.243885,2.0088 -1.921235,3.46835 -2.014392,4.23361"
       id="taprootInsideLeft0"
       inkscape:label="#path4237" />
    <path
       style="display:inline;opacity:1;fill:none;stroke:#34a814;stroke-width:1.08635676;stroke-opacity:1"
       d="m 84.706397,0.543186 c -1.99275,0 -2.54008,3.5973 -0.87489,5.7503 0.84173,1.0882 1.23144,2.63824 0.86623,3.44453 -0.36523,0.80629 -0.09994,2.04183 0.58956,2.74564 0.68949,0.70381 0.93046,1.7226 0.5355,2.26399 -0.39494,0.5414 0.0096,1.45647 0.89908,2.0335 0.88945,0.57706 1.92945,2.14625 2.3111,3.4871 0.59686,2.09683 0.37305,2.43794 -1.59957,2.43794 -1.37509,0 -2.1149,0.44373 -1.84745,1.10814 0.24534,0.60948 1.43576,0.9871 2.64538,0.83912 1.79231,-0.21927 2.33238,0.33188 2.91839,2.97827 0.51583,2.32932 0.31033,3.46662 -0.72691,4.02317 -1.16011,0.622469 -1.09882,0.778529 0.30996,0.789429 1.36183,0.01053 1.90202,1.15776 2.40655,5.11107 0.35783,2.80362 1.09067,7.69057 1.62857,10.85986 1.67515,9.87004 2.32294,28.12489 1.02221,28.80591 -0.83763,0.4386 -0.81223,0.96155 0.0916,1.88416 1.49645,1.52757 0.59038,27.630895 -1.18108,34.025895 -2.60306,9.3971 -4.36704,26.02974 -3.25713,30.71177 1.04479,4.40732 7.20729,16.41342 8.723713,16.99593 0.3993,0.15338 1.26109,1.65244 1.91511,3.33124 0.654,1.67881 2.09316,3.46228 3.19816,3.96328 1.105,0.501 2.00907,1.49526 2.00907,2.20949 0,0.71423 0.95897,2.11101 2.13107,3.10396 1.17209,0.99297 1.82739,2.22166 1.45623,2.73041 -0.37117,0.50878 0.32431,1.51792 1.54549,2.24256 3.06897,1.82108 6.56858,7.93736 6.17831,10.79779 -0.17791,1.30382 0.23685,2.76951 0.92169,3.2571 1.39327,0.992 3.46384,12.42381 3.46384,19.12431 0,4.59407 -1.55968,5.71937 -4.19647,3.02775 -0.999,-1.01976 -1.65593,-1.09989 -2.74424,-0.33472 -1.78962,1.25831 -1.80403,2.11623 -0.0605,3.60678 0.75368,0.64431 2.15007,2.50161 3.10309,4.1273 1.86294,3.17789 1.27762,6.45257 -2.87858,16.10435 -0.94483,2.19413 -3.09282,8.11729 -4.77333,13.16255 -1.68051,5.04527 -3.94993,10.43088 -5.04317,11.96802 -3.08463,4.33712 -10.931543,27.7029 -12.698493,37.81235 -1.44566,8.2703 -1.42752,31.19338 0.0319,40.47545 1.11684,7.10318 8.125873,27.1508 11.035753,31.56506 1.87805,2.84896 7.98703,18.52154 10.96719,28.13623 5.17417,16.69311 6.41557,50.27617 2.425,65.60247 l -0.57706,2.21631 -2.0046,-2.09288 c -1.10252,-1.15109 -2.0046,-3.24551 -2.0046,-4.65423 0,-1.40875 -0.4709,-2.56135 -1.04644,-2.56135 -1.85529,0 -1.10526,5.66977 1.16794,8.82881 2.01697,2.80296 2.10008,3.48847 0.96712,7.97868 -1.59247,6.31148 -7.58984,20.85506 -10.86748,26.35364 -1.39916,2.34722 -3.804003,6.66128 -5.344073,9.5868 -1.54006,2.92552 -3.47641,6.44851 -4.30301,7.8289 -0.82657,1.38037 -1.50286,2.9975 -1.50286,3.59364 0,0.59613 -1.13695,3.05714 -2.52655,5.4689 -14.16372,24.58245 -15.84812,36.419 -15.44739,108.55114 0.08533,15.359 -0.29523,30.5184 -0.84568,33.6877 -0.55043,3.1694 -1.48697,10.8772 -2.0812,17.1285 -0.59421,6.2514 -1.5279,12.0746 -2.07486,12.9404 -3.67973,5.8251 -5.41677,22.7792 -3.74563,36.5611 0.62532,5.157 0.38718,8.6518 -0.99025,14.5325 -1.15874,4.9471 -1.62097,9.8576 -1.28015,13.6001 0.29339,3.2216 -0.09614,8.8495 -0.86559,12.5064 -0.76945,3.6569 -2.1994,10.6382 -3.17766,15.5141 -0.97827,4.8758 -2.46941,11.001 -3.31365,13.6115 -1.87444,5.7961 -7.18002,15.5732 -9.23477,17.0179 -1.092885,0.76834 -1.583922,0.69737 -1.490762,-0.0679"
       id="taprootInsideRight0"
       inkscape:label="#path4567"
       inkscape:connector-curvature="0"
       sodipodi:nodetypes="cccscccssscsssscsssscssccscssscssssscsssscssssssssssscscsssssscc" />
    <path
       style="display:inline;opacity:1;fill:none;stroke:#34a814;stroke-width:1.08635676;stroke-opacity:1"
       d="m 35.751997,844.4364 c -0.240602,0.0789 -0.583826,0.44627 -0.990744,1.04493 -0.813835,1.19733 -1.88244,3.3197 -2.89437,5.90895 -3.054334,7.8152 -15.00961,28.2789 -20.84077,35.6728 -1.72359,2.18551 -6.28772,10.02801 -6.28772,10.80421 0,0.44713 0.115895,0.68981 0.342517,0.73219"
       id="taprootInsideLeft2"
       inkscape:label="#path4147" />
    <path
       style="display:inline;opacity:1;fill:none;stroke:#34a814;stroke-width:1.08635676;stroke-opacity:1"
       d="m 5.08091,898.59948 c 0.2266221,0.0424 0.5639711,-0.11555 1.0068792,-0.46965 0.8858163,-0.70822 2.1938688,-2.20115 3.8828138,-4.44575 6.418189,-8.52976 8.29302,-11.3451 12.08376,-18.1458 2.03837,-3.65689 4.40617,-7.7288 5.26177,-9.0488 1.54071,-2.3768 8.802,-19.9858 8.81087,-21.3668 0.0036,-0.55548 -0.134404,-0.76514 -0.375006,-0.68628"
       id="taprootInsideRight2"
       inkscape:label="#path4583" />
    <path
       style="display:inline;opacity:1;fill:none;stroke:#34a814;stroke-width:1.08635676;stroke-opacity:1"
       d="m 41.271544,835.01645 c -0.125316,-0.1628 -0.523166,0.26333 -1.297031,1.14393 -0.891888,1.0149 -1.944422,3.0096 -2.33895,4.4326 -0.32563,1.1745 -0.46636,1.79042 -0.335458,1.96047"
       id="taprootInsideLeft1"
       inkscape:label="#path4143" />
    <path
       style="display:inline;opacity:1;fill:none;stroke:#34a814;stroke-width:1.08635676;stroke-opacity:1"
       d="m 37.300105,842.55345 c 0.130903,0.17005 0.533438,-0.10577 1.294338,-0.71477 0.92191,-0.7379 1.974441,-2.7326 2.33893,-4.4326 0.31627,-1.4751 0.463488,-2.22683 0.338171,-2.38963"
       id="taprootInsideRight1"
       inkscape:label="#path4581" />
  </g>
</svg>
