<?xml version="1.0" encoding="UTF-8" standalone="no"?>
<!-- Created with Inkscape (http://www.inkscape.org/) -->

<svg
   xmlns:dc="http://purl.org/dc/elements/1.1/"
   xmlns:cc="http://creativecommons.org/ns#"
   xmlns:rdf="http://www.w3.org/1999/02/22-rdf-syntax-ns#"
   xmlns:svg="http://www.w3.org/2000/svg"
   xmlns="http://www.w3.org/2000/svg"
   xmlns:sodipodi="http://sodipodi.sourceforge.net/DTD/sodipodi-0.dtd"
   xmlns:inkscape="http://www.inkscape.org/namespaces/inkscape"
   width="153.48285"
   height="38.946579"
   viewBox="0 0 153.48284 38.94658"
   id="svg4346"
   version="1.1"
   inkscape:version="0.91 r13725"
   sodipodi:docname="rootIntro1.svg">
  <defs
     id="defs4348" />
  <sodipodi:namedview
     id="base"
     pagecolor="#ffffff"
     bordercolor="#666666"
     borderopacity="1.0"
     inkscape:pageopacity="0.0"
     inkscape:pageshadow="2"
     inkscape:zoom="5.8052089"
     inkscape:cx="76.741425"
     inkscape:cy="19.473289"
     inkscape:document-units="px"
     inkscape:current-layer="layer1"
     showgrid="false"
     fit-margin-top="0"
     fit-margin-left="0"
     fit-margin-right="0"
     fit-margin-bottom="0"
     inkscape:window-width="1366"
     inkscape:window-height="705"
     inkscape:window-x="-8"
     inkscape:window-y="-8"
     inkscape:window-maximized="1"
     units="px" />
  <metadata
     id="metadata4351">
    <rdf:RDF>
      <cc:Work
         rdf:about="">
        <dc:format>image/svg+xml</dc:format>
        <dc:type
           rdf:resource="http://purl.org/dc/dcmitype/StillImage" />
        <dc:title />
      </cc:Work>
    </rdf:RDF>
  </metadata>
  <g
     inkscape:label="Layer 1"
     inkscape:groupmode="layer"
     id="layer1"
     transform="translate(-623.25858,-661.46034)">
    <path
       style="display:inline;opacity:1;fill:none;stroke:#34a814;stroke-width:1.30678785;stroke-opacity:1"
       d="m 623.92284,692.87519 c 0.12064,-0.32519 1.5166,0.13986 4.1232,1.56952 6.29626,3.45336 12.32601,2.74479 16.3235,-1.91812 2.7546,-3.21313 3.97108,-3.75937 8.61802,-3.86972 6.32927,-0.15036 11.17973,-2.21226 11.47067,-4.87615 0.31358,-2.87138 8.50343,-6.23937 13.43715,-5.52592 2.31401,0.33467 5.86519,1.4526 7.89145,2.48446 2.02628,1.0318 8.64547,2.8528 14.70934,4.04655 0,0 7.65944,2.28679 11.45589,1.61066 2.5604,-0.456 6.87602,-3.68685 6.87602,-3.68685 4.01866,-2.33569 8.49089,-5.66021 9.93825,-7.38782 1.78833,-2.1346 3.90225,-3.31869 6.5968,-3.69532 2.18086,-0.30477 6.08568,-1.90077 8.6774,-3.54672 3.18095,-2.02015 7.09881,-4.49786 11.74898,-4.83969 4.93749,-0.36296 8.92291,0.59654 12.13515,1.76639 2.82807,1.02994 4.32923,1.95789 5.64579,3.23027 1.31657,1.27239 2.79306,2.32935 1.95434,3.87572"
       id="path8068" />
    <path
       style="display:inline;opacity:1;fill:none;stroke:#34a814;stroke-width:1.30678785;stroke-opacity:1"
       d="m 623.92284,692.87519 c -0.12063,0.32519 1.03406,1.44061 3.52876,3.17189 7.05652,4.8971 14.59815,4.94536 19.05653,0.1219 1.76098,-1.90519 4.79589,-3.31083 9.08811,-4.2092 3.54433,-0.74186 7.5337,-2.30991 8.86521,-3.4845 1.3315,-1.17465 3.60435,-3.20474 5.05077,-4.51137 2.11083,-1.90681 4.0357,-2.1317 9.75394,-1.13957 3.91824,0.67987 7.50043,1.69062 7.96155,2.24529 1.51377,1.82422 22.81563,4.88626 27.08278,3.89301 2.44061,-0.56809 7.88067,-3.73042 13.0957,-7.61259 5.85405,-4.35783 10.22506,-6.82306 12.71459,-7.17094 2.08655,-0.29162 5.70555,-2.09811 8.04215,-4.01441 1.61686,-1.32602 3.28989,-2.30925 5.53212,-3.13979 2.24226,-0.83049 3.27636,-0.38774 7.60591,0.16942 5.67446,0.73053 5.93962,0.51032 10.67189,3.88364 0,0 2.90502,2.22722 3.55194,1.03448"
       id="path4756" />
  </g>
</svg>
