<?xml version="1.0" encoding="UTF-8" standalone="no"?>
<svg
   xmlns:dc="http://purl.org/dc/elements/1.1/"
   xmlns:cc="http://creativecommons.org/ns#"
   xmlns:rdf="http://www.w3.org/1999/02/22-rdf-syntax-ns#"
   xmlns:svg="http://www.w3.org/2000/svg"
   xmlns="http://www.w3.org/2000/svg"
   xmlns:sodipodi="http://sodipodi.sourceforge.net/DTD/sodipodi-0.dtd"
   xmlns:inkscape="http://www.inkscape.org/namespaces/inkscape"
   version="1.1"
   id="svg6073"
   viewBox="0 0 148.52761 942.715"
   height="1130"
   width="600"
   inkscape:version="0.91 r13725"
   sodipodi:docname="rootsNotWireframe.svg"
   inkscape:export-filename="C:\Users\Corypheus\Dropbox\Web Design\Andrew Web\img\rootsCentered.png"
   inkscape:export-xdpi="90"
   inkscape:export-ydpi="90">
  <sodipodi:namedview
     pagecolor="#ffffff"
     bordercolor="#666666"
     borderopacity="1"
     objecttolerance="10"
     gridtolerance="10"
     guidetolerance="10"
     inkscape:pageopacity="0"
     inkscape:pageshadow="2"
     inkscape:window-width="1366"
     inkscape:window-height="705"
     id="namedview197"
     showgrid="false"
     fit-margin-top="0"
     fit-margin-left="0"
     fit-margin-right="0"
     fit-margin-bottom="0"
     inkscape:zoom="0.94867257"
     inkscape:cx="458.83426"
     inkscape:cy="415.19231"
     inkscape:window-x="-8"
     inkscape:window-y="-8"
     inkscape:window-maximized="1"
     inkscape:current-layer="layer1"
     showguides="true"
     inkscape:guide-bbox="true">
    <inkscape:grid
       type="xygrid"
       id="grid4325"
       originx="-314.65208"
       originy="60.426726" />
    <sodipodi:guide
       position="74.263805,942.715"
       orientation="1,0"
       id="guide4338"
       inkscape:label="center"
       inkscape:color="rgb(0,0,255)" />
  </sodipodi:namedview>
  <defs
     id="defs6075" />
  <metadata
     id="metadata6078">
    <rdf:RDF>
      <cc:Work
         rdf:about="">
        <dc:format>image/svg+xml</dc:format>
        <dc:type
           rdf:resource="http://purl.org/dc/dcmitype/StillImage" />
        <dc:title></dc:title>
        <cc:license
           rdf:resource="http://creativecommons.org/licenses/by-nc/3.0/" />
      </cc:Work>
      <cc:License
         rdf:about="http://creativecommons.org/licenses/by-nc/3.0/">
        <cc:permits
           rdf:resource="http://creativecommons.org/ns#Reproduction" />
        <cc:permits
           rdf:resource="http://creativecommons.org/ns#Distribution" />
        <cc:requires
           rdf:resource="http://creativecommons.org/ns#Notice" />
        <cc:requires
           rdf:resource="http://creativecommons.org/ns#Attribution" />
        <cc:prohibits
           rdf:resource="http://creativecommons.org/ns#CommercialUse" />
        <cc:permits
           rdf:resource="http://creativecommons.org/ns#DerivativeWorks" />
      </cc:License>
    </rdf:RDF>
  </metadata>
  <g
     inkscape:groupmode="layer"
     id="layer1"
     inkscape:label="roots"
     style="display:inline">
    <path
       transform="translate(-3.2914204e-6,0)"
       inkscape:connector-curvature="0"
       style="display:inline;opacity:1;fill:none;stroke:#1f14a8;stroke-width:1.09020221;stroke-opacity:1"
       d="m 301.90161,226.5627 c -3.94795,-2.81423 -3.79193,-2.88201 -8.52591,-3.49146 -3.61197,-0.46482 -4.47468,-0.83419 -6.34531,-0.14134 -1.87061,0.69289 -3.26635,1.51316 -4.61523,2.6194 -1.94934,1.5987 -4.96853,3.10578 -6.70926,3.34907 -2.07691,0.29022 -5.72348,2.34687 -10.60728,5.98244 -4.3507,3.23874 -8.88913,5.87695 -10.92524,6.35088 -3.55992,0.82863 -21.33123,-1.72591 -22.59411,-3.24778 -0.38469,-0.46274 -3.37317,-1.30597 -6.64201,-1.87316 -4.7705,-0.8277 -6.37635,-0.64008 -8.13733,0.9507 -1.20669,1.09007 -3.10284,2.78369 -4.21366,3.76366 -1.11083,0.97991 -4.439,2.28808 -7.3959,2.90698 -3.58083,0.74948 -6.11274,1.92215 -7.58186,3.51157 -3.71945,4.02403 -10.01116,3.9838 -15.89812,-0.10169 -4.16247,-2.88868 -3.85324,-3.72222 0.49592,-1.3368 5.25274,2.88097 10.28311,2.28987 13.61806,-1.60021 2.29806,-2.68059 3.31292,-3.1363 7.18968,-3.22836 5.28026,-0.12544 9.32681,-1.8456 9.56953,-4.06798 0.26161,-2.39548 7.09408,-5.20526 11.21009,-4.61006 1.93049,0.2792 4.8931,1.21185 6.58353,2.07269 1.69045,0.86079 7.21258,2.37998 12.27143,3.37588 l 9.19793,1.81076 6.09567,-3.54285 c 3.35261,-1.94857 7.08362,-4.72209 8.2911,-6.16337 1.49193,-1.78081 3.25549,-2.76865 5.50345,-3.08286 1.81941,-0.25426 5.07705,-1.58574 7.23922,-2.95889 2.65374,-1.68533 6.29332,-3.30364 9.98135,-4.54055 3.68803,-1.23691 7.57473,0.47285 10.23167,1.50956 4.77258,1.86219 7.73877,5.01286 6.05307,6.39531 z"
       id="path4756"
       sodipodi:nodetypes="cssscssccscssssscsscscsscssscc" />
    <path
       transform="translate(-3.2914204e-6,0)"
       style="display:inline;opacity:1;fill:none;stroke:#34a814;stroke-width:1.08635676;stroke-opacity:1"
       d="m -8.9917037,917.84868 c 3.51275,-5.5788 7.57182,-12.8107 9.02012,-16.0704 3.34629,-7.5317 10.2854597,-19.3088 19.6396597,-33.33209 1.46358,-2.19421 3.94605,-7.38031 5.51661,-11.52481 3.7287,-9.8396 7.44429,-17.2255 16.27814,-32.35799 3.9849,-6.8262 7.70208,-14.5164 8.26036,-17.0893 0.55831,-2.573 1.49579,-5.439 2.08328,-6.369 0.58751,-0.93 1.06819,-5.6431 1.06819,-10.4735 0,-5.2392 0.62873,-10.5384 1.55833,-13.1345 1.96075,-5.4756 1.98693,-9.0746 0.0939,-12.9127 -1.55527,-3.1534 -1.53364,-3.8946 0.51581,-17.6677 1.09729,-7.3742 1.02829,-9.5067 -0.5216,-16.1237 -1.28087,-5.4684 -1.58011,-9.3966 -1.05788,-13.8864 0.40451,-3.4778 0.31924,-6.2595 -0.19181,-6.2577 -2.1729,0.01 -7.72388,3.6495 -7.74517,5.0812 -0.0463,3.1077 -3.66366,5.7707 -8.72245,6.4211 -2.67192,0.3435 -4.85803,0.2889 -4.85803,-0.1214 0,-0.4102 1.57518,-0.7459 3.50037,-0.7459 4.02365,0 6.3933,-1.8341 7.65972,-5.9285 0.53232,-1.721 2.27492,-3.6272 4.45747,-4.8758 7.74719,-4.4325 11.55655,-11.4367 12.2044,-22.4402 1.45623,-24.7333 1.6077,-53.5272 0.34662,-65.89501 -0.77904,-7.64049 -1.43173,-21.96947 -1.4504,-31.84216 -0.0186,-9.87268 -0.36497,-17.9511 -0.76953,-17.95203 -3.34624,-0.008 -6.48403,2.72269 -9.84887,8.57007 -2.05633,3.57348 -4.19685,6.73706 -4.7567,7.03019 -2.3317,1.22083 -1.99156,-0.71672 0.82547,-4.70203 1.65267,-2.33808 3.2403,-4.71804 3.52807,-5.28883 0.28775,-0.57082 2.69462,-2.97687 5.34854,-5.3468 5.69415,-5.0848 7.58854,-8.00645 9.08106,-14.00535 4.02382,-16.17286 6.32573,-23.33937 10.33125,-32.1645 2.49672,-5.50081 4.53947,-10.3121 4.53947,-10.69175 0,-0.37967 1.22302,-3.25927 2.71783,-6.39914 6.61618,-13.89745 12.26212,-28.70573 14.85168,-38.95334 2.54326,-10.06442 2.80193,-12.84716 2.81818,-30.31921 0.0208,-22.30247 -0.66844,-24.36311 -5.38547,-16.10213 -3.97057,6.95371 -9.75218,11.50967 -20.46153,16.12383 -6.81676,2.93702 -9.65107,4.73928 -12.1201,7.70681 -2.41138,2.89823 -4.13969,4.01904 -6.86546,4.45226 -2.03937,0.32411 -4.7948,1.67426 -6.25994,3.06735 -1.43942,1.36862 -4.07068,2.75886 -5.84723,3.08943 -1.77655,0.33056 -3.75744,1.4662 -4.40199,2.52363 -1.68879,2.7706 -13.89301,12.0434 -18.42957,14.00281 -3.47473,1.5008 -17.0065297,2.98509 -17.0065297,1.86545 0,-1.37922 4.28044,-2.81138 8.47611,-2.83596 4.5999197,-0.0269 10.3727097,-2.59242 15.4209797,-6.85323 0.76925,-0.64925 3.00602,-2.21911 4.97058,-3.48857 1.96459,-1.26947 3.57197,-2.79731 3.57197,-3.39526 0,-1.51605 3.47257,-4.02152 5.57378,-4.02152 0.96055,0 3.4938,-1.39626 5.62944,-3.10282 2.13563,-1.70656 4.75762,-3.10282 5.82663,-3.10282 3.09938,0 5.63695,-1.52057 8.04409,-4.82019 1.50268,-2.05979 4.15126,-3.81111 8.05147,-5.32379 5.93152,-2.30054 18.0645,-9.28966 18.11967,-10.4377 0.0167,-0.34924 1.9141,-3.10388 4.21625,-6.12145 2.30218,-3.01756 4.18576,-5.96119 4.18576,-6.54141 0,-0.58022 0.90785,-1.75097 2.01745,-2.60169 1.94246,-1.48926 2.08828,-1.4367 3.92415,1.41402 1.702204,2.64319 1.904724,5.3378 1.888034,25.12374 -0.0177,20.93012 -0.17133,22.68082 -2.762814,31.47146 -1.50925,5.11965 -3.22176,10.50527 -3.80554,11.96803 -0.5838,1.46276 -2.31849,6.0505 -3.85488,10.19498 -2.52333,6.80681 -16.40963,39.30511 -20.08032,46.99428 -0.81697,1.71134 -1.92702,6.29908 -2.46676,10.19496 -0.53976,3.8959 -1.68891,9.67652 -2.55367,12.84583 -2.20535,8.08252 -3.98167,29.22532 -3.16546,37.67709 0.3767,3.9007 1.34364,12.27829 2.14879,18.61693 1.13696,8.95114 1.24296,15.28624 0.47467,28.36864 -0.54405,9.2641 -1.2659,24.8225 -1.60409,34.5743 -0.53033,15.2911 -0.92604,18.4012 -2.87648,22.6062 -1.89676,4.0894 -2.23762,6.5204 -2.11315,15.0709 0.0815,5.6072 0.62658,11.2595 1.21104,12.5605 0.72152,1.6062 0.71293,5.1634 -0.0268,11.0815 -0.59917,4.7938 -0.79383,13.1373 -0.43261,18.5412 0.49702,7.4354 0.26715,11.0927 -0.94509,15.0355 -0.88102,2.8656 -1.60187,8.8032 -1.60187,13.1946 0,4.6735 -0.62143,9.4671 -1.49863,11.5601 -0.82425,1.9667 -2.26521,5.9693 -3.20213,8.8949 -0.93692,2.9255 -2.61701,6.7944 -3.73358,8.5975 -2.48777,4.0176 -2.7094,5.8382 -0.52363,4.3015 2.05475,-1.4447 7.36033,-11.2218 9.23477,-17.0179 0.84424,-2.6105 2.33538,-8.7357 3.31365,-13.6115 0.97826,-4.8759 2.40821,-11.8572 3.17766,-15.5141 0.76945,-3.6569 1.15898,-9.2848 0.86559,-12.5064 -0.34082,-3.7425 0.12141,-8.653 1.28015,-13.6001 1.37743,-5.8807 1.61557,-9.3755 0.99025,-14.5325 -1.67114,-13.7819 0.0659,-30.736 3.74563,-36.5611 0.54696,-0.8658 1.48065,-6.689 2.07486,-12.9404 0.59423,-6.2513 1.53077,-13.9591 2.0812,-17.1285 0.55045,-3.1693 0.93101,-18.3287 0.84568,-33.6877 -0.40073,-72.13214 1.28367,-83.96869 15.44739,-108.55114 1.3896,-2.41176 2.52655,-4.87277 2.52655,-5.4689 0,-0.59614 0.67629,-2.21327 1.50286,-3.59364 0.8266,-1.38039 2.76295,-4.90338 4.30301,-7.8289 1.54007,-2.92552 3.944914,-7.23958 5.344074,-9.5868 3.27764,-5.49858 9.27501,-20.04216 10.86748,-26.35364 1.13296,-4.49021 1.04985,-5.17572 -0.96712,-7.97868 -2.2732,-3.15904 -3.02323,-8.82881 -1.16794,-8.82881 0.57554,0 1.04644,1.1526 1.04644,2.56135 0,1.40872 0.90208,3.50314 2.0046,4.65423 l 2.0046,2.09288 0.57706,-2.21631 c 3.99057,-15.3263 2.74917,-48.90936 -2.425,-65.60247 -2.98016,-9.61469 -9.08914,-25.28727 -10.96719,-28.13623 -2.90988,-4.41426 -9.918914,-24.46188 -11.035754,-31.56506 -1.45942,-9.28207 -1.47756,-32.20515 -0.0319,-40.47545 1.76695,-10.10945 9.613864,-33.47523 12.698494,-37.81235 1.09324,-1.53714 3.36266,-6.92275 5.04317,-11.96802 1.68051,-5.04526 3.8285,-10.96842 4.77333,-13.16255 4.1562,-9.65178 4.74152,-12.92646 2.87858,-16.10435 -0.95302,-1.62569 -2.34941,-3.48299 -3.10309,-4.1273 -1.74353,-1.49055 -1.72912,-2.34847 0.0605,-3.60678 1.08831,-0.76517 1.74524,-0.68504 2.74424,0.33472 2.63679,2.69162 4.19647,1.56632 4.19647,-3.02775 0,-6.7005 -2.07057,-18.13231 -3.46384,-19.12431 -0.68484,-0.48759 -1.0996,-1.95328 -0.92169,-3.2571 0.39027,-2.86043 -3.10934,-8.97671 -6.17831,-10.79779 -1.22118,-0.72464 -1.91666,-1.73378 -1.54549,-2.24256 0.37116,-0.50875 -0.28414,-1.73744 -1.45623,-2.73041 -1.1721,-0.99295 -2.13107,-2.38973 -2.13107,-3.10396 0,-0.71423 -0.90407,-1.70849 -2.00907,-2.20949 -1.105,-0.501 -2.54416,-2.28447 -3.19816,-3.96328 -0.65402,-1.6788 -1.51581,-3.17786 -1.91511,-3.33124 -1.516424,-0.58251 -7.678924,-12.58861 -8.723714,-16.99593 -1.10991,-4.68203 0.65407,-21.31467 3.25713,-30.71177 1.77146,-6.395 2.67753,-32.498325 1.18108,-34.025895 -0.90383,-0.92261 -0.92923,-1.44556 -0.0916,-1.88416 1.30073,-0.68102 0.65294,-18.93587 -1.02221,-28.80591 -0.5379,-3.16929 -1.27074,-8.05624 -1.62857,-10.85986 -0.50453,-3.95331 -1.04472,-5.10054 -2.40655,-5.11107 -1.40878,-0.0109 -1.47007,-0.16696 -0.30996,-0.789429 1.03724,-0.55655 1.24274,-1.69385 0.72691,-4.02317 -0.58601,-2.64639 -1.12608,-3.19754 -2.91839,-2.97827 -1.20962,0.14798 -2.40004,-0.22964 -2.64538,-0.83912 -0.26745,-0.66441 0.47236,-1.10814 1.84745,-1.10814 1.97262,0 2.19643,-0.34111 1.59957,-2.43794 -0.38165,-1.34085 -1.42165,-2.91004 -2.3111,-3.4871 -0.88945,-0.57703 -1.29402,-1.4921 -0.89908,-2.0335 0.39496,-0.54139 0.15399,-1.56018 -0.5355,-2.26399 -0.6895,-0.70381 -0.95479,-1.93935 -0.58956,-2.74564 0.36521,-0.80629 -0.0245,-2.35633 -0.86623,-3.44453 -1.66519,-2.153 -1.11786,-5.7503 0.87489,-5.7503 1.23978,0 3.04508,3.91222 6.23855,13.51943 5.64567,16.98441 6.71899,21.019699 7.4867,28.146999 3.059184,28.40145 3.327704,34.1607 2.460154,52.76602 -0.5958,12.777725 -1.433664,20.790655 -2.450874,23.439415 -1.90023,4.94811 -3.69019,14.2762 -3.70079,19.28609 -0.015,7.07522 5.876344,18.42339 16.239144,31.28082 13.25474,16.44551 15.53929,21.89303 15.61481,37.23383 0.03,6.09483 -0.32927,11.73615 -0.79843,12.53626 -0.60424,1.03051 0.0812,2.3562 2.35026,4.54557 2.49124,2.40375 4.70581,3.41051 9.96281,4.52924 3.71775,0.79116 8.13334,1.43845 9.81241,1.43845 3.67358,0 11.19728,2.79878 14.9023,5.54355 1.47877,1.09554 4.84974,4.78442 7.49107,8.19751 7.27913,9.40609 10.09546,11.58733 17.13788,13.27318 17.06248,4.08453 24.2104,6.19474 26.76352,7.90117 1.54306,1.03135 4.52715,2.87251 6.63131,4.09147 2.71501,1.57283 4.84276,4.05963 7.32876,8.56543 2.44812,4.43713 4.23267,6.5377 5.92596,6.97538 1.33263,0.34445 3.12931,1.12441 3.99261,1.73329 0.86332,0.60887 3.59155,1.36705 6.06273,1.68486 4.51349,0.58043 7.53406,1.68762 10.95298,4.0148 1.45017,0.98709 2.62077,1.05161 5.49947,0.30313 3.68188,-0.95731 4.3398,-0.8666 17.77277,2.45033 5.89296,1.45512 9.94119,4.92351 9.94119,8.51733 0,1.58656 0.4709,3.1312 1.04644,3.43255 1.64811,0.86292 1.22235,7.16275 -0.71695,10.608 -1.70689,3.03238 -1.67535,3.35973 0.98424,10.21703 1.51118,3.89639 4.47529,9.2894 6.5869,11.98454 2.11162,2.6951 4.24743,6.38884 4.74624,8.20831 1.17978,4.30339 1.20666,9.957 0.0474,9.957 -0.99849,0 -2.20018,-5.08298 -2.21828,-9.38312 -0.007,-1.76108 -1.55634,-4.60077 -4.35203,-7.97867 -4.95011,-5.98106 -10.30962,-16.04027 -10.30962,-19.35011 0,-1.22915 0.78577,-3.63079 1.74617,-5.33698 1.46053,-2.59467 1.54611,-3.66786 0.52322,-6.56019 -0.67263,-1.90194 -1.22294,-4.51529 -1.22294,-5.80746 0,-2.64775 -2.05309,-3.64716 -13.7013,-6.66971 -4.33466,-1.12477 -8.27835,-1.60073 -10.60889,-1.28033 -2.77493,0.3815 -4.46399,0.0461 -6.70431,-1.33113 -1.64715,-1.0126 -5.3493,-2.29304 -8.22702,-2.84539 -11.37156,-2.18275 -13.24207,-2.7798 -16.64978,-5.31457 -1.94402,-1.44601 -3.84845,-3.7219 -4.23211,-5.0575 -1.67699,-5.83832 -5.57255,-9.08975 -15.62718,-13.04325 -5.31634,-2.09039 -11.9909,-4.07871 -14.83239,-4.41849 -2.84146,-0.33978 -6.40838,-1.08561 -7.92647,-1.6574 -4.32664,-1.62965 -12.34537,-7.74158 -15.90261,-12.12113 -8.79692,-10.83038 -13.69694,-13.3912 -28.669,-14.98277 -4.77578,-0.50768 -9.37001,-1.65808 -12.45481,-3.11873 -2.68826,-1.27289 -5.07231,-2.15798 -5.29785,-1.96689 -0.22557,0.19106 -0.63593,1.49342 -0.91193,2.89413 -0.70167,3.56079 -3.82011,11.45643 -12.03518,30.47207 -14.451594,33.45148 -17.095464,46.82094 -14.200394,71.80811 1.93776,16.72478 5.687844,29.90733 11.076114,38.93565 5.39079,9.03249 11.61994,28.42505 14.83052,46.17025 1.71341,9.47013 2.02454,14.09586 1.49071,22.16301 -0.37104,5.60725 -0.81862,12.38911 -0.99457,15.07084 -0.48756,7.43026 -1.672,12.19822 -3.31769,13.35532 -1.95115,1.37183 -1.91478,2.93051 0.0534,2.29065 0.84773,-0.27558 2.97893,0.52373 4.73601,1.77626 2.89628,2.06463 3.48883,2.17412 6.34393,1.17223 2.67102,-0.93729 3.81899,-0.8615 7.55967,0.49916 7.50382,2.72948 14.15218,10.39493 11.80554,13.61158 -1.11119,1.52318 1.38916,5.35789 3.8322,5.87734 3.00754,0.63948 7.08538,5.55651 7.08538,8.54351 0,1.34165 1.39149,3.4628 3.4534,5.26426 1.89936,1.65945 3.76845,3.71591 4.15351,4.5699 0.38507,0.854 2.32319,2.20844 4.30694,3.00986 2.7318,1.10362 3.76592,2.17563 4.26267,4.41885 0.76871,3.47138 -0.10741,5.02207 -5.13864,9.0951 -2.04205,1.65314 -3.71281,3.71205 -3.71281,4.57535 0,2.46062 4.33671,11.7293 6.41975,13.72067 2.04672,1.9567 5.0911,8.56982 5.0911,11.05917 0,0.85417 0.70635,2.04966 1.56966,2.65665 1.76123,1.23829 2.16598,7.09217 0.49038,7.09217 -0.59361,0 -1.25066,-0.49868 -1.46012,-1.10815 -0.20948,-0.60948 -1.17416,-3.50175 -2.14375,-6.42726 -2.74308,-8.27651 -3.82199,-10.22828 -6.46501,-11.6954 -1.59119,-0.88326 -2.45557,-2.22129 -2.45557,-3.80112 0,-1.34091 -0.88043,-3.38944 -1.95651,-4.55227 -1.07607,-1.16281 -2.29132,-3.41297 -2.70051,-5.0003 -0.64773,-2.51262 -0.19142,-3.47406 3.52616,-7.42959 5.09031,-5.41615 5.32434,-7.65569 1.13086,-10.82112 -1.72664,-1.3033 -3.13933,-2.67651 -3.13933,-3.05151 0,-0.37503 -1.86811,-2.26689 -4.15133,-4.20414 -2.28324,-1.93725 -4.16682,-4.25985 -4.18577,-5.16133 -0.066,-3.14604 -3.31075,-7.45271 -6.82179,-9.05458 -3.83075,-1.74772 -4.68452,-3.34329 -4.71402,-8.8098 -0.0217,-4.03814 -3.84285,-8.23528 -9.2129,-10.1197 -2.61769,-0.91858 -3.66942,-0.86908 -6.33373,0.29813 -4.25645,1.86472 -4.87823,1.7913 -7.85388,-0.92737 -3.19296,-2.91724 -4.44806,-2.29072 -5.09096,2.54131 -0.64537,4.85079 -6.79165,18.40024 -12.85334,28.33521 -2.5894,4.24398 -4.70801,8.23923 -4.70801,8.87835 0,0.6391 -0.92471,2.62365 -2.054914,4.41009 -1.13021,1.78646 -3.69837,6.81115 -5.70701,11.16596 -2.00866,4.35481 -4.75749,9.67914 -6.10855,11.83176 -2.36567,3.76927 -5.66634,16.98164 -7.94295,31.79498 -1.30896,8.51714 -1.40391,43.7906 -0.15299,56.82941 0.86835,9.0509 -0.7257,36.6062 -2.61018,45.1204 -0.26979,1.219 -0.58328,6.4051 -0.69664,11.5247 -0.17186,7.7615 -0.72401,10.5608 -3.32241,16.8439 -3.45546,8.3556 -3.86249,14.115 -2.29438,32.4648 0.60937,7.1306 0.48891,10.6875 -0.43537,12.8545 -0.70284,1.6479 -1.70252,8.9801 -2.22153,16.2939 -1.41073,19.8794 -3.48549,32.3783 -6.91642,41.6664 -1.91856,5.1939 -9.99317,20.9827 -16.00845,31.3025 -2.32196,3.9835 -4.22174,7.5024 -4.22174,7.8197 0,0.3173 -0.88151,2.2164 -1.95892,4.2202 -1.07742,2.0037 -2.54693,5.2389 -3.26559,7.1892 -2.68405,7.2841 -9.00837,18.8599 -14.36165,26.2871 -3.04063,4.2187 -5.52841,7.9256 -5.52841,8.2375 0,0.312 -0.82408,1.322 -1.83126,2.2446 -2.07618,1.9017 -5.2077197,7.0532 -8.6355297,14.2058 -7.65337,15.9698 -7.92567,16.3894 -10.81868,16.6811 -3.18338,0.3209 -3.34938,-0.024 -1.32196,-2.7495 0.8034,-1.0799 1.79573,-2.9609 2.20519,-4.1798 0.71861,-2.1393 0.67694,-2.1615 -1.19909,-0.6364 -1.06896,0.869 -2.45407,2.8636 -3.07801,4.4326 -0.7621303,1.9164 -1.9168103,2.9498 -3.5182103,3.1488 -2.19056,0.2724 -1.86611,-0.5257 4.0030403,-9.8473 z"
       id="path4585"
       inkscape:connector-curvature="0" />
    <path
       transform="translate(-3.2914204e-6,0)"
       style="display:inline;opacity:1;fill:none;stroke:#1419a8;stroke-width:1.08635676;stroke-opacity:1"
       d="m 181.24732,523.08543 c 0.66378,0.0102 4.58281,1.95414 8.70892,4.31991 5.71024,3.27405 8.59281,4.31812 12.0691,4.37147 2.51188,0.0385 5.77862,0.83538 7.2594,1.77073 1.76673,1.116 5.86447,1.8986 11.91963,2.27641 5.39421,0.33657 10.54471,1.2508 12.39864,2.20079 3.24141,1.66098 15.116,15.04266 15.09713,17.01321 -0.005,0.59962 1.72542,3.16459 3.84699,5.70004 3.09622,3.70014 4.43857,4.59102 6.80206,4.51434 1.61956,-0.0526 4.15207,-0.12046 5.62782,-0.15094 1.47575,-0.0305 4.84949,1.11656 7.4972,2.54895 3.20636,1.73464 5.8872,2.47225 8.02779,2.20874 5.41946,-0.66712 10.17973,3.41312 12.02841,10.31011 1.30713,4.8766 0.53539,5.31164 -1.23772,0.69769 -2.14148,-5.57251 -6.34858,-8.36061 -11.38935,-7.54792 -3.47349,0.56002 -4.53882,0.25347 -7.54717,-2.17176 -4.09748,-3.30318 -8.28288,-4.59918 -9.89796,-3.06482 -1.74087,1.65386 -8.74687,-0.60637 -11.49486,-3.70842 -1.28887,-1.4549 -2.94223,-4.07127 -3.67408,-5.81416 -0.73189,-1.74287 -3.95482,-6.45282 -7.16212,-10.46651 l -5.83146,-7.29766 -6.91737,-1.22837 c -3.80455,-0.67561 -8.42792,-0.9672 -10.27414,-0.64799 -2.28113,0.39442 -4.25849,0.0108 -6.17078,-1.19712 -1.5477,-0.97762 -4.88283,-2.06152 -7.41143,-2.40862 -6.20694,-0.85203 -15.24112,-4.44613 -19.77904,-7.86874 -3.78906,-2.85783 -4.66774,-4.39269 -2.49561,-4.35936 z"
       id="path14136"
       inkscape:connector-curvature="0" />
    <path
       transform="translate(-3.2914204e-6,0)"
       style="display:inline;opacity:1;fill:none;stroke:#34a814;stroke-width:1.08635676;stroke-opacity:1"
       d="m 12.063486,620.22059 c 0,-0.48761 1.19973,-0.88654 2.66606,-0.88654 3.45409,0 7.48814,-3.7105 8.91514,-8.20005 0.90394,-2.84395 1.86921,-3.77951 5.10888,-4.95159 4.08372,-1.47749 6.33161,-4.65052 6.33161,-8.93751 0,-2.17783 3.07069,-7.16599 4.41138,-7.16599 1.2298,0 0.99817,1.28226 -0.74239,4.10962 -0.85977,1.39661 -1.56612,3.81525 -1.56967,5.37478 -0.006,2.89003 -3.11734,6.55126 -6.44591,7.58656 -0.95177,0.29603 -3.27513,3.19635 -5.16302,6.44514 -3.48775,6.00193 -5.69186,7.51208 -10.96409,7.51208 -1.40138,0 -2.54799,-0.39893 -2.54799,-0.88651 z"
       id="path4577"
       inkscape:connector-curvature="0" />
    <path
       transform="translate(-3.2914204e-6,0)"
       style="display:inline;opacity:1;fill:none;stroke:#34a814;stroke-width:1.08635676;stroke-opacity:1"
       d="m -14.985534,493.40566 c 0.37004,-1.19876 0.84437,-1.60061 1.10562,-0.93666 0.25164,0.63957 -0.04,1.58435 -0.64807,2.09952 -0.77654,0.65787 -0.91272,0.31173 -0.45755,-1.16286 z"
       id="path4575"
       inkscape:connector-curvature="0" />
    <path
       transform="translate(-3.2914204e-6,0)"
       style="display:inline;opacity:1;fill:none;stroke:#34a814;stroke-width:1.08635676;stroke-opacity:1"
       d="m -11.564954,489.18151 c 0,-0.41202 1.00282,-1.50908 2.2285003,-2.43791 1.22566,-0.92885 3.12109,-3.44074 4.21206,-5.58201 2.36835,-4.64833 3.71936,-4.28788 1.90904,0.50933 -1.71383,4.54155 -8.3496003,10.5105 -8.3496003,7.51059 z"
       id="path4573"
       inkscape:connector-curvature="0" />
    <path
       transform="translate(-3.2914204e-6,0)"
       style="display:inline;opacity:1;fill:none;stroke:#34a814;stroke-width:1.08635676;stroke-opacity:1"
       d="m -88.394774,473.87295 c 0,-1.33519 2.94611,-5.92319 6.38894,-9.94956 2.2208,-2.59723 3.02903,-4.55743 3.02903,-7.34643 0,-2.09221 0.47089,-4.05058 1.04643,-4.35191 0.57553,-0.30136 1.04643,-2.64742 1.04643,-5.21353 0,-5.34942 1.98561,-10.84066 6.43827,-17.80528 3.27047,-5.11552 6.82289,-7.80241 11.61284,-8.78352 1.58274,-0.32419 2.8777,-1.15174 2.8777,-1.839 0,-2.51627 3.19395,-4.03578 8.48309,-4.03578 4.85233,0 9.63987,-1.62973 11.65897,-3.96885 0.4306,-0.49885 0.5064,-2.53719 0.16848,-4.52963 -0.56265,-3.31724 -0.24091,-3.98982 3.81684,-7.97868 2.43723,-2.39583 5.27985,-4.63466 6.31699,-4.97521 3.05533,-1.00318 5.1346,-5.51598 5.1346,-11.14393 0,-8.69865 2.33607,-13.48659 10.4961603,-21.51263 4.01134,-3.94544 7.29333,-7.48507 7.29333,-7.86586 0,-0.38079 1.12051,-1.79707 2.49002,-3.14731 4.35845,-4.29708 6.92793,-9.67841 6.92793,-14.5093 0,-5.79762 2.74986,-8.56177 15.1474497,-15.22622 4.9887,-2.68171 11.74843,-6.67106 15.02163,-8.8652 3.27321,-2.19414 6.71088,-4.38827 7.6393,-4.87585 5.20173,-2.7319 12.46533,-7.78684 18.60176,-12.94551 6.91351,-5.81193 6.97238,-5.90288 8.32191,-12.85454 2.33197,-12.01256 9.82291,-32.92535 17.90353,-49.98224 2.51789,-5.31481 5.62688,-20.70326 4.68871,-23.20746 -0.67577,-1.80377 -3.02117,-0.0528 -29.35985,21.91998 -18.27397,15.24484 -23.72725,18.19659 -34.80093,18.83701 -3.66302,0.21185 -6.95931,0.0356 -7.32508,-0.39168 -0.36578,-0.42729 -3.37294,-2.52002 -6.68262,-4.65051 -4.33513,-2.79062 -6.3831297,-3.62329 -7.3250697,-2.97821 -0.71913,0.49247 -3.66199,1.17038 -6.53973,1.50645 -2.8777,0.33609 -6.47935,1.0789 -8.00367,1.65069 -2.99083,1.12189 -12.4019003,10.01901 -12.4019003,11.72461 0,0.57157 -1.4207,2.55372 -3.15708,4.40477 -1.94768,2.0763 -2.93217,3.96588 -2.56996,4.93269 1.64651,4.39491 -5.76628,11.44901 -12.03116,11.44901 -5.46398,0 -7.35636,1.37109 -7.35636,5.32988 0,2.84951 -0.53112,3.77735 -2.87772,5.02733 -1.58273,0.8431 -4.4245,2.64748 -6.31504,4.00978 -1.89055,1.36229 -4.24503,2.47838 -5.23221,2.48021 -0.98717,0.002 -3.37431,0.81909 -5.30476,1.81613 -1.93043,0.99707 -4.01511,1.67015 -4.63263,1.49579 -1.37515,-0.38835 5.7032,-4.20176 7.79917,-4.20176 0.82636,0 3.12525,-1.43492 5.10868,-3.1887 1.98342,-1.75381 4.66573,-3.53914 5.9607,-3.9674 1.87772,-0.62101 2.35449,-1.47338 2.35449,-4.20931 0,-4.18486 2.35517,-6.23922 7.98013,-6.96089 2.22967,-0.28609 5.58435,-1.29891 7.45486,-2.25073 3.08739,-1.57104 3.40094,-2.1263 3.40094,-6.02286 0,-3.21433 0.62107,-4.92162 2.47309,-6.79822 1.36021,-1.37827 3.44038,-4.10168 4.62262,-6.05204 2.70406,-4.46087 10.23367,-10.60443 14.3563103,-11.7136 4.53868,-1.22107 4.46966,-3.32643 -0.19546,-5.96084 -2.19467,-1.23935 -5.0815103,-2.92249 -6.4152303,-3.74034 -3.28259,-2.01289 -13.61679,-2.01863 -17.00277,-0.009 -1.36951,0.81267 -4.34517,1.47757 -6.6126,1.47757 -5.01819,0 -12.45772,3.41212 -16.91227,7.75676 -2.89936,2.82781 -3.84633,3.16372 -10.46441,3.712 -6.45004,0.53434 -7.73678,0.96777 -11.32832,3.81584 -2.53578,2.01083 -5.53182,3.42484 -8.00746,3.77918 -3.46208,0.49552 -4.03722,0.93436 -4.60906,3.51666 -0.35935,1.62275 -1.22952,3.34325 -1.93371,3.8233 -0.7042,0.48005 -5.59454,1.04025 -10.867416,1.24487 -9.37822,0.36396 -9.68273,0.4453 -13.9809,3.73501 -4.579,3.50465 -14.36801,7.86356 -15.88077,7.0715 -1.54647,-0.8097 0.12321,-1.96169 7.00089,-4.83009 3.70294,-1.54436 7.481,-3.77558 8.39572,-4.95826 2.35399,-3.04359 6.17466,-4.05516 14.92245,-3.95085 7.368186,0.0879 7.649816,0.0125 8.744906,-2.33921 2.15106,-4.6195 2.69607,-5.09325 6.87485,-5.97609 2.30793,-0.48759 6.46035,-2.38252 9.22758,-4.21098 4.6977,-3.10398 5.50722,-3.32444 12.20715,-3.32444 6.63442,0 7.2655,-0.16684 8.3651,-2.21137 0.65411,-1.21625 2.64535,-3.00934 4.42495,-3.98463 1.77957,-0.97532 4.64831,-2.57116 6.37493,-3.54635 1.72663,-0.9752 4.61222,-1.77518 6.41246,-1.77775 1.80022,-0.003 4.96366,-0.60306 7.02985,-1.33444 2.06621,-0.73138 4.93264,-1.32978 6.36986,-1.32978 4.57822,0 12.44498,2.76849 16.7618103,5.89883 5.64138,4.09085 7.93057,4.4223 13.88942,2.01107 6.1684097,-2.49603 15.6161797,-9.16585 17.6098397,-12.43199 0.81675,-1.33807 3.43192,-4.33858 5.81148,-6.66776 2.37955,-2.32919 6.10367,-7.44646 8.27581,-11.37174 2.60078,-4.69984 5.62459,-8.49905 8.85541,-11.12617 2.69833,-2.19413 5.76965,-5.3856 6.82517,-7.09215 1.05553,-1.70655 4.07749,-5.2298 6.71552,-7.82944 2.63801,-2.59964 4.79462,-4.99324 4.79246,-5.31911 -0.002,-0.32589 -0.86889,-1.79413 -1.92608,-3.26277 -4.80959,-6.68141 -5.85519,-11.65014 -5.68768,-27.02816 0.15823,-14.5288 0.41457,-16.07723 5.65034,-34.13102 2.74608,-9.468935 4.17091,-41.855045 2.28163,-51.861395 -2.58216,-13.67625 -3.81158,-19.08526 -4.53371,-19.9467 -0.40872,-0.48757 -1.33773,-3.08066 -2.06444,-5.762379 -0.72672,-2.68172 -3.14188,-9.92368 -5.36702,-16.09326 -4.4801,-12.42174 -4.76681,-14.04841 -2.47606,-14.04841 0.8633,0 1.56965,0.1409 1.56965,0.31311 0,0.17223 1.17724,3.06277 2.6161,6.42343 1.43885,3.36067 2.61609,6.8284 2.61609,7.70607 0,0.87767 1.1958,4.86874 2.65733,8.86905 2.89453,7.92251 3.99243,11.369979 5.56312,17.468249 0.56514,2.19413 1.65439,6.38294 2.42058,9.30847 2.66776,10.18644 1.23681,46.69423 -2.31075,58.953555 -6.2615,21.63796 -7.44542,40.05071 -3.21667,50.02656 1.2257,2.89152 2.88246,5.88354 3.68164,6.64889 0.79922,0.76539 1.6365,2.18946 1.86067,3.16463 0.25915,1.12732 1.08855,1.67276 2.27745,1.49767 1.29933,-0.19136 1.78422,0.21438 1.58919,1.32978 -0.53909,3.0832 4.55175,9.63336 12.43857,16.00409 7.18371,5.8028 8.11405,6.29305 9.67343,5.0975 2.49423,-1.91228 3.44364,-1.63071 2.88275,0.85497 -0.42098,1.86575 -0.22343,2.05628 1.37887,1.32979 2.493784,-1.13065 3.054324,-1.0706 3.054324,0.32727 0,0.64637 -1.10491,2.05463 -2.455354,3.12943 -2.3251,1.85048 -2.42974,2.4114 -1.97203,10.57113 0.51332,9.15149 -0.59563,13.23341 -7.75998,28.56367 -12.96368,27.73961 -15.61943,36.72237 -13.57471,45.91489 0.80276,3.6089 0.65368,3.95921 -2.88998,6.79055 -4.89861,3.91394 -6.05225,8.4013 -6.0016,23.34443 0.043,12.69275 0.64232,17.0168 2.87707,20.7584 0.7864,1.31666 1.42981,3.217 1.42981,4.22301 0,1.00599 0.46707,2.52179 1.03796,3.36847 0.57086,0.84666 1.96644,4.53139 3.10128,8.18828 2.09281,6.74388 9.18433,24.11086 14.09598,34.52074 1.48148,3.13986 2.69359,6.17878 2.69359,6.75312 0,0.57437 1.41269,4.67598 3.13932,9.1147 3.6305,9.33313 3.7457,10.12562 1.41533,9.73816 -1.21453,-0.20193 -2.56974,-2.90635 -4.58606,-9.15182 -1.57414,-4.87588 -5.30401,-14.64974 -8.28862,-21.71974 -8.63343,-20.45112 -15.8489,-38.90581 -18.02394,-46.09904 -2.41838,-7.99804 -3.6803,-26.52444 -2.12807,-31.24286 0.6246,-1.89868 0.694,-3.52553 0.16225,-3.80395 -1.27957,-0.66996 -7.26918,2.05475 -7.26918,3.30683 0,2.9579 -20.09912,16.24339 -26.70636,17.65286 -2.61549,0.55794 -5.2138,1.74002 -5.77403,2.62685 -0.56023,0.88683 -3.29156,2.69485 -6.06962,4.01783 -5.22499,2.48824 -8.5397997,6.88515 -8.5397997,11.32755 0,2.91113 -4.52364,11.27515 -7.20286,13.3178 -1.21831,0.92884 -2.2151,2.25991 -2.2151,2.95791 0,0.69801 -2.76617,3.72792 -6.14701,6.73314 -3.38085,3.00521 -6.9246803,6.76055 -7.8751703,8.34522 -0.95049,1.58463 -2.14303,2.88117 -2.6501,2.88117 -0.50703,0 -1.25211,3.88962 -1.65571,8.64358 -0.85243,10.04056 -2.41456,13.44978 -7.00711,15.29246 -5.33273,2.13965 -7.46022,5.35656 -7.2443,10.95395 0.17723,4.5952 -0.0142,4.98319 -3.76092,7.62627 -3.13397,2.21081 -4.81035,2.75111 -8.13339,2.62147 -7.52125,-0.29346 -8.73079,-0.03 -9.08358,1.97892 -0.1839,1.04728 -1.04073,2.17964 -1.90405,2.51636 -6.40164,2.49689 -8.08365,3.59882 -11.16559,7.31493 -4.61716,5.56723 -7.66916,12.58383 -7.6698,17.63311 -2.9e-4,2.25647 -0.68822,5.49701 -1.5287,7.20117 -0.84049,1.70417 -1.21432,3.36439 -0.83072,3.68935 0.74114,0.62788 -1.22467,4.25928 -6.38455,11.79407 -2.97642,4.34632 -5.90672,6.63448 -5.90672,4.61232 z"
       id="path4571"
       inkscape:connector-curvature="0" />
    <path
       transform="translate(-3.2914204e-6,0)"
       sodipodi:nodetypes="csssssaaaascccccsssssaasccscsccc"
       style="display:inline;opacity:1;fill:none;stroke:#1f14a8;stroke-width:1.09020233;stroke-opacity:1"
       d="m -141.50574,366.96532 c 2.09951,1.41943 3.39875,1.97081 7.38921,1.79007 8.00489,-0.3625 16.67147,-5.70857 15.38931,-9.49302 -0.60713,-1.79205 2.93782,-4.71416 5.43323,-4.47862 3.072,0.28995 8.45236,-3.19534 9.34853,-6.05582 0.40254,-1.28482 2.37148,-2.89863 4.886536,-4.00517 2.31678,-1.01931 3.73014,-1.84651 5.34866,-3.13015 1.54265,-1.22348 3.13657,-2.5488 4.06606,-4.28452 1.01217,-1.8901 1.0842,-4.15526 1.42915,-6.27137 0.30893,-1.89522 0.47605,-3.81453 0.57002,-5.73247 0.0653,-1.33227 -0.26382,-3.17489 -0.005,-4.00163 0.73825,-2.35637 7.67211,-9.93132 10.264384,-11.21337 2.547092,-1.25975 7.446626,-6.67935 8.193506,-9.06326 0.25629,-0.81798 1.29138,-1.7509 2.30023,-2.07318 2.05815,-0.65741 4.20207,-6.14189 2.59745,-6.64462 -0.56846,-0.1781 -1.34729,0.10233 -1.73075,0.62316 -0.38345,0.52081 -2.17503,3.00114 -3.98127,5.51183 -5.110074,7.10293 -6.728866,8.64832 -9.70012,9.2603 -1.7887,0.3688 -3.01799,1.39047 -3.49199,2.90338 -0.4023,1.28412 -1.86005,2.98173 -3.23944,3.77245 -1.37936,0.79069 -3.21823,2.58094 -4.08634,3.97826 -1.37413,2.21185 -0.65934,5.35484 -0.97673,8.03372 -0.31342,2.64538 -0.037,5.4243 -0.91598,7.93898 -0.63288,1.81067 -2.93262,4.52337 -3.04511,4.88253 -0.11249,0.35915 -2.4691,1.61039 -5.236836,2.78055 -2.76782,1.17001 -5.26839,2.82925 -5.557,3.68686 -1.00711,2.99296 -5.40653,6.14371 -9.24945,6.62432 -4.19285,0.52436 -5.48916,1.79619 -7.15752,7.02229 -1.23232,3.86059 -6.15086,6.7335 -11.85882,6.92693 -2.78241,0.0943 -3.97872,-1.47179 -5.976,-2.18579 -2.35255,-0.84096 -3.97699,0.89018 -1.00807,2.89739 z"
       id="path4799"
       inkscape:connector-curvature="0" />
    <path
       transform="translate(-3.2914204e-6,0)"
       style="display:inline;opacity:1;fill:none;stroke:#34a814;stroke-width:1.08635676;stroke-opacity:1"
       d="m 33.977796,241.74904 c 5.63649,-1.25367 8.64293,-2.50349 11.44007,-4.75583 2.08684,-1.68036 5.48727,-4.00686 7.5565,-5.16994 2.06923,-1.1631 6.20675,-4.60805 9.19449,-7.65546 2.98774,-3.0474 6.08303,-5.54075 6.87843,-5.54075 0.79539,0 2.45209,-1.3789 3.68159,-3.06424 2.12666,-2.91514 12.06178,-11.11333 13.48342,-11.12615 0.36942,-0.004 1.83616,-1.45433 3.2594,-3.22442 l 2.58775,-3.21837 -7.99924,-6.30566 c -4.39961,-3.46811 -9.23861,-8.02682 -10.75336,-10.13049 l -2.75408,-3.82483 -4.27882,3.62494 c -5.14274,4.35679 -6.65154,4.05249 -2.0277,-0.40895 3.24317,-3.12928 4.10261,-4.87479 2.40022,-4.87479 -1.67528,0 -8.66293,7.13647 -8.48123,8.66183 0.40328,3.38542 -0.19274,4.77123 -3.1977,7.43508 -1.72662,1.53064 -3.15242,3.22248 -3.16844,3.75964 -0.039,1.30931 -6.24953,8.2152 -6.24953,6.94929 0,-0.54565 0.47764,-1.2422 1.06141,-1.54785 0.58377,-0.30566 2.04544,-2.18985 3.24817,-4.1871 l 2.18679,-3.63139 -3.50981,1.81249 c -3.94019,2.03473 -8.92945,9.61901 -9.6742,14.70595 -1.04417,7.13196 -10.67563,17.89012 -23.25396,25.97427 l -2.90204,1.86514 4.54475,2.78907 c 5.31953,3.26454 6.57604,3.3463 16.72712,1.08852 z"
       id="path4567"
       inkscape:connector-curvature="0" />
    <path
       transform="translate(-3.2914204e-6,0)"
       style="display:inline;opacity:1;fill:none;stroke:#34a814;stroke-width:1.08635676;stroke-opacity:1"
       d="m 34.991976,215.9589 c 1.76725,-2.4332 3.04507,-4.42402 2.8396,-4.42402 -0.70079,0 -7.9786,8.26698 -7.9786,9.06302 0,1.51506 1.94354,-0.23937 5.139,-4.639 z"
       id="path4565"
       inkscape:connector-curvature="0" />
    <path
       transform="translate(-3.2914204e-6,0)"
       style="display:inline;opacity:1;fill:none;stroke:#34a814;stroke-width:1.08635676;stroke-opacity:1"
       d="m 29.885026,727.93278 c 0,-0.9752 0.45647,-2.3715 1.01438,-3.1029 0.83998,-1.10109 1.0144,-1.0249 1.0144,0.4433 0,0.9752 -0.45648,2.3714 -1.0144,3.10281 -0.83998,1.10119 -1.01438,1.02499 -1.01438,-0.44321 z"
       id="path4579"
       inkscape:connector-curvature="0" />
    <path
       transform="translate(-3.2914204e-6,0)"
       style="display:inline;opacity:1;fill:none;stroke:#34a814;stroke-width:1.08635676;stroke-opacity:1"
       d="m 9.9706063,893.68408 c 6.4181397,-8.5298 8.2930197,-11.3451 12.0837597,-18.1458 2.03837,-3.65689 4.40617,-7.7288 5.26177,-9.0488 1.54071,-2.3768 8.802,-19.9858 8.81087,-21.3668 0.0143,-2.2219 -2.23626,1.0891 -4.26012,6.2676 -3.05433,7.8152 -15.00961,28.2789 -20.84077,35.6728 -1.7235897,2.18551 -6.2877197,10.02801 -6.2877197,10.80421 0,1.7885 1.85432,0.306 5.23221,-4.18321 z"
       id="path4583"
       inkscape:connector-curvature="0" />
    <path
       transform="translate(-3.2914204e-6,0)"
       style="display:inline;opacity:1;fill:none;stroke:#34a814;stroke-width:1.08635676;stroke-opacity:1"
       d="m 40.933376,837.40608 c 0.63254,-2.9502 0.58887,-3.0069 -0.95886,-1.2457 -0.89189,1.0149 -1.94441,3.0096 -2.33895,4.4326 -0.65126,2.349 -0.56292,2.4637 0.95888,1.2457 0.92191,-0.7379 1.97445,-2.7326 2.33893,-4.4326 z"
       id="path4581"
       inkscape:connector-curvature="0" />
  </g>
</svg>
