<?xml version="1.0" encoding="UTF-8" standalone="no"?>
<svg
   xmlns:dc="http://purl.org/dc/elements/1.1/"
   xmlns:cc="http://creativecommons.org/ns#"
   xmlns:rdf="http://www.w3.org/1999/02/22-rdf-syntax-ns#"
   xmlns:svg="http://www.w3.org/2000/svg"
   xmlns="http://www.w3.org/2000/svg"
   xmlns:sodipodi="http://sodipodi.sourceforge.net/DTD/sodipodi-0.dtd"
   xmlns:inkscape="http://www.inkscape.org/namespaces/inkscape"
   version="1.1"
   id="svg6073"
   viewBox="0 0 148.52761 942.715"
   height="1130"
   width="600"
   inkscape:version="0.91 r13725"
   sodipodi:docname="rootsNotWireframe_outside.svg"
   inkscape:export-filename="C:\Users\Corypheus\Dropbox\Web Design\Andrew Web\img\rootsCentered.png"
   inkscape:export-xdpi="90"
   inkscape:export-ydpi="90">
  <sodipodi:namedview
     pagecolor="#ffffff"
     bordercolor="#666666"
     borderopacity="1"
     objecttolerance="10"
     gridtolerance="10"
     guidetolerance="10"
     inkscape:pageopacity="0"
     inkscape:pageshadow="2"
     inkscape:window-width="1366"
     inkscape:window-height="705"
     id="namedview197"
     showgrid="false"
     fit-margin-top="0"
     fit-margin-left="0"
     fit-margin-right="0"
     fit-margin-bottom="0"
     inkscape:zoom="1.7284525"
     inkscape:cx="395.02595"
     inkscape:cy="178.59624"
     inkscape:window-x="-8"
     inkscape:window-y="-8"
     inkscape:window-maximized="1"
     inkscape:current-layer="layer1"
     showguides="true"
     inkscape:guide-bbox="true">
    <inkscape:grid
       type="xygrid"
       id="grid4325"
       originx="-314.65208"
       originy="60.426726" />
    <sodipodi:guide
       position="74.263805,942.715"
       orientation="1,0"
       id="guide4338"
       inkscape:label="center"
       inkscape:color="rgb(0,0,255)" />
  </sodipodi:namedview>
  <defs
     id="defs6075" />
  <metadata
     id="metadata6078">
    <rdf:RDF>
      <cc:Work
         rdf:about="">
        <dc:format>image/svg+xml</dc:format>
        <dc:type
           rdf:resource="http://purl.org/dc/dcmitype/StillImage" />
        <dc:title />
        <cc:license
           rdf:resource="http://creativecommons.org/licenses/by-nc/3.0/" />
      </cc:Work>
      <cc:License
         rdf:about="http://creativecommons.org/licenses/by-nc/3.0/">
        <cc:permits
           rdf:resource="http://creativecommons.org/ns#Reproduction" />
        <cc:permits
           rdf:resource="http://creativecommons.org/ns#Distribution" />
        <cc:requires
           rdf:resource="http://creativecommons.org/ns#Notice" />
        <cc:requires
           rdf:resource="http://creativecommons.org/ns#Attribution" />
        <cc:prohibits
           rdf:resource="http://creativecommons.org/ns#CommercialUse" />
        <cc:permits
           rdf:resource="http://creativecommons.org/ns#DerivativeWorks" />
      </cc:License>
    </rdf:RDF>
  </metadata>
  <g
     inkscape:groupmode="layer"
     id="layer1"
     inkscape:label="roots"
     style="display:inline">
    <path
       style="display:inline;opacity:1;fill:none;stroke:#34a814;stroke-width:1.08635676;stroke-opacity:1"
       d="m 69.853206,178.35473 c -1.70741,-0.20924 -2.955212,1.81531 -4.201091,3.00311 -3.855928,3.67618 -0.312857,1.49317 -10.684582,10.81317 -1.72662,1.53064 -2.092279,2.52357 -3.16844,3.75964 -2.04566,2.34963 -4.143959,4.6532 -6.24953,6.94929 -2.20596,2.40557 -4.484371,4.74407 -6.68764,7.1521 -3.922306,4.28682 -7.982619,8.5372 -12.107324,12.67564 -2.065808,2.07269 -4.034176,4.26805 -6.32824,6.08488 -2.611783,2.06845 -5.332329,4.11198 -8.393909,5.426 -3.1434271,1.34914 -6.5546254,2.41431 -9.9753396,2.40923 -2.86416565,-0.004 -8.3463263,-2.04206 -8.3463263,-2.04206 -2.19467,-1.23935 -5.6256101,-2.30065 -6.9593301,-3.1185 -3.28259,-2.01289 -13.228147,-3.0291 -16.614127,-1.01947 -1.36951,0.81267 -4.34517,1.47757 -6.6126,1.47757 -5.01819,0 -12.45772,3.41212 -16.91227,7.75676 -2.89936,2.82781 -3.84633,3.16372 -10.46441,3.712 -6.45004,0.53434 -7.73678,0.96777 -11.32832,3.81584 -2.53578,2.01083 -5.53182,3.42484 -8.00746,3.77918 -3.46208,0.49552 -4.03722,0.93436 -4.60906,3.51666 -0.35935,1.62275 -1.22952,3.34325 -1.93371,3.8233 -0.7042,0.48005 -5.59454,1.04025 -10.867417,1.24487 -9.37822,0.36396 -9.68273,0.4453 -13.9809,3.73501 -2.2895,1.75232 -5.8815,3.71821 -9.09022,5.14701 -1.60436,0.7144 -3.11291,1.29453 -4.3149,1.64656 -1.41804,0.26314 -3.085,0.10356 -3.00135,-0.415"
       id="path4163"
       inkscape:connector-curvature="0"
       sodipodi:nodetypes="cscssssssccscsssssssssscc" />
    <path
       style="display:inline;opacity:1;fill:none;stroke:#34a814;stroke-width:1.08635676;stroke-opacity:1"
       d="m 65.428027,172.67775 c 0.0022,0.32587 -2.15445,2.71947 -4.79246,5.31911 -2.63803,2.59964 -5.65999,6.12289 -6.71552,7.82944 -1.05552,1.70655 -4.12684,4.89802 -6.82517,7.09215 -3.23082,2.62712 -6.25463,6.42633 -8.85541,11.12617 -2.17214,3.92528 -5.89626,9.04255 -8.27581,11.37174 -2.37956,2.32918 -4.99473,5.32969 -5.81148,6.66776 -1.99366,3.26614 -11.052787,7.21546 -17.2211972,9.71149 -5.95884999,2.41123 -6.92665448,1.45795 -12.5680345,-0.92287 -4.9127743,-2.07333 -13.8936183,-4.26653 -18.4718383,-4.26653 -1.43722,0 -4.30365,0.5984 -6.36986,1.32978 -2.06619,0.73138 -5.22963,1.33144 -7.02985,1.33444 -1.80024,0.003 -4.68583,0.80255 -6.41246,1.77775 -1.72662,0.97519 -4.59536,2.57103 -6.37493,3.54635 -1.7796,0.97529 -3.77084,2.76838 -4.42495,3.98463 -1.0996,2.04453 -1.73068,2.21137 -8.3651,2.21137 -6.69993,0 -7.50945,0.22046 -12.20715,3.32444 -2.76723,1.82846 -6.91965,3.72339 -9.22758,4.21098 -4.17878,0.88284 -4.72379,1.35659 -6.87485,5.97609 -1.09509,2.35171 -1.37672,2.42711 -8.744907,2.33921 -8.74779,-0.10431 -12.56846,0.90726 -14.92245,3.95085 -0.91472,1.18268 -4.69277,3.41391 -8.39572,4.95826 -3.43884,1.4342 -5.57568,2.4393 -6.6595,3.18706 -0.54191,0.37388 -0.82059,0.68342 -0.86709,0.9501"
       id="path4182"
       inkscape:connector-curvature="0"
       sodipodi:nodetypes="csssssssssscsccssssssssc" />
    <path
       style="display:inline;opacity:1;fill:none;stroke:#34a814;stroke-width:1.09020221;stroke-opacity:1"
       d="m 177.09797,247.83282 c -0.10065,0.2713 0.86267,1.20185 2.9439,2.64619 5.88698,4.08546 12.17867,4.12572 15.89812,0.10169 1.46912,-1.58942 4.00103,-2.76209 7.58186,-3.51157 2.9569,-0.6189 6.28507,-1.92707 7.3959,-2.90698 1.11082,-0.97997 3.00697,-2.67359 4.21366,-3.76366 1.76098,-1.59078 3.36683,-1.7784 8.13733,-0.9507 3.26884,0.56719 6.25732,1.41042 6.64201,1.87316 1.26288,1.52187 19.03419,4.07641 22.59411,3.24778 2.03611,-0.47393 6.57454,-3.11214 10.92524,-6.35088 4.8838,-3.63557 8.53037,-5.69222 10.60728,-5.98244 1.74073,-0.24329 4.75992,-1.75037 6.70926,-3.34907 1.34888,-1.10624 2.74462,-1.92651 4.61523,-2.6194 1.87063,-0.69285 2.73334,-0.32348 6.34531,0.14134 4.73398,0.60945 4.57796,0.67723 8.52591,3.49146 l 3.34048,0.61154"
       id="path4199"
       inkscape:connector-curvature="0"
       sodipodi:nodetypes="cssscsscsscscccc" />
    <path
       style="display:inline;opacity:1;fill:none;stroke:#34a814;stroke-width:1.09020221;stroke-opacity:1"
       d="m 177.09797,247.83282 c 0.10064,-0.27129 1.26524,0.11668 3.43982,1.30939 5.25272,2.881 10.28311,2.28987 13.61806,-1.60021 2.29806,-2.68059 3.31292,-3.1363 7.18968,-3.22836 5.28026,-0.12544 9.32681,-1.8456 9.56953,-4.06798 0.26161,-2.39548 7.09408,-5.20526 11.21009,-4.61006 1.93049,0.2792 4.8931,1.21185 6.58353,2.07269 1.69045,0.86079 7.21258,2.37998 12.27143,3.37588 l 9.19793,1.81076 6.09567,-3.54285 c 3.35261,-1.94857 7.08362,-4.72209 8.2911,-6.16337 1.49193,-1.78081 3.25549,-2.76865 5.50345,-3.08286 1.81941,-0.25426 5.07705,-1.58574 7.23922,-2.95889 2.65374,-1.68533 6.29332,-3.30364 9.98135,-4.54055 3.68803,-1.23691 7.57473,0.47285 10.23167,1.50956 4.77258,1.86219 7.73877,5.01286 6.05307,6.39531"
       id="path4756" />
    <path
       style="display:inline;opacity:1;fill:none;stroke:#34a814;stroke-width:1.08635676;stroke-opacity:1"
       d="m 180.05849,521.68212 c 0.16387,-0.18386 0.51623,-0.27354 1.05926,-0.26521 0.66378,0.0102 4.58281,1.95414 8.70892,4.31991 5.71024,3.27405 8.59281,4.31812 12.0691,4.37147 2.51188,0.0385 5.77862,0.83538 7.2594,1.77073 1.76673,1.116 5.86447,1.8986 11.91963,2.27641 5.39421,0.33657 10.54471,1.2508 12.39864,2.20079 3.24141,1.66098 15.116,15.04266 15.09713,17.01321 -0.005,0.59962 1.72542,3.16459 3.84699,5.70004 3.09622,3.70014 4.43857,4.59102 6.80206,4.51434 1.61956,-0.0526 4.15207,-0.12046 5.62782,-0.15094 1.47575,-0.0305 4.84949,1.11656 7.4972,2.54895 3.20636,1.73464 5.8872,2.47225 8.02779,2.20874 5.41946,-0.66712 10.17973,3.41312 12.02841,10.31011 0.65356,2.4383 0.78741,3.76621 0.53623,3.9078"
       id="path4211" />
    <path
       style="display:inline;opacity:1;fill:none;stroke:#34a814;stroke-width:1.08635676;stroke-opacity:1"
       d="m 180.05851,521.68212 c -0.1639,0.18386 -0.13929,0.4619 0.0716,0.83028 0.42178,0.73678 1.58872,1.83495 3.48325,3.26387 4.5379,3.42263 13.5721,7.01671 19.77904,7.86874 2.5286,0.3471 5.86373,1.431 7.41143,2.40862 1.91229,1.20792 3.88965,1.59154 6.17078,1.19712 1.84622,-0.31921 6.46959,-0.0276 10.27414,0.64799 l 6.91737,1.22837 5.83146,7.29766 c 3.2073,4.01369 6.43023,8.72364 7.16212,10.46651 0.73185,1.74289 2.38521,4.35926 3.67408,5.81416 2.74799,3.10205 9.75399,5.36228 11.49486,3.70842 1.61508,-1.53436 5.80048,-0.23836 9.89796,3.06482 3.00835,2.42523 4.07368,2.73178 7.54717,2.17176 5.04077,-0.81269 9.24787,1.97541 11.38935,7.54792 0.88656,2.30698 1.52277,3.3517 1.77395,3.21011"
       id="path14136"
       inkscape:connector-curvature="0"
       sodipodi:nodetypes="ccssssscscsssssc" />
    <path
       style="display:inline;opacity:1;fill:none;stroke:#34a814;stroke-width:1.08635676;stroke-opacity:1"
       d="m -2.6028758,477.87418 c 0.4075063,0.10872 0.2926788,1.39813 -0.6124812,3.79674 -0.8569201,2.27077 -2.9443201,4.8984 -4.8174901,6.58334 -0.936585,0.84247 -1.8196125,1.44927 -2.4684939,1.65796 -0.648881,0.20869 -1.063616,0.0193 -1.063616,-0.73071"
       id="path4187" />
    <path
       style="display:inline;opacity:1;fill:none;stroke:#34a814;stroke-width:1.08635676;stroke-opacity:1"
       d="m -11.564957,489.18151 c 0,-0.41202 1.00282,-1.50908 2.2285,-2.43791 1.22566,-0.92885 3.1210749,-3.44075 4.21206,-5.58201 1.184175,-2.32416 2.114015,-3.39613 2.5215212,-3.28741"
       id="path4573" />
    <path
       style="display:inline;opacity:1;fill:none;stroke:#34a814;stroke-width:1.09020233;stroke-opacity:1"
       d="m -69.131158,296.26548 c -0.56846,-0.1781 -1.34729,0.10233 -1.73075,0.62316 -0.38345,0.52081 -2.17503,3.00114 -3.98127,5.51183 -5.110074,7.10293 -6.728866,8.64832 -9.70012,9.2603 -1.7887,0.3688 -3.01799,1.39047 -3.49199,2.90338 -0.4023,1.28412 -1.86005,2.98173 -3.23944,3.77245 -1.37936,0.79069 -3.21823,2.58094 -4.08634,3.97826 -1.37413,2.21185 -0.65934,5.35484 -0.97673,8.03372 -0.31342,2.64538 -0.037,5.4243 -0.91598,7.93898 -0.63288,1.81067 -2.932622,4.52337 -3.045112,4.88253 -0.11249,0.35915 -2.4691,1.61039 -5.23683,2.78055 -2.76782,1.17001 -5.26839,2.82925 -5.557,3.68686 -1.00711,2.99296 -5.40653,6.14371 -9.24945,6.62432 -4.19285,0.52436 -5.48916,1.79619 -7.15752,7.02229 -1.23232,3.86059 -6.15086,6.7335 -11.85882,6.92693 -2.78241,0.0943 -3.97872,-1.47179 -5.976,-2.18579 -1.17628,-0.42048 -2.17052,-0.19793 -2.49959,0.38063"
       id="path4171" />
    <path
       style="display:inline;opacity:1;fill:none;stroke:#34a814;stroke-width:1.09020233;stroke-opacity:1"
       d="m -69.131158,296.26548 c 1.60462,0.50273 -0.5393,5.98721 -2.59745,6.64462 -1.00885,0.32228 -2.04394,1.2552 -2.30023,2.07318 -0.74688,2.38391 -5.646414,7.80351 -8.193506,9.06326 -2.592274,1.28205 -9.526134,8.857 -10.264384,11.21337 -0.25882,0.82674 0.0703,2.66936 0.005,4.00163 -0.09397,1.91794 -0.26109,3.83725 -0.57002,5.73247 -0.34495,2.11611 -0.41698,4.38127 -1.42915,6.27137 -0.92949,1.73572 -2.52341,3.06104 -4.06606,4.28452 -1.618522,1.28364 -3.031882,2.11084 -5.348662,3.13015 -2.51505,1.10654 -4.48399,2.72035 -4.88653,4.00517 -0.89617,2.86048 -6.27653,6.34577 -9.34853,6.05582 -2.49541,-0.23554 -6.04036,2.68657 -5.43323,4.47862 1.28216,3.78445 -7.38442,9.13052 -15.38931,9.49302 -3.99046,0.18074 -5.2897,-0.37064 -7.38921,-1.79007 l -1.5e-4,3e-5 c -1.48452,-1.0036 -1.82058,-1.93819 -1.49152,-2.51676"
       id="path4799"
       inkscape:connector-curvature="0"
       sodipodi:nodetypes="ccccccssssssssccc" />
    <path
       style="display:inline;opacity:1;fill:none;stroke:#34a814;stroke-width:1.08635676;stroke-opacity:1"
       d="m 125.8933,220.59025 c 0.37946,0.73391 1.11809,1.61267 2.25262,2.70736 2.49124,2.40375 4.70581,3.41051 9.96281,4.52924 3.71775,0.79116 8.13334,1.43845 9.81241,1.43845 3.67358,0 11.19728,2.79878 14.9023,5.54355 1.47877,1.09554 4.84974,4.78442 7.49107,8.19751 7.27913,9.40609 10.09546,11.58733 17.13788,13.27318 17.06248,4.08453 24.2104,6.19474 26.76352,7.90117 1.54306,1.03135 4.52715,2.87251 6.63131,4.09147 2.71501,1.57283 4.84276,4.05963 7.32876,8.56543 2.44812,4.43713 4.23267,6.5377 5.92596,6.97538 1.33263,0.34445 3.12931,1.12441 3.99261,1.73329 0.86332,0.60887 3.59155,1.36705 6.06273,1.68486 4.51349,0.58043 7.53406,1.68762 10.95298,4.0148 1.45017,0.98709 2.62077,1.05161 5.49947,0.30313 3.68188,-0.95731 4.3398,-0.8666 17.77277,2.45033 5.89296,1.45512 9.94119,4.92351 9.94119,8.51733 0,1.58656 0.4709,3.1312 1.04644,3.43255 1.64811,0.86292 1.22235,7.16275 -0.71695,10.608 -1.70689,3.03238 -1.67535,3.35973 0.98424,10.21703 1.51118,3.89639 4.47529,9.2894 6.5869,11.98454 2.11162,2.6951 4.24743,6.38884 4.74624,8.20831 1.17978,4.30339 1.20666,9.957 0.0474,9.957"
       id="path4203" />
    <path
       style="display:inline;opacity:1;fill:none;stroke:#34a814;stroke-width:1.08635676;stroke-opacity:1"
       d="m 124.35076,228.70034 c 0.22554,-0.19109 2.60959,0.694 5.29785,1.96689 3.0848,1.46065 7.67903,2.61105 12.45481,3.11873 14.97206,1.59157 19.87208,4.15239 28.669,14.98277 3.55724,4.37955 11.57597,10.49148 15.90261,12.12113 1.51809,0.57179 5.08501,1.31762 7.92647,1.6574 2.84149,0.33978 9.51605,2.3281 14.83239,4.41849 10.05463,3.9535 13.95019,7.20493 15.62718,13.04325 0.38366,1.3356 2.28809,3.61149 4.23211,5.0575 3.40771,2.53477 5.27822,3.13182 16.64978,5.31457 2.87772,0.55235 6.57987,1.83279 8.22702,2.84539 2.24032,1.37723 3.92938,1.71263 6.70431,1.33113 2.33054,-0.3204 6.27423,0.15556 10.60889,1.28033 11.64821,3.02255 13.7013,4.02196 13.7013,6.66971 0,1.29217 0.55031,3.90552 1.22294,5.80746 1.02289,2.89233 0.93731,3.96552 -0.52322,6.56019 -0.9604,1.70619 -1.74617,4.10783 -1.74617,5.33698 0,3.30984 5.35951,13.36905 10.30962,19.35011 2.79569,3.3779 4.34503,6.21759 4.35203,7.97867 0.0181,4.30014 1.21979,9.38312 2.21828,9.38312"
       id="path4178"
       inkscape:connector-curvature="0"
       sodipodi:nodetypes="csssssscsssssssssscc" />
    <path
       style="display:inline;opacity:1;fill:none;stroke:#34a814;stroke-width:1.08635676;stroke-opacity:1"
       d="m 121.7158,471.5306 c 0.71751,1.11078 0.94532,0.0291 3.36195,2.10603 2.89628,2.06463 3.48883,2.17412 6.34393,1.17223 2.67102,-0.93729 3.81899,-0.8615 7.55967,0.49916 7.50382,2.72948 14.15218,10.39493 11.80554,13.61158 -1.11119,1.52318 1.38916,5.35789 3.8322,5.87734 3.00754,0.63948 7.08538,5.55651 7.08538,8.54351 0,1.34165 1.39149,3.4628 3.4534,5.26426 1.89936,1.65945 3.76845,3.71591 4.15351,4.5699 0.38507,0.854 2.32319,2.20844 4.30694,3.00986 2.7318,1.10362 3.76592,2.17563 4.26267,4.41885 0.76871,3.47138 -0.10741,5.02207 -5.13864,9.0951 -2.04205,1.65314 -3.71281,3.71205 -3.71281,4.57535 0,2.46062 4.33671,11.7293 6.41975,13.72067 2.04672,1.9567 5.0911,8.56982 5.0911,11.05917 0,0.85417 0.70635,2.04966 1.56966,2.65665 1.76123,1.23829 2.16598,7.09217 0.49038,7.09217"
       id="path4207" />
    <path
       style="display:inline;opacity:1;fill:none;stroke:#34a814;stroke-width:1.08635676;stroke-opacity:1"
       d="m 120.16148,475.3016 c 0.79326,-0.39598 1.90527,0.1767 3.50175,1.63532 2.97564,2.71868 3.59743,2.79209 7.85388,0.92737 2.66431,-1.16721 3.71604,-1.21671 6.33373,-0.29813 5.37005,1.88442 9.1912,6.08156 9.2129,10.1197 0.0295,5.46651 0.88327,7.06208 4.71402,8.8098 3.51104,1.60187 6.75579,5.90854 6.82179,9.05458 0.019,0.90148 1.90253,3.22408 4.18577,5.16133 2.28322,1.93725 4.15133,3.82911 4.15133,4.20414 0,0.375 1.41269,1.74821 3.13933,3.05151 4.19348,3.16543 3.95945,5.40497 -1.13086,10.82112 -3.71758,3.95553 -4.17389,4.91697 -3.52616,7.42959 0.40919,1.58733 1.62444,3.83749 2.70051,5.0003 1.07608,1.16283 1.95651,3.21136 1.95651,4.55227 0,1.57983 0.86438,2.91786 2.45557,3.80112 2.64302,1.46712 3.72193,3.41889 6.46501,11.6954 0.96959,2.92551 1.93427,5.81778 2.14375,6.42726 0.20946,0.60947 0.86651,1.10815 1.46012,1.10815"
       id="path4174"
       inkscape:connector-curvature="0"
       sodipodi:nodetypes="cssscscsscsssssscc" />
    <path
       style="display:inline;opacity:1;fill:none;stroke:#34a814;stroke-width:1.08635676;stroke-opacity:1"
       d="m 53.271363,710.64889 c -2.1729,0.01 -7.72388,3.6495 -7.74517,5.0812 -0.0463,3.1077 -3.66366,5.7707 -8.72245,6.4211 -2.67192,0.3435 -4.85803,0.2889 -4.85803,-0.1214"
       id="path4195" />
    <path
       id="path4170"
       style="display:inline;opacity:1;fill:none;stroke:#34a814;stroke-width:1.08635676;stroke-opacity:1"
       d="m 54.658528,704.33281 c -0.612873,0.82025 -1.282726,1.59196 -2.011076,2.31791 -1.449515,1.43685 -3.186274,2.72938 -5.084179,3.82887 -2.18255,1.2486 -3.92515,3.1548 -4.45747,4.8758 -1.26642,4.0944 -3.63607,5.9285 -7.65972,5.9285 -1.92519,0 -3.50037,0.3357 -3.50037,0.7459"
       inkscape:connector-curvature="0"
       sodipodi:nodetypes="cccssc" />
    <path
       id="path4183"
       style="display:inline;opacity:1;fill:none;stroke:#34a814;stroke-width:1.08635676;stroke-opacity:1"
       d="m 57.894363,572.35019 c -3.34624,-0.008 -6.48403,2.72269 -9.84887,8.57007 -2.05633,3.57348 -4.196848,6.73706 -4.7567,7.03019 -0.582925,0.30521 -0.99886,0.41302 -1.250851,0.34078 m -2.541389,1.78768 c 1.2298,0 0.99817,1.28226 -0.74239,4.10962 -0.85977,1.39661 -1.56612,3.81525 -1.56967,5.37478 -0.006,2.89003 -3.11734,6.55126 -6.44591,7.58656 -0.95177,0.29603 -3.27513,3.19635 -5.16302,6.44514 -3.48775,6.00193 -5.69186,7.51208 -10.96409,7.51208 -1.40138,0 -2.54799,-0.39893 -2.54799,-0.88651" />
    <path
       id="path4166"
       style="display:inline;opacity:1;fill:none;stroke:#34a814;stroke-width:1.08635676;stroke-opacity:1"
       d="m 60.8241,562.61151 c -0.476455,1.19695 -1.03112,2.28346 -1.717086,3.34139 -0.685965,1.05794 -1.503232,2.08731 -2.504891,3.17 -1.00166,1.08269 -2.462525,1.83395 -3.886062,3.10515 -2.653927,2.36992 -4.785978,5.16072 -5.073728,5.73154 -0.28777,0.57079 -1.875393,2.95075 -3.52807,5.28883 -1.408515,1.99265 -2.197808,3.47337 -2.343509,4.30332 -0.07285,0.41497 0.0152,0.66729 0.267188,0.73949 m -2.541389,1.78768 c -1.34069,0 -4.41138,4.98816 -4.41138,7.16599 0,4.28699 -2.24789,7.46002 -6.33161,8.93751 -3.23967,1.17208 -4.20494,2.10764 -5.10888,4.95159 -1.427,4.48955 -5.46105,8.20005 -8.91514,8.20005 -1.46633,0 -2.66606,0.39893 -2.66606,0.88654 l 0,-10e-6" />
    <path
       style="display:inline;opacity:1;fill:none;stroke:#34a814;stroke-width:1.08635676;stroke-opacity:1"
       d="m 95.947117,418.7369 c -0.522961,-0.226 -1.07608,0.79949 -1.439892,1.36213 -0.519085,0.80277 -1.383094,1.8131 -2.562352,3.87834 -3.970575,6.95371 -9.75218,11.50967 -20.46153,16.12383 -6.81676,2.93702 -9.65107,4.73928 -12.1201,7.70681 -2.41138,2.89823 -4.13969,4.01904 -6.86546,4.45226 -2.03937,0.32411 -4.7948,1.67426 -6.25994,3.06735 -1.43942,1.36862 -4.07068,2.75886 -5.84723,3.08943 -1.77655,0.33056 -3.75744,1.4662 -4.40199,2.52363 -1.68879,2.7706 -13.89301,12.0434 -18.42957,14.00281 -3.47473,1.5008 -17.00652999,2.98509 -17.00652999,1.86545"
       id="path4179" />
    <path
       style="display:inline;opacity:1;fill:none;stroke:#34a814;stroke-width:1.08635676;stroke-opacity:1"
       d="m 94.772682,411.85876 c -0.10623,0.94272 -0.288536,1.88052 -0.500716,2.79843 -0.173276,0.74962 -0.434209,1.48967 -0.808277,2.16199 -1.328299,2.38739 -2.708016,3.46889 -5.010196,6.48645 -2.30215,3.01757 -4.19955,5.77221 -4.21625,6.12145 -0.05517,1.14804 -12.18815,8.13716 -18.11967,10.4377 -3.90021,1.51268 -6.54879,3.264 -8.05147,5.32379 -2.40714,3.29962 -4.94471,4.82019 -8.04409,4.82019 -1.06901,0 -3.691,1.39626 -5.82663,3.10282 -2.13564,1.70656 -4.66889,3.10282 -5.62944,3.10282 -2.10121,0 -5.57378,2.50547 -5.57378,4.02152 0,0.59795 -1.60738,2.12579 -3.57197,3.39526 -1.96456,1.26946 -4.20133,2.83932 -4.97058,3.48857 -5.04827,4.26081 -10.82106,6.82633 -15.42098,6.85323 -4.19567,0.0246 -8.47610999,1.45674 -8.47610999,2.83596"
       id="path4162"
       inkscape:connector-curvature="0"
       sodipodi:nodetypes="cssscsssssssscc" />
    <path
       style="display:inline;opacity:1;fill:none;stroke:#34a814;stroke-width:1.08635676;stroke-opacity:1"
       d="m 64.329597,298.82831 c -1.27957,-0.66996 -4.596375,2.58408 -5.559152,3.38456 -5.27639,4.38692 -21.149599,14.73664 -28.416388,17.57513 -2.491043,0.97303 -5.2138,1.74002 -5.77403,2.62685 -0.56023,0.88683 -3.29156,2.69485 -6.06962,4.01783 -5.22499,2.48824 -8.5398,6.88515 -8.5398,11.32755 0,2.91113 -4.52364,11.27515 -7.20286,13.3178 -1.21831,0.92884 -2.21509999,2.25991 -2.21509999,2.95791 0,0.69801 -2.76617001,3.72792 -6.14701001,6.73314 -3.38085,3.00521 -6.92468,6.76055 -7.87517,8.34522 -0.95049,1.58463 -2.14303,2.88117 -2.6501,2.88117 -0.50703,0 -1.25211,3.88962 -1.65571,8.64358 -0.85243,10.04056 -2.41456,13.44978 -7.00711,15.29246 -5.33273,2.13965 -7.46022,5.35656 -7.2443,10.95395 0.17723,4.5952 -0.0142,4.98319 -3.76092,7.62627 -3.13397,2.21081 -4.81035,2.75111 -8.13339,2.62147 -7.52125,-0.29346 -8.73079,-0.03 -9.08358,1.97892 -0.1839,1.04728 -1.04073,2.17964 -1.90405,2.51636 -6.40164,2.49689 -8.08365,3.59882 -11.16559,7.31493 -4.61716,5.56723 -7.66916,12.58383 -7.6698,17.63311 -2.9e-4,2.25647 -0.68822,5.49701 -1.5287,7.20117 -0.84049,1.70417 -1.21432,3.36439 -0.83072,3.68935 0.74114,0.62788 -1.224637,4.2593 -6.38455,11.79407 -1.48821,2.17316 -2.96489,3.83178 -4.069517,4.69434 -0.647425,0.54755 -1.473211,0.76772 -1.705478,0.47864"
       id="path4175" />
    <path
       style="display:inline;opacity:1;fill:none;stroke:#34a814;stroke-width:1.08635676;stroke-opacity:1"
       d="m 69.488864,287.00389 c -1.047597,1.61819 -2.790692,3.09391 -6.247447,5.99987 -6.136431,5.15867 -13.40003,10.21361 -18.60176,12.94551 -0.92842,0.48758 -4.36609,2.68171 -7.6393,4.87585 -3.2732,2.19414 -10.03293,6.18349 -15.02163,8.8652 -12.39759,6.66445 -15.14745,9.4286 -15.14745,15.22622 0,4.83089 -2.56948,10.21222 -6.92792999,14.5093 -1.36951001,1.35024 -2.49002001,2.76652 -2.49002001,3.14731 0,0.38079 -3.28199,3.92042 -7.29333,7.86586 -8.16009,8.02604 -10.49616,12.81398 -10.49616,21.51263 0,5.62795 -2.07927,10.14075 -5.1346,11.14393 -1.03714,0.34055 -3.87976,2.57938 -6.31699,4.97521 -4.05775,3.98886 -4.37949,4.66144 -3.81684,7.97868 0.33792,1.99244 0.26212,4.03078 -0.16848,4.52963 -2.0191,2.33912 -6.80664,3.96885 -11.65897,3.96885 -5.28914,0 -8.48309,1.51951 -8.48309,4.03578 0,0.68726 -1.29496,1.51481 -2.8777,1.839 -4.78995,0.98111 -8.34237,3.668 -11.61284,8.78352 -4.45266,6.96462 -6.43827,12.45586 -6.43827,17.80528 0,2.56611 -0.4709,4.91217 -1.04643,5.21353 -0.57554,0.30133 -1.04643,2.2597 -1.04643,4.35191 0,2.789 -0.808222,4.74921 -3.02903,7.34643 -1.721415,2.01318 -3.31865,4.16678 -4.485531,5.98397 -0.583441,0.9086 -1.059293,1.7331 -1.389285,2.4139 -0.189813,0.44931 -0.426054,0.92836 -0.514124,1.55217 0,0.25277 -0.01822,0.37418 0.131725,0.56066"
       id="path4158"
       inkscape:connector-curvature="0"
       sodipodi:nodetypes="cscssssssscscsssssscsssccc" />
    <path
       style="display:inline;opacity:1;fill:none;stroke:#34a814;stroke-width:1.08635676;stroke-opacity:1"
       d="m 93.064605,205.9118 c -0.726453,0.25382 -1.983794,1.61207 -3.965372,3.0915 -3.963156,2.95887 -11.134176,8.88981 -24.303516,19.8762 -18.273952,15.24486 -22.483593,16.79748 -33.557273,17.4379 -3.66302,0.21185 -5.72577,-0.15292 -8.568737,-0.46941 -2.297328,-0.25574 -4.577657,-0.66939 -6.838078,-1.15273 -2.650311,-0.56671 -5.166968,-1.83709 -7.8691691,-2.04547 -2.4181264,-0.18647 -5.3381725,1.15615 -7.23928701,0.72917 -2.87184309,-0.64501 -6.94572129,0.30162 -8.47004129,0.87341 -2.9908296,1.12189 -10.5364146,8.61989 -10.5364146,10.32549 0,0.57157 -1.4207,2.55372 -3.15708,4.40477 -1.94768,2.0763 -2.93217,3.96588 -2.56996,4.93269 1.64651,4.39491 -5.76628,11.44901 -12.03116,11.44901 -5.46398,0 -7.35636,1.37109 -7.35636,5.32988 0,2.84951 -0.53112,3.77735 -2.87772,5.02733 -1.58273,0.8431 -4.4245,2.64748 -6.31504,4.00978 -1.89055,1.36229 -4.24503,2.47838 -5.23221,2.48021 -0.98717,0.002 -3.37431,0.81909 -5.30476,1.81613 -1.93043,0.99707 -4.494726,1.67015 -4.692582,1.29595"
       id="path4167" />
    <path
       style="display:inline;opacity:1;fill:none;stroke:#34a814;stroke-width:1.08635676;stroke-opacity:1"
       d="m 91.359886,197.7609 c 0.789246,2.08765 -1.433815,2.84861 -2.510021,3.99566 -1.287929,1.37271 -3.118953,2.11634 -4.580786,3.30215 -4.039711,3.27692 -9.413546,7.58918 -11.540206,10.50432 -1.2295,1.68534 -2.8862,3.06424 -3.68159,3.06424 -0.7954,0 -3.89069,2.49335 -6.87843,5.54075 -2.98774,3.04741 -7.12526,6.49236 -9.19449,7.65546 -2.06923,1.16308 -5.46966,3.48958 -7.5565,5.16994 -2.79714,2.25234 -5.723261,3.94355 -11.44007,4.75583 -3.855067,0.54775 -9.257987,0.87482 -13.851164,0.38832 -2.054466,-0.2176 -4.006282,-1.01302 -6.021592,-1.46768 -2.023186,-0.45643 -4.020964,-1.15706 -6.0921979,-1.26477 -2.4973522,-0.12987 -5.0147484,1.15338 -7.46411075,0.75482 -2.44936245,-0.39878 -4.52860135,-0.61253 -6.79794135,-0.002 -4.122647,1.10914 -11.65225,7.25273 -14.35631,11.7136 -1.18224,1.95036 -3.26241,4.67377 -4.62262,6.05204 -1.85202,1.8766 -2.47309,3.58389 -2.47309,6.79822 0,3.89656 -0.31355,4.45182 -3.40094,6.02286 -1.87051,0.95182 -5.22519,1.96464 -7.45486,2.25073 -5.62496,0.72167 -7.98013,2.77603 -7.98013,6.96089 0,2.73593 -0.47677,3.5883 -2.35449,4.20931 -1.29497,0.42826 -3.97728,2.21359 -5.9607,3.9674 -1.98343,1.75378 -4.28232,3.1887 -5.10868,3.1887 -2.09597,0 -8.315007,3.15394 -7.859122,4.00192"
       id="path4154"
       inkscape:connector-curvature="0"
       sodipodi:nodetypes="cssssssssssscssssscscssc" />
  </g>
</svg>
