<?xml version="1.0" encoding="UTF-8" standalone="no"?>
<!-- Created with Inkscape (http://www.inkscape.org/) -->

<svg
   xmlns:dc="http://purl.org/dc/elements/1.1/"
   xmlns:cc="http://creativecommons.org/ns#"
   xmlns:rdf="http://www.w3.org/1999/02/22-rdf-syntax-ns#"
   xmlns:svg="http://www.w3.org/2000/svg"
   xmlns="http://www.w3.org/2000/svg"
   xmlns:sodipodi="http://sodipodi.sourceforge.net/DTD/sodipodi-0.dtd"
   xmlns:inkscape="http://www.inkscape.org/namespaces/inkscape"
   width="96.449043"
   height="93.055099"
   viewBox="0 0 96.449039 93.055098"
   id="svg4909"
   version="1.1"
   inkscape:version="0.91 r13725"
   sodipodi:docname="rootIntro2.svg">
  <defs
     id="defs4911" />
  <sodipodi:namedview
     id="base"
     pagecolor="#ffffff"
     bordercolor="#666666"
     borderopacity="1.0"
     inkscape:pageopacity="0.0"
     inkscape:pageshadow="2"
     inkscape:zoom="5.7600283"
     inkscape:cx="48.22452"
     inkscape:cy="46.527549"
     inkscape:document-units="px"
     inkscape:current-layer="layer1"
     showgrid="false"
     fit-margin-top="0"
     fit-margin-left="0"
     fit-margin-right="0"
     fit-margin-bottom="0"
     inkscape:window-width="1366"
     inkscape:window-height="705"
     inkscape:window-x="-8"
     inkscape:window-y="-8"
     inkscape:window-maximized="1"
     units="px" />
  <metadata
     id="metadata4914">
    <rdf:RDF>
      <cc:Work
         rdf:about="">
        <dc:format>image/svg+xml</dc:format>
        <dc:type
           rdf:resource="http://purl.org/dc/dcmitype/StillImage" />
        <dc:title></dc:title>
      </cc:Work>
    </rdf:RDF>
  </metadata>
  <g
     inkscape:label="Layer 1"
     inkscape:groupmode="layer"
     id="layer1"
     transform="translate(585.36738,-608.6918)">
    <path
       style="display:inline;opacity:1;fill:none;stroke:#34a814;stroke-width:1.30678797;stroke-opacity:1"
       d="m -584.58245,695.89443 c -0.39444,0.6935 0.008,1.81376 1.78783,3.01675"
       id="path4138"
       inkscape:connector-curvature="0" />
    <path
       style="display:inline;opacity:1;fill:none;stroke:#34a814;stroke-width:1.30678797;stroke-opacity:1"
       d="m -490.24394,609.42221 c 1.9234,0.60261 -0.64644,7.17667 -3.11348,7.96468 -1.20927,0.38631 -2.45,1.50457 -2.7572,2.48505 -0.89526,2.85751 -6.76817,9.3538 -9.82128,10.86382 -3.10727,1.53675 -11.41865,10.61658 -12.30356,13.44108 -0.31023,0.99098 0.0843,3.19967 0.006,4.79661 -0.11264,2.29897 -0.31296,4.59958 -0.68327,6.87132 -0.41347,2.53651 -0.49981,5.25167 -1.71307,7.51727 -1.11415,2.08055 -3.02472,3.66917 -4.87384,5.13571 -1.94007,1.53865 -3.63421,2.53019 -6.41126,3.752 -3.01471,1.32637 -5.37481,3.26079 -5.85732,4.80086 -1.07421,3.42876 -7.52346,7.60646 -11.20576,7.2589 -2.99117,-0.28233 -7.24037,3.2203 -6.51263,5.36837 1.53688,4.53629 -8.85145,10.94444 -18.44664,11.37896 -4.78322,0.21664 -6.34058,-0.44428 -8.85719,-2.1457 l -1.8e-4,4e-5"
       id="path4136"
       inkscape:connector-curvature="0" />
    <path
       style="display:inline;opacity:1;fill:none;stroke:#34a814;stroke-width:1.30678797;stroke-opacity:1"
       d="m -490.24394,609.42221 c -0.6814,-0.21348 -1.61495,0.12266 -2.07459,0.74696 -0.45963,0.62428 -2.60714,3.59737 -4.77221,6.60685 -6.12527,8.51403 -8.06566,10.36644 -11.6272,11.1 -2.14406,0.44207 -3.61757,1.66671 -4.18573,3.48018 -0.48223,1.53923 -2.22958,3.5741 -3.88301,4.5219 -1.65339,0.94778 -3.85758,3.09369 -4.89815,4.76861 -1.64713,2.65127 -0.79033,6.41866 -1.17078,9.62974 -0.37568,3.17093 -0.0444,6.50192 -1.09795,9.51618 -0.75861,2.17039 -3.51523,5.42201 -3.65007,5.85252 -0.13484,0.4305 -2.95962,1.93032 -6.27721,3.33295 -3.31769,1.40245 -6.31504,3.39133 -6.66099,4.41931 -1.20719,3.58756 -6.48062,7.36426 -11.087,7.94035 -5.02582,0.62853 -6.57966,2.15303 -8.57947,8.41737 -1.47714,4.62756 -7.37282,8.07122 -14.21476,8.30308 -3.33518,0.11303 -4.76915,-1.76419 -7.16322,-2.62003 -1.40996,-0.50402 -2.60173,-0.23726 -2.99617,0.45625"
       id="path4799"
       inkscape:connector-curvature="0" />
  </g>
</svg>
