<?xml version="1.0" encoding="UTF-8" standalone="no"?>
<svg
   xmlns:dc="http://purl.org/dc/elements/1.1/"
   xmlns:cc="http://creativecommons.org/ns#"
   xmlns:rdf="http://www.w3.org/1999/02/22-rdf-syntax-ns#"
   xmlns:svg="http://www.w3.org/2000/svg"
   xmlns="http://www.w3.org/2000/svg"
   xmlns:sodipodi="http://sodipodi.sourceforge.net/DTD/sodipodi-0.dtd"
   xmlns:inkscape="http://www.inkscape.org/namespaces/inkscape"
   version="1.1"
   id="svg6073"
   viewBox="0 0 148.52761 942.715"
   height="1130"
   width="600"
   inkscape:version="0.91 r13725"
   sodipodi:docname="rootsNotWireframe_outside.svg"
   inkscape:export-filename="C:\Users\Corypheus\Dropbox\Web Design\Andrew Web\img\rootsCentered.png"
   inkscape:export-xdpi="90"
   inkscape:export-ydpi="90">
  <sodipodi:namedview
     pagecolor="#ffffff"
     bordercolor="#666666"
     borderopacity="1"
     objecttolerance="10"
     gridtolerance="10"
     guidetolerance="10"
     inkscape:pageopacity="0"
     inkscape:pageshadow="2"
     inkscape:window-width="1366"
     inkscape:window-height="705"
     id="namedview197"
     showgrid="false"
     fit-margin-top="0"
     fit-margin-left="0"
     fit-margin-right="0"
     fit-margin-bottom="0"
     inkscape:zoom="0.81369392"
     inkscape:cx="316.01455"
     inkscape:cy="639.6059"
     inkscape:window-x="-8"
     inkscape:window-y="-8"
     inkscape:window-maximized="1"
     inkscape:current-layer="layer1"
     showguides="true"
     inkscape:guide-bbox="true">
    <inkscape:grid
       type="xygrid"
       id="grid4325"
       originx="-314.65208"
       originy="60.426726" />
    <sodipodi:guide
       position="74.263805,942.715"
       orientation="1,0"
       id="guide4338"
       inkscape:label="center"
       inkscape:color="rgb(0,0,255)" />
  </sodipodi:namedview>
  <defs
     id="defs6075" />
  <metadata
     id="metadata6078">
    <rdf:RDF>
      <cc:Work
         rdf:about="">
        <dc:format>image/svg+xml</dc:format>
        <dc:type
           rdf:resource="http://purl.org/dc/dcmitype/StillImage" />
        <dc:title />
        <cc:license
           rdf:resource="http://creativecommons.org/licenses/by-nc/3.0/" />
      </cc:Work>
      <cc:License
         rdf:about="http://creativecommons.org/licenses/by-nc/3.0/">
        <cc:permits
           rdf:resource="http://creativecommons.org/ns#Reproduction" />
        <cc:permits
           rdf:resource="http://creativecommons.org/ns#Distribution" />
        <cc:requires
           rdf:resource="http://creativecommons.org/ns#Notice" />
        <cc:requires
           rdf:resource="http://creativecommons.org/ns#Attribution" />
        <cc:prohibits
           rdf:resource="http://creativecommons.org/ns#CommercialUse" />
        <cc:permits
           rdf:resource="http://creativecommons.org/ns#DerivativeWorks" />
      </cc:License>
    </rdf:RDF>
  </metadata>
  <g
     inkscape:groupmode="layer"
     id="layer1"
     inkscape:label="roots"
     style="display:inline">
    <path
       style="display:inline;opacity:1;fill:none;stroke:#34a814;stroke-width:1.08635676;stroke-opacity:1"
       d="m 69.853206,178.35473 c -1.70741,-0.20924 -2.955212,1.81531 -4.201091,3.00311 -3.855928,3.67618 -0.312857,1.49317 -10.684582,10.81317 -1.72662,1.53064 -2.092279,2.52357 -3.16844,3.75964 -2.04566,2.34963 -4.143959,4.6532 -6.24953,6.94929 -2.20596,2.40557 -4.484371,4.74407 -6.68764,7.1521 -3.922306,4.28682 -7.982619,8.5372 -12.107324,12.67564 -2.065808,2.07269 -4.034176,4.26805 -6.32824,6.08488 -2.611783,2.06845 -5.332329,4.11198 -8.393909,5.426 -3.1434271,1.34914 -6.5546254,2.41431 -9.9753396,2.40923 -2.86416565,-0.004 -8.3463263,-2.04206 -8.3463263,-2.04206 -2.19467,-1.23935 -5.6256101,-2.30065 -6.9593301,-3.1185 -3.28259,-2.01289 -13.228147,-3.0291 -16.614127,-1.01947 -1.36951,0.81267 -4.34517,1.47757 -6.6126,1.47757 -5.01819,0 -12.45772,3.41212 -16.91227,7.75676 -2.89936,2.82781 -3.84633,3.16372 -10.46441,3.712 -6.45004,0.53434 -7.73678,0.96777 -11.32832,3.81584 -2.53578,2.01083 -5.53182,3.42484 -8.00746,3.77918 -3.46208,0.49552 -4.03722,0.93436 -4.60906,3.51666 -0.35935,1.62275 -1.22952,3.34325 -1.93371,3.8233 -0.7042,0.48005 -5.59454,1.04025 -10.867417,1.24487 -9.37822,0.36396 -9.68273,0.4453 -13.9809,3.73501 -2.2895,1.75232 -5.8815,3.71821 -9.09022,5.14701 -1.60436,0.7144 -3.11291,1.29453 -4.3149,1.64656 -1.41804,0.26314 -3.085,0.10356 -3.00135,-0.415"
       id="path4163"
       inkscape:connector-curvature="0"
       sodipodi:nodetypes="cscssssssccscsssssssssscc" />
    <path
       style="display:inline;opacity:1;fill:none;stroke:#34a814;stroke-width:1.08635676;stroke-opacity:1"
       d="m -130.98529,269.68752 c 0.0465,-0.26668 0.32518,-0.57622 0.86709,-0.9501 1.08382,-0.74776 3.22066,-1.75286 6.6595,-3.18706 3.70295,-1.54435 7.481,-3.77558 8.39572,-4.95826 2.35399,-3.04359 6.17466,-4.05516 14.92245,-3.95085 7.368187,0.0879 7.649817,0.0125 8.744907,-2.33921 2.15106,-4.6195 2.69607,-5.09325 6.87485,-5.97609 2.30793,-0.48759 6.46035,-2.38252 9.22758,-4.21098 4.6977,-3.10398 5.50722,-3.32444 12.20715,-3.32444 6.63442,0 7.2655,-0.16684 8.3651,-2.21137 0.65411,-1.21625 2.64535,-3.00934 4.42495,-3.98463 1.77957,-0.97532 4.64831,-2.57116 6.37493,-3.54635 1.72663,-0.9752 4.61222,-1.77518 6.41246,-1.77775 1.80022,-0.003 4.96366,-0.60306 7.02985,-1.33444 2.06621,-0.73138 4.93264,-1.32978 6.36986,-1.32978 4.57822,0 13.559064,2.1932 18.4718383,4.26653 5.64138002,2.38082 6.60918451,3.3341 12.5680345,0.92287 6.1684102,-2.49603 15.2275372,-6.44535 17.2211972,-9.71149 0.81675,-1.33807 3.43192,-4.33858 5.81148,-6.66776 2.37955,-2.32919 6.10367,-7.44646 8.27581,-11.37174 2.60078,-4.69984 5.62459,-8.49905 8.85541,-11.12617 2.69833,-2.19413 5.76965,-5.3856 6.82517,-7.09215 1.05553,-1.70655 4.07749,-5.2298 6.71552,-7.82944 2.63801,-2.59964 4.79462,-4.99324 4.79246,-5.31911"
       id="path4182" />
    <path
       style="display:inline;opacity:1;fill:none;stroke:#34a814;stroke-width:1.09020221;stroke-opacity:1"
       d="m 303.57357,230.51128 -3.34048,-0.61154 c -3.94795,-2.81423 -3.79193,-2.88201 -8.52591,-3.49146 -3.61197,-0.46482 -4.47468,-0.83419 -6.34531,-0.14134 -1.87061,0.69289 -3.26635,1.51316 -4.61523,2.6194 -1.94934,1.5987 -4.96853,3.10578 -6.70926,3.34907 -2.07691,0.29022 -5.72348,2.34687 -10.60728,5.98244 -4.3507,3.23874 -8.88913,5.87695 -10.92524,6.35088 -3.55992,0.82863 -21.33123,-1.72591 -22.59411,-3.24778 -0.38469,-0.46274 -3.37317,-1.30597 -6.64201,-1.87316 -4.7705,-0.8277 -6.37635,-0.64008 -8.13733,0.9507 -1.20669,1.09007 -3.10284,2.78369 -4.21366,3.76366 -1.11083,0.97991 -4.439,2.28808 -7.3959,2.90698 -3.58083,0.74948 -6.11274,1.92215 -7.58186,3.51157 -3.71945,4.02403 -10.01114,3.98377 -15.89812,-0.10169 -2.08123,-1.44434 -3.04455,-2.37489 -2.9439,-2.64619"
       id="path4199" />
    <path
       style="display:inline;opacity:1;fill:none;stroke:#34a814;stroke-width:1.09020221;stroke-opacity:1"
       d="m 177.09797,247.83282 c 0.10064,-0.27129 1.26524,0.11668 3.43982,1.30939 5.25272,2.881 10.28311,2.28987 13.61806,-1.60021 2.29806,-2.68059 3.31292,-3.1363 7.18968,-3.22836 5.28026,-0.12544 9.32681,-1.8456 9.56953,-4.06798 0.26161,-2.39548 7.09408,-5.20526 11.21009,-4.61006 1.93049,0.2792 4.8931,1.21185 6.58353,2.07269 1.69045,0.86079 7.21258,2.37998 12.27143,3.37588 l 9.19793,1.81076 6.09567,-3.54285 c 3.35261,-1.94857 7.08362,-4.72209 8.2911,-6.16337 1.49193,-1.78081 3.25549,-2.76865 5.50345,-3.08286 1.81941,-0.25426 5.07705,-1.58574 7.23922,-2.95889 2.65374,-1.68533 6.29332,-3.30364 9.98135,-4.54055 3.68803,-1.23691 7.57473,0.47285 10.23167,1.50956 4.77258,1.86219 7.73877,5.01286 6.05307,6.39531"
       id="path4756" />
    <path
       style="display:inline;opacity:1;fill:none;stroke:#34a814;stroke-width:1.08635676;stroke-opacity:1"
       d="m 180.05849,521.68212 c 0.16387,-0.18386 0.51623,-0.27354 1.05926,-0.26521 0.66378,0.0102 4.58281,1.95414 8.70892,4.31991 5.71024,3.27405 8.59281,4.31812 12.0691,4.37147 2.51188,0.0385 5.77862,0.83538 7.2594,1.77073 1.76673,1.116 5.86447,1.8986 11.91963,2.27641 5.39421,0.33657 10.54471,1.2508 12.39864,2.20079 3.24141,1.66098 15.116,15.04266 15.09713,17.01321 -0.005,0.59962 1.72542,3.16459 3.84699,5.70004 3.09622,3.70014 4.43857,4.59102 6.80206,4.51434 1.61956,-0.0526 4.15207,-0.12046 5.62782,-0.15094 1.47575,-0.0305 4.84949,1.11656 7.4972,2.54895 3.20636,1.73464 5.8872,2.47225 8.02779,2.20874 5.41946,-0.66712 10.17973,3.41312 12.02841,10.31011 0.65356,2.4383 0.78741,3.76621 0.53623,3.9078"
       id="path4211" />
    <path
       style="display:inline;opacity:1;fill:none;stroke:#34a814;stroke-width:1.08635676;stroke-opacity:1"
       d="m 292.93707,582.40847 c -0.25118,0.14159 -0.88739,-0.90313 -1.77395,-3.21011 -2.14148,-5.57251 -6.34858,-8.36061 -11.38935,-7.54792 -3.47349,0.56002 -4.53882,0.25347 -7.54717,-2.17176 -4.09748,-3.30318 -8.28288,-4.59918 -9.89796,-3.06482 -1.74087,1.65386 -8.74687,-0.60637 -11.49486,-3.70842 -1.28887,-1.4549 -2.94223,-4.07127 -3.67408,-5.81416 -0.73189,-1.74287 -3.95482,-6.45282 -7.16212,-10.46651 l -5.83146,-7.29766 -6.91737,-1.22837 c -3.80455,-0.67561 -8.42792,-0.9672 -10.27414,-0.64799 -2.28113,0.39442 -4.25849,0.0108 -6.17078,-1.19712 -1.5477,-0.97762 -4.88283,-2.06152 -7.41143,-2.40862 -6.20694,-0.85203 -15.24114,-4.44611 -19.77904,-7.86874 -1.89453,-1.42892 -3.06147,-2.52709 -3.48325,-3.26387 -0.21089,-0.36838 -0.2355,-0.64642 -0.0716,-0.83028"
       id="path14136" />
    <path
       style="display:inline;opacity:1;fill:none;stroke:#34a814;stroke-width:1.08635676;stroke-opacity:1"
       d="m 39.496553,590.07891 c 1.2298,0 0.99817,1.28226 -0.74239,4.10962 -0.85977,1.39661 -1.56612,3.81525 -1.56967,5.37478 -0.006,2.89003 -3.11734,6.55126 -6.44591,7.58656 -0.95177,0.29603 -3.27513,3.19635 -5.16302,6.44514 -3.48775,6.00193 -5.69186,7.51208 -10.96409,7.51208 -1.40138,0 -2.54799,-0.39893 -2.54799,-0.88651"
       id="path4191" />
    <path
       style="display:inline;opacity:1;fill:none;stroke:#34a814;stroke-width:1.08635676;stroke-opacity:1"
       d="m 12.063483,620.22058 0,10e-6 c 0,-0.48761 1.19973,-0.88654 2.66606,-0.88654 3.45409,0 7.48814,-3.7105 8.91514,-8.20005 0.90394,-2.84395 1.86921,-3.77951 5.10888,-4.95159 4.08372,-1.47749 6.33161,-4.65052 6.33161,-8.93751 0,-2.17783 3.07069,-7.16599 4.41138,-7.16599"
       id="path4577" />
    <path
       style="display:inline;opacity:1;fill:none;stroke:#34a814;stroke-width:1.08635676;stroke-opacity:1"
       d="m -2.6028758,477.87418 c 0.4075063,0.10872 0.2926788,1.39813 -0.6124812,3.79674 -0.8569201,2.27077 -2.9443201,4.8984 -4.8174901,6.58334 -0.936585,0.84247 -1.8196125,1.44927 -2.4684939,1.65796 -0.648881,0.20869 -1.063616,0.0193 -1.063616,-0.73071"
       id="path4187" />
    <path
       style="display:inline;opacity:1;fill:none;stroke:#34a814;stroke-width:1.08635676;stroke-opacity:1"
       d="m -11.564957,489.18151 c 0,-0.41202 1.00282,-1.50908 2.2285,-2.43791 1.22566,-0.92885 3.1210749,-3.44075 4.21206,-5.58201 1.184175,-2.32416 2.114015,-3.39613 2.5215212,-3.28741"
       id="path4573" />
    <path
       style="display:inline;opacity:1;fill:none;stroke:#34a814;stroke-width:1.09020233;stroke-opacity:1"
       d="m -69.131158,296.26548 c -0.56846,-0.1781 -1.34729,0.10233 -1.73075,0.62316 -0.38345,0.52081 -2.17503,3.00114 -3.98127,5.51183 -5.110074,7.10293 -6.728866,8.64832 -9.70012,9.2603 -1.7887,0.3688 -3.01799,1.39047 -3.49199,2.90338 -0.4023,1.28412 -1.86005,2.98173 -3.23944,3.77245 -1.37936,0.79069 -3.21823,2.58094 -4.08634,3.97826 -1.37413,2.21185 -0.65934,5.35484 -0.97673,8.03372 -0.31342,2.64538 -0.037,5.4243 -0.91598,7.93898 -0.63288,1.81067 -2.932622,4.52337 -3.045112,4.88253 -0.11249,0.35915 -2.4691,1.61039 -5.23683,2.78055 -2.76782,1.17001 -5.26839,2.82925 -5.557,3.68686 -1.00711,2.99296 -5.40653,6.14371 -9.24945,6.62432 -4.19285,0.52436 -5.48916,1.79619 -7.15752,7.02229 -1.23232,3.86059 -6.15086,6.7335 -11.85882,6.92693 -2.78241,0.0943 -3.97872,-1.47179 -5.976,-2.18579 -1.17628,-0.42048 -2.17052,-0.19793 -2.49959,0.38063"
       id="path4171" />
    <path
       style="display:inline;opacity:1;fill:none;stroke:#34a814;stroke-width:1.09020233;stroke-opacity:1"
       d="m -147.8341,368.40588 c -0.32906,0.57857 0.007,1.51316 1.49152,2.51676 l 1.5e-4,-3e-5 c 2.09951,1.41943 3.39875,1.97081 7.38921,1.79007 8.00489,-0.3625 16.67147,-5.70857 15.38931,-9.49302 -0.60713,-1.79205 2.93782,-4.71416 5.43323,-4.47862 3.072,0.28995 8.45236,-3.19534 9.34853,-6.05582 0.40254,-1.28482 2.37148,-2.89863 4.88653,-4.00517 2.31678,-1.01931 3.73014,-1.84651 5.348662,-3.13015 1.54265,-1.22348 3.13657,-2.5488 4.06606,-4.28452 1.01217,-1.8901 1.0842,-4.15526 1.42915,-6.27137 0.30893,-1.89522 0.47605,-3.81453 0.57002,-5.73247 0.0653,-1.33227 -0.26382,-3.17489 -0.005,-4.00163 0.73825,-2.35637 7.67211,-9.93132 10.264384,-11.21337 2.547092,-1.25975 7.446626,-6.67935 8.193506,-9.06326 0.25629,-0.81798 1.29138,-1.7509 2.30023,-2.07318 2.05815,-0.65741 4.20207,-6.14189 2.59745,-6.64462"
       id="path4799" />
    <path
       style="display:inline;opacity:1;fill:none;stroke:#34a814;stroke-width:1.08635676;stroke-opacity:1"
       d="m 125.8933,220.59025 c 0.37946,0.73391 1.11809,1.61267 2.25262,2.70736 2.49124,2.40375 4.70581,3.41051 9.96281,4.52924 3.71775,0.79116 8.13334,1.43845 9.81241,1.43845 3.67358,0 11.19728,2.79878 14.9023,5.54355 1.47877,1.09554 4.84974,4.78442 7.49107,8.19751 7.27913,9.40609 10.09546,11.58733 17.13788,13.27318 17.06248,4.08453 24.2104,6.19474 26.76352,7.90117 1.54306,1.03135 4.52715,2.87251 6.63131,4.09147 2.71501,1.57283 4.84276,4.05963 7.32876,8.56543 2.44812,4.43713 4.23267,6.5377 5.92596,6.97538 1.33263,0.34445 3.12931,1.12441 3.99261,1.73329 0.86332,0.60887 3.59155,1.36705 6.06273,1.68486 4.51349,0.58043 7.53406,1.68762 10.95298,4.0148 1.45017,0.98709 2.62077,1.05161 5.49947,0.30313 3.68188,-0.95731 4.3398,-0.8666 17.77277,2.45033 5.89296,1.45512 9.94119,4.92351 9.94119,8.51733 0,1.58656 0.4709,3.1312 1.04644,3.43255 1.64811,0.86292 1.22235,7.16275 -0.71695,10.608 -1.70689,3.03238 -1.67535,3.35973 0.98424,10.21703 1.51118,3.89639 4.47529,9.2894 6.5869,11.98454 2.11162,2.6951 4.24743,6.38884 4.74624,8.20831 1.17978,4.30339 1.20666,9.957 0.0474,9.957"
       id="path4203" />
    <path
       style="display:inline;opacity:1;fill:none;stroke:#34a814;stroke-width:1.08635676;stroke-opacity:1"
       d="m 301.01796,356.92416 c -0.99849,0 -2.20018,-5.08298 -2.21828,-9.38312 -0.007,-1.76108 -1.55634,-4.60077 -4.35203,-7.97867 -4.95011,-5.98106 -10.30962,-16.04027 -10.30962,-19.35011 0,-1.22915 0.78577,-3.63079 1.74617,-5.33698 1.46053,-2.59467 1.54611,-3.66786 0.52322,-6.56019 -0.67263,-1.90194 -1.22294,-4.51529 -1.22294,-5.80746 0,-2.64775 -2.05309,-3.64716 -13.7013,-6.66971 -4.33466,-1.12477 -8.27835,-1.60073 -10.60889,-1.28033 -2.77493,0.3815 -4.46399,0.0461 -6.70431,-1.33113 -1.64715,-1.0126 -5.3493,-2.29304 -8.22702,-2.84539 -11.37156,-2.18275 -13.24207,-2.7798 -16.64978,-5.31457 -1.94402,-1.44601 -3.84845,-3.7219 -4.23211,-5.0575 -1.67699,-5.83832 -5.57255,-9.08975 -15.62718,-13.04325 -5.31634,-2.09039 -11.9909,-4.07871 -14.83239,-4.41849 -2.84146,-0.33978 -6.40838,-1.08561 -7.92647,-1.6574 -4.32664,-1.62965 -12.34537,-7.74158 -15.90261,-12.12113 -8.79692,-10.83038 -13.69694,-13.3912 -28.669,-14.98277 -4.77578,-0.50768 -9.37001,-1.65808 -12.45481,-3.11873 -2.68826,-1.27289 -5.07231,-2.15798 -5.29785,-1.96689"
       id="path4178" />
    <path
       style="display:inline;opacity:1;fill:none;stroke:#34a814;stroke-width:1.08635676;stroke-opacity:1"
       d="m 121.7158,471.5306 c 0.71751,1.11078 0.94532,0.0291 3.36195,2.10603 2.89628,2.06463 3.48883,2.17412 6.34393,1.17223 2.67102,-0.93729 3.81899,-0.8615 7.55967,0.49916 7.50382,2.72948 14.15218,10.39493 11.80554,13.61158 -1.11119,1.52318 1.38916,5.35789 3.8322,5.87734 3.00754,0.63948 7.08538,5.55651 7.08538,8.54351 0,1.34165 1.39149,3.4628 3.4534,5.26426 1.89936,1.65945 3.76845,3.71591 4.15351,4.5699 0.38507,0.854 2.32319,2.20844 4.30694,3.00986 2.7318,1.10362 3.76592,2.17563 4.26267,4.41885 0.76871,3.47138 -0.10741,5.02207 -5.13864,9.0951 -2.04205,1.65314 -3.71281,3.71205 -3.71281,4.57535 0,2.46062 4.33671,11.7293 6.41975,13.72067 2.04672,1.9567 5.0911,8.56982 5.0911,11.05917 0,0.85417 0.70635,2.04966 1.56966,2.65665 1.76123,1.23829 2.16598,7.09217 0.49038,7.09217"
       id="path4207" />
    <path
       style="display:inline;opacity:1;fill:none;stroke:#34a814;stroke-width:1.08635676;stroke-opacity:1"
       d="m 182.60043,568.80243 c -0.59361,0 -1.25066,-0.49868 -1.46012,-1.10815 -0.20948,-0.60948 -1.17416,-3.50175 -2.14375,-6.42726 -2.74308,-8.27651 -3.82199,-10.22828 -6.46501,-11.6954 -1.59119,-0.88326 -2.45557,-2.22129 -2.45557,-3.80112 0,-1.34091 -0.88043,-3.38944 -1.95651,-4.55227 -1.07607,-1.16281 -2.29132,-3.41297 -2.70051,-5.0003 -0.64773,-2.51262 -0.19142,-3.47406 3.52616,-7.42959 5.09031,-5.41615 5.32434,-7.65569 1.13086,-10.82112 -1.72664,-1.3033 -3.13933,-2.67651 -3.13933,-3.05151 0,-0.37503 -1.86811,-2.26689 -4.15133,-4.20414 -2.28324,-1.93725 -4.16682,-4.25985 -4.18577,-5.16133 -0.066,-3.14604 -3.31075,-7.45271 -6.82179,-9.05458 -3.83075,-1.74772 -4.68452,-3.34329 -4.71402,-8.8098 -0.0217,-4.03814 -3.84285,-8.23528 -9.2129,-10.1197 -2.61769,-0.91858 -3.66942,-0.86908 -6.33373,0.29813 -4.25645,1.86472 -4.87824,1.79131 -7.85388,-0.92737 -1.59648,-1.45862 -2.70849,-2.0313 -3.50175,-1.63532"
       id="path4174" />
    <path
       style="display:inline;opacity:1;fill:none;stroke:#34a814;stroke-width:1.08635676;stroke-opacity:1"
       d="m 53.271363,710.64889 c -2.1729,0.01 -7.72388,3.6495 -7.74517,5.0812 -0.0463,3.1077 -3.66366,5.7707 -8.72245,6.4211 -2.67192,0.3435 -4.85803,0.2889 -4.85803,-0.1214"
       id="path4195" />
    <path
       style="display:inline;opacity:1;fill:none;stroke:#34a814;stroke-width:1.08635676;stroke-opacity:1"
       d="m 31.945713,722.02979 c 0,-0.4102 1.57518,-0.7459 3.50037,-0.7459 4.02365,0 6.3933,-1.8341 7.65972,-5.9285 0.53232,-1.721 2.27492,-3.6272 4.45747,-4.8758 1.897905,-1.09949 3.634664,-2.39202 5.084179,-3.82887 0.72835,-0.72595 1.398203,-1.49766 2.011076,-2.31791"
       id="path4170" />
    <path
       style="display:inline;opacity:1;fill:none;stroke:#34a814;stroke-width:1.08635676;stroke-opacity:1"
       d="m 57.894363,572.35019 c -3.34624,-0.008 -6.48403,2.72269 -9.84887,8.57007 -2.05633,3.57348 -4.196848,6.73706 -4.7567,7.03019 -0.582925,0.30521 -0.99886,0.41302 -1.250851,0.34078"
       id="path4183" />
    <path
       style="display:inline;opacity:1;fill:none;stroke:#34a814;stroke-width:1.08635676;stroke-opacity:1"
       d="m 42.037942,588.29123 c -0.251991,-0.0722 -0.340038,-0.32452 -0.267188,-0.73949 0.145701,-0.82995 0.934994,-2.31067 2.343509,-4.30332 1.652677,-2.33808 3.2403,-4.71804 3.52807,-5.28883 0.28775,-0.57082 2.419801,-3.36162 5.073728,-5.73154 1.423537,-1.2712 2.884402,-2.02246 3.886062,-3.10515 1.001659,-1.08269 1.818926,-2.11206 2.504891,-3.17 0.685966,-1.05793 1.240631,-2.14444 1.717086,-3.34139"
       id="path4166" />
    <path
       style="display:inline;opacity:1;fill:none;stroke:#34a814;stroke-width:1.08635676;stroke-opacity:1"
       d="m 95.947117,418.7369 c -0.522961,-0.226 -1.07608,0.79949 -1.439892,1.36213 -0.519085,0.80277 -1.383094,1.8131 -2.562352,3.87834 -3.970575,6.95371 -9.75218,11.50967 -20.46153,16.12383 -6.81676,2.93702 -9.65107,4.73928 -12.1201,7.70681 -2.41138,2.89823 -4.13969,4.01904 -6.86546,4.45226 -2.03937,0.32411 -4.7948,1.67426 -6.25994,3.06735 -1.43942,1.36862 -4.07068,2.75886 -5.84723,3.08943 -1.77655,0.33056 -3.75744,1.4662 -4.40199,2.52363 -1.68879,2.7706 -13.89301,12.0434 -18.42957,14.00281 -3.47473,1.5008 -17.00652999,2.98509 -17.00652999,1.86545"
       id="path4179" />
    <path
       style="display:inline;opacity:1;fill:none;stroke:#34a814;stroke-width:1.08635676;stroke-opacity:1"
       d="m 0.55252301,476.80894 c 0,-1.37922 4.28043999,-2.81138 8.47610999,-2.83596 4.59992,-0.0269 10.37271,-2.59242 15.42098,-6.85323 0.76925,-0.64925 3.00602,-2.21911 4.97058,-3.48857 1.96459,-1.26947 3.57197,-2.79731 3.57197,-3.39526 0,-1.51605 3.47257,-4.02152 5.57378,-4.02152 0.96055,0 3.4938,-1.39626 5.62944,-3.10282 2.13563,-1.70656 4.75762,-3.10282 5.82663,-3.10282 3.09938,0 5.63695,-1.52057 8.04409,-4.82019 1.50268,-2.05979 4.15126,-3.81111 8.05147,-5.32379 5.93152,-2.30054 18.0645,-9.28966 18.11967,-10.4377 0.0167,-0.34924 1.9141,-3.10388 4.21625,-6.12145 2.30218,-3.01756 3.681897,-4.09906 5.010196,-6.48645 0.374068,-0.67232 0.635001,-1.41237 0.808277,-2.16199 0.21218,-0.91791 0.394486,-1.85571 0.500716,-2.79843"
       id="path4162" />
    <path
       style="display:inline;opacity:1;fill:none;stroke:#34a814;stroke-width:1.08635676;stroke-opacity:1"
       d="m 64.329597,298.82831 c -1.27957,-0.66996 -4.596375,2.58408 -5.559152,3.38456 -5.27639,4.38692 -21.149599,14.73664 -28.416388,17.57513 -2.491043,0.97303 -5.2138,1.74002 -5.77403,2.62685 -0.56023,0.88683 -3.29156,2.69485 -6.06962,4.01783 -5.22499,2.48824 -8.5398,6.88515 -8.5398,11.32755 0,2.91113 -4.52364,11.27515 -7.20286,13.3178 -1.21831,0.92884 -2.21509999,2.25991 -2.21509999,2.95791 0,0.69801 -2.76617001,3.72792 -6.14701001,6.73314 -3.38085,3.00521 -6.92468,6.76055 -7.87517,8.34522 -0.95049,1.58463 -2.14303,2.88117 -2.6501,2.88117 -0.50703,0 -1.25211,3.88962 -1.65571,8.64358 -0.85243,10.04056 -2.41456,13.44978 -7.00711,15.29246 -5.33273,2.13965 -7.46022,5.35656 -7.2443,10.95395 0.17723,4.5952 -0.0142,4.98319 -3.76092,7.62627 -3.13397,2.21081 -4.81035,2.75111 -8.13339,2.62147 -7.52125,-0.29346 -8.73079,-0.03 -9.08358,1.97892 -0.1839,1.04728 -1.04073,2.17964 -1.90405,2.51636 -6.40164,2.49689 -8.08365,3.59882 -11.16559,7.31493 -4.61716,5.56723 -7.66916,12.58383 -7.6698,17.63311 -2.9e-4,2.25647 -0.68822,5.49701 -1.5287,7.20117 -0.84049,1.70417 -1.21432,3.36439 -0.83072,3.68935 0.74114,0.62788 -1.224637,4.2593 -6.38455,11.79407 -1.48821,2.17316 -2.96489,3.83178 -4.069517,4.69434 -0.647425,0.54755 -1.473211,0.76772 -1.705478,0.47864"
       id="path4175" />
    <path
       style="display:inline;opacity:1;fill:none;stroke:#34a814;stroke-width:1.08635676;stroke-opacity:1"
       d="m -88.263048,474.43409 c -0.149949,-0.18648 -0.131725,-0.30789 -0.131725,-0.56066 0.08807,-0.62381 0.324311,-1.10286 0.514124,-1.55217 0.329992,-0.6808 0.805844,-1.5053 1.389285,-2.4139 1.166881,-1.81719 2.764116,-3.97079 4.485531,-5.98397 2.220808,-2.59722 3.02903,-4.55743 3.02903,-7.34643 0,-2.09221 0.47089,-4.05058 1.04643,-4.35191 0.57553,-0.30136 1.04643,-2.64742 1.04643,-5.21353 0,-5.34942 1.98561,-10.84066 6.43827,-17.80528 3.27047,-5.11552 6.82289,-7.80241 11.61284,-8.78352 1.58274,-0.32419 2.8777,-1.15174 2.8777,-1.839 0,-2.51627 3.19395,-4.03578 8.48309,-4.03578 4.85233,0 9.63987,-1.62973 11.65897,-3.96885 0.4306,-0.49885 0.5064,-2.53719 0.16848,-4.52963 -0.56265,-3.31724 -0.24091,-3.98982 3.81684,-7.97868 2.43723,-2.39583 5.27985,-4.63466 6.31699,-4.97521 3.05533,-1.00318 5.1346,-5.51598 5.1346,-11.14393 0,-8.69865 2.33607,-13.48659 10.49616,-21.51263 4.01134,-3.94544 7.29333,-7.48507 7.29333,-7.86586 0,-0.38079 1.12051,-1.79707 2.49002001,-3.14731 4.35844999,-4.29708 6.92792999,-9.67841 6.92792999,-14.5093 0,-5.79762 2.74986,-8.56177 15.14745,-15.22622 4.9887,-2.68171 11.74843,-6.67106 15.02163,-8.8652 3.27321,-2.19414 6.71088,-4.38827 7.6393,-4.87585 5.20173,-2.7319 12.465329,-7.78684 18.60176,-12.94551 3.456755,-2.90596 5.19985,-4.38168 6.247447,-5.99987"
       id="path4158" />
    <path
       style="display:inline;opacity:1;fill:none;stroke:#34a814;stroke-width:1.08635676;stroke-opacity:1"
       d="m 93.064605,205.9118 c -0.726453,0.25382 -1.983794,1.61207 -3.965372,3.0915 -3.963156,2.95887 -11.134176,8.88981 -24.303516,19.8762 -18.273952,15.24486 -22.483593,16.79748 -33.557273,17.4379 -3.66302,0.21185 -5.72577,-0.15292 -8.568737,-0.46941 -2.297328,-0.25574 -4.577657,-0.66939 -6.838078,-1.15273 -2.650311,-0.56671 -5.166968,-1.83709 -7.8691691,-2.04547 -2.4181264,-0.18647 -5.3381725,1.15615 -7.23928701,0.72917 -2.87184309,-0.64501 -6.94572129,0.30162 -8.47004129,0.87341 -2.9908296,1.12189 -10.5364146,8.61989 -10.5364146,10.32549 0,0.57157 -1.4207,2.55372 -3.15708,4.40477 -1.94768,2.0763 -2.93217,3.96588 -2.56996,4.93269 1.64651,4.39491 -5.76628,11.44901 -12.03116,11.44901 -5.46398,0 -7.35636,1.37109 -7.35636,5.32988 0,2.84951 -0.53112,3.77735 -2.87772,5.02733 -1.58273,0.8431 -4.4245,2.64748 -6.31504,4.00978 -1.89055,1.36229 -4.24503,2.47838 -5.23221,2.48021 -0.98717,0.002 -3.37431,0.81909 -5.30476,1.81613 -1.93043,0.99707 -4.494726,1.67015 -4.692582,1.29595"
       id="path4167" />
    <path
       style="display:inline;opacity:1;fill:none;stroke:#34a814;stroke-width:1.08635676;stroke-opacity:1"
       d="m -67.820155,295.32361 c -0.455885,-0.84798 5.763152,-4.00192 7.859122,-4.00192 0.82636,0 3.12525,-1.43492 5.10868,-3.1887 1.98342,-1.75381 4.66573,-3.53914 5.9607,-3.9674 1.87772,-0.62101 2.35449,-1.47338 2.35449,-4.20931 0,-4.18486 2.35517,-6.23922 7.98013,-6.96089 2.22967,-0.28609 5.58435,-1.29891 7.45486,-2.25073 3.08739,-1.57104 3.40094,-2.1263 3.40094,-6.02286 0,-3.21433 0.62107,-4.92162 2.47309,-6.79822 1.36021,-1.37827 3.44038,-4.10168 4.62262,-6.05204 2.70406,-4.46087 10.233663,-10.60446 14.35631,-11.7136 2.26934,-0.61053 4.3485789,-0.39678 6.79794135,0.002 2.44936235,0.39856 4.96675855,-0.88469 7.46411075,-0.75482 2.0712339,0.10771 4.0690119,0.80834 6.0921979,1.26477 2.01531,0.45466 3.967126,1.25008 6.021592,1.46768 4.593177,0.4865 9.996097,0.15943 13.851164,-0.38832 5.716809,-0.81228 8.64293,-2.50349 11.44007,-4.75583 2.08684,-1.68036 5.48727,-4.00686 7.5565,-5.16994 2.06923,-1.1631 6.20675,-4.60805 9.19449,-7.65546 2.98774,-3.0474 6.08303,-5.54075 6.87843,-5.54075 0.79539,0 2.45209,-1.3789 3.68159,-3.06424 2.12666,-2.91514 7.500495,-7.2274 11.540206,-10.50432 1.461833,-1.18581 3.292857,-1.92944 4.580786,-3.30215 1.076206,-1.14705 3.299267,-1.90801 2.510021,-3.99566"
       id="path4154" />
  </g>
</svg>
