<?xml version="1.0" encoding="UTF-8" standalone="no"?>
<!-- Created with Inkscape (http://www.inkscape.org/) -->

<svg
   xmlns:dc="http://purl.org/dc/elements/1.1/"
   xmlns:cc="http://creativecommons.org/ns#"
   xmlns:rdf="http://www.w3.org/1999/02/22-rdf-syntax-ns#"
   xmlns:svg="http://www.w3.org/2000/svg"
   xmlns="http://www.w3.org/2000/svg"
   xmlns:sodipodi="http://sodipodi.sourceforge.net/DTD/sodipodi-0.dtd"
   xmlns:inkscape="http://www.inkscape.org/namespaces/inkscape"
   width="38.629391mm"
   height="21.002748mm"
   viewBox="0 0 136.87579 74.419187"
   id="svg5472"
   version="1.1"
   inkscape:version="0.91 r13725"
   sodipodi:docname="rootIntro3.svg">
  <defs
     id="defs5474" />
  <sodipodi:namedview
     id="base"
     pagecolor="#ffffff"
     bordercolor="#666666"
     borderopacity="1.0"
     inkscape:pageopacity="0.0"
     inkscape:pageshadow="2"
     inkscape:zoom="0.35"
     inkscape:cx="-299.41924"
     inkscape:cy="102.92388"
     inkscape:document-units="px"
     inkscape:current-layer="layer1"
     showgrid="false"
     fit-margin-top="0"
     fit-margin-left="0"
     fit-margin-right="0"
     fit-margin-bottom="0"
     inkscape:window-width="1366"
     inkscape:window-height="705"
     inkscape:window-x="-8"
     inkscape:window-y="-8"
     inkscape:window-maximized="1" />
  <metadata
     id="metadata5477">
    <rdf:RDF>
      <cc:Work
         rdf:about="">
        <dc:format>image/svg+xml</dc:format>
        <dc:type
           rdf:resource="http://purl.org/dc/dcmitype/StillImage" />
        <dc:title></dc:title>
      </cc:Work>
    </rdf:RDF>
  </metadata>
  <g
     inkscape:label="Layer 1"
     inkscape:groupmode="layer"
     id="layer1"
     transform="translate(-217.27639,-560.8669)">
    <path
       style="display:inline;opacity:1;fill:none;stroke:#34a814;stroke-width:1.30217838;stroke-opacity:1"
       d="m 219.32453,561.5191 c 0.79565,0.0122 5.49326,2.34236 10.43908,5.17813 6.84467,3.92449 10.29991,5.17598 14.46682,5.23993 3.0109,0.0462 6.92663,1.00134 8.70159,2.12251 2.11772,1.33771 7.02954,2.27579 14.28765,2.72866 6.46585,0.40343 12.63958,1.49929 14.86182,2.63801 3.88537,1.99096 18.11903,18.03112 18.09641,20.39315 -0.006,0.71874 2.06821,3.79328 4.61126,6.83244 3.71133,4.43523 5.32036,5.50309 8.15339,5.41118 1.94132,-0.0631 4.97695,-0.14439 6.74588,-0.18093 1.76893,-0.0366 5.81292,1.33839 8.98664,3.05534 3.84335,2.07926 7.05678,2.9634 9.62263,2.64754 6.49612,-0.79965 12.2021,4.09119 14.41804,12.35838 1.56682,5.84541 0.64176,6.36688 -1.48361,0.83629 -2.56692,-6.67957 -7.60982,-10.02157 -13.65202,-9.04743 -4.16355,0.67128 -5.44053,0.30383 -9.04653,-2.60321 -4.91151,-3.95941 -9.92841,-5.51288 -11.86435,-3.6737 -2.08672,1.98243 -10.48457,-0.72683 -13.77849,-4.44515 -1.54493,-1.74394 -3.52675,-4.88009 -4.404,-6.96923 -0.87729,-2.08912 -4.7405,-7.73478 -8.58498,-12.54585 l -6.98997,-8.74745 -8.29162,-1.47241 c -4.56038,-0.80983 -10.10226,-1.15935 -12.31526,-0.77672 -2.73431,0.47278 -5.1045,0.013 -7.3967,-1.43495 -1.85517,-1.17184 -5.85288,-2.47107 -8.88382,-2.88713 -7.44005,-1.02129 -18.26901,-5.32942 -23.70846,-9.43198 -4.54181,-3.42558 -5.59506,-5.26537 -2.9914,-5.22542 z"
       id="path14136"
       inkscape:connector-curvature="0" />
  </g>
</svg>
