<?xml version="1.0" encoding="UTF-8" standalone="no"?>
<svg
   xmlns:dc="http://purl.org/dc/elements/1.1/"
   xmlns:cc="http://creativecommons.org/ns#"
   xmlns:rdf="http://www.w3.org/1999/02/22-rdf-syntax-ns#"
   xmlns:svg="http://www.w3.org/2000/svg"
   xmlns="http://www.w3.org/2000/svg"
   xmlns:sodipodi="http://sodipodi.sourceforge.net/DTD/sodipodi-0.dtd"
   xmlns:inkscape="http://www.inkscape.org/namespaces/inkscape"
   version="1.1"
   id="svg6073"
   viewBox="0 0 148.52761 942.715"
   height="1130"
   width="600"
   inkscape:version="0.91 r13725"
   sodipodi:docname="rootsWireframe.svg"
   inkscape:export-filename="C:\Users\Corypheus\Dropbox\Web Design\Andrew Web\img\rootsCentered.png"
   inkscape:export-xdpi="90"
   inkscape:export-ydpi="90">
  <sodipodi:namedview
     pagecolor="#ffffff"
     bordercolor="#666666"
     borderopacity="1"
     objecttolerance="10"
     gridtolerance="10"
     guidetolerance="10"
     inkscape:pageopacity="0"
     inkscape:pageshadow="2"
     inkscape:window-width="1366"
     inkscape:window-height="705"
     id="namedview197"
     showgrid="false"
     fit-margin-top="0"
     fit-margin-left="0"
     fit-margin-right="0"
     fit-margin-bottom="0"
     inkscape:zoom="15.178761"
     inkscape:cx="335.39696"
     inkscape:cy="844.01871"
     inkscape:window-x="-8"
     inkscape:window-y="-8"
     inkscape:window-maximized="1"
     inkscape:current-layer="layer2"
     showguides="true"
     inkscape:guide-bbox="true">
    <inkscape:grid
       type="xygrid"
       id="grid4325"
       originx="-314.65208"
       originy="60.426726" />
    <sodipodi:guide
       position="74.263805,942.715"
       orientation="1,0"
       id="guide4338"
       inkscape:label="center"
       inkscape:color="rgb(0,0,255)" />
  </sodipodi:namedview>
  <defs
     id="defs6075" />
  <metadata
     id="metadata6078">
    <rdf:RDF>
      <cc:Work
         rdf:about="">
        <dc:format>image/svg+xml</dc:format>
        <dc:type
           rdf:resource="http://purl.org/dc/dcmitype/StillImage" />
        <dc:title></dc:title>
        <cc:license
           rdf:resource="http://creativecommons.org/licenses/by-nc/3.0/" />
      </cc:Work>
      <cc:License
         rdf:about="http://creativecommons.org/licenses/by-nc/3.0/">
        <cc:permits
           rdf:resource="http://creativecommons.org/ns#Reproduction" />
        <cc:permits
           rdf:resource="http://creativecommons.org/ns#Distribution" />
        <cc:requires
           rdf:resource="http://creativecommons.org/ns#Notice" />
        <cc:requires
           rdf:resource="http://creativecommons.org/ns#Attribution" />
        <cc:prohibits
           rdf:resource="http://creativecommons.org/ns#CommercialUse" />
        <cc:permits
           rdf:resource="http://creativecommons.org/ns#DerivativeWorks" />
      </cc:License>
    </rdf:RDF>
  </metadata>
  <g
     inkscape:groupmode="layer"
     id="layer2"
     inkscape:label="wireframe"
     style="display:inline">
    <path style="display:inline;fill:none;stroke:#34a814;stroke-width:0.98585486;stroke-linejoin:bevel;stroke-opacity:1" d="M 54.289856,0.70670363 69.375428,12.737585 82.010366,1.8582346 Z" id="path4299" />
    <path style="display:inline;fill:none;stroke:#34a814;stroke-width:0.98585486;stroke-linejoin:bevel;stroke-opacity:1" d="m 69.375428,12.737585 8.029433,5.349686 4.605505,-16.2290364 z" id="path4304" />
    <path style="display:inline;fill:none;stroke:#34a814;stroke-width:0.98585486;stroke-linejoin:bevel;stroke-opacity:1" d="M 77.404861,18.087271 85.468723,20.790046 81.813378,1.8582346 Z" id="path4306" />
    <path style="display:inline;fill:none;stroke:#34a814;stroke-width:0.98585486;stroke-linejoin:bevel;stroke-opacity:1" d="m 65.290946,33.437025 9.680744,3.756288 2.433171,-19.106042 z" id="path4308" />
    <path style="display:inline;fill:none;stroke:#34a814;stroke-width:0.98585486;stroke-linejoin:bevel;stroke-opacity:1" d="M 54.191362,0.70670363 65.290946,33.437025 69.375428,12.737585 Z" id="path4310" />
    <path style="display:inline;fill:none;stroke:#34a814;stroke-width:0.98585486;stroke-linejoin:bevel;stroke-opacity:1" d="M 83.244445,44.071487 85.370229,20.691552 74.97169,37.193313 Z" id="path4312" />
    <path style="display:inline;fill:none;stroke:#34a814;stroke-width:0.98585486;stroke-linejoin:bevel;stroke-opacity:1" d="m 83.244445,44.071487 9.110616,1.932461 -6.984832,-25.509385 z" id="path4314" />
    <path style="display:inline;fill:none;stroke:#34a814;stroke-width:0.98585486;stroke-linejoin:bevel;stroke-opacity:1" d="m 65.290946,33.437025 7.456532,32.054308 2.224212,-28.29802 z" id="path4316" />
    <path style="display:inline;fill:none;stroke:#34a814;stroke-width:0.98585486;stroke-linejoin:bevel;stroke-opacity:1" d="M 85.920952,74.386415 94.419696,71.838942 92.355061,46.003948 Z" id="path4318" />
    <path style="display:inline;fill:none;stroke:#34a814;stroke-width:0.98585486;stroke-linejoin:bevel;stroke-opacity:1" d="M 72.550489,64.998861 85.920952,74.386415 83.244445,44.071487 Z" id="path4320" />
    <path style="display:inline;fill:none;stroke:#34a814;stroke-width:0.98585486;stroke-linejoin:bevel;stroke-opacity:1" d="m 85.920952,74.386415 9.472052,19.9321 -0.973308,-22.479573 z" id="path4322" />
    <path style="display:inline;fill:none;stroke:#34a814;stroke-width:0.98585486;stroke-linejoin:bevel;stroke-opacity:1" d="m 76.431619,78.207613 18.961385,16.110902 -9.472052,-19.9321 z" id="path4324" />
    <path style="display:inline;fill:none;stroke:#34a814;stroke-width:0.98585486;stroke-linejoin:bevel;stroke-opacity:1" d="M 72.845972,65.294344 70.00128,97.476937 76.431619,78.207613 Z" id="path4326" />
    <path style="display:inline;fill:none;stroke:#34a814;stroke-width:0.98585486;stroke-linejoin:bevel;stroke-opacity:1" d="M 70.296763,97.476937 84.94771,103.93708 76.431619,78.207613 Z" id="path4328" />
    <path style="display:inline;fill:none;stroke:#34a814;stroke-width:0.98585486;stroke-linejoin:bevel;stroke-opacity:1" d="M 92.876315,116.37599 95.393004,94.318515 84.94771,103.93709 Z" id="path4330" />
    <path style="display:inline;fill:none;stroke:#34a814;stroke-width:0.98585486;stroke-linejoin:bevel;stroke-opacity:1" d="m 65.469626,121.06042 10.232029,-16.8686 -5.601881,-6.813377 z" id="path4332" />
    <path style="display:inline;fill:none;stroke:#34a814;stroke-width:0.98585486;stroke-linejoin:bevel;stroke-opacity:1" d="m 75.701655,104.19183 5.353021,23.94626 3.893034,-24.201 z" id="path4334" />
    <path style="display:inline;fill:none;stroke:#34a814;stroke-width:0.98585486;stroke-linejoin:bevel;stroke-opacity:1" d="m 71.808621,128.9023 9.246055,-0.76421 -15.58505,-7.17617 z" id="path4336" />
    <path style="display:inline;fill:none;stroke:#34a814;stroke-width:0.98585486;stroke-linejoin:bevel;stroke-opacity:1" d="M 65.469626,120.86343 61.94346,144.07985 71.808621,128.9023 Z" id="path4338" />
    <path style="display:inline;fill:none;stroke:#34a814;stroke-width:0.98585486;stroke-linejoin:bevel;stroke-opacity:1" d="M 90.006905,134.22976 92.876319,116.376 81.05468,128.1381 Z" id="path4340" />
    <path style="display:inline;fill:none;stroke:#34a814;stroke-width:0.98585486;stroke-linejoin:bevel;stroke-opacity:1" d="m 81.054677,128.1377 10.392824,19.07198 -1.440596,-12.97992 z" id="path4342" />
    <path style="display:inline;fill:none;stroke:#34a814;stroke-width:0.98585486;stroke-linejoin:bevel;stroke-opacity:1" d="m 71.808622,128.90191 11.922504,23.69148 -2.676449,-24.4557 z" id="path4344" />
    <path style="display:inline;fill:none;stroke:#34a814;stroke-width:0.98585486;stroke-linejoin:bevel;stroke-opacity:1" d="m 61.943461,144.07946 14.974788,15.3921 6.812877,-6.87817 z" id="path4346" />
    <path style="display:inline;fill:none;stroke:#34a814;stroke-width:0.98585486;stroke-linejoin:bevel;stroke-opacity:1" d="m 65.969017,164.56654 10.949232,-5.09497 -14.974788,-15.3921 z" id="path4348" />
    <path style="display:inline;fill:none;stroke:#34a814;stroke-width:0.98585486;stroke-linejoin:bevel;stroke-opacity:1" d="m 90.300674,170.68046 1.048333,-23.66777 -7.617881,5.58071 z" id="path4350" />
    <path style="display:inline;fill:none;stroke:#34a814;stroke-width:0.98585486;stroke-linejoin:bevel;stroke-opacity:1" d="m 90.300674,170.68046 12.652396,-1.019 -11.702557,-22.74726 z" id="path4352" />
    <path style="display:inline;fill:none;stroke:#34a814;stroke-width:0.98585486;stroke-linejoin:bevel;stroke-opacity:1" d="m 76.918249,159.47157 9.245981,19.8703 4.136444,-8.66141 z" id="path4354" />
    <path style="display:inline;fill:none;stroke:#34a814;stroke-width:0.98585486;stroke-linejoin:bevel;stroke-opacity:1" d="m 86.16423,179.34187 13.707047,5.78804 -9.570603,-14.44945 z" id="path4356" />
    <path style="display:inline;fill:none;stroke:#34a814;stroke-width:0.98585486;stroke-linejoin:bevel;stroke-opacity:1" d="m 65.969017,164.56654 16.97448,20.54637 3.220733,-5.77104 z" id="path4358" />
    <path style="display:inline;fill:none;stroke:#34a814;stroke-width:0.98585486;stroke-linejoin:bevel;stroke-opacity:1" d="m 99.4773,185.42539 15.39637,-1.9777 -11.9206,-13.78622 z" id="path4360" />
    <path style="display:inline;fill:none;stroke:#34a814;stroke-width:0.98585486;stroke-linejoin:bevel;stroke-opacity:1" d="m 82.943497,185.11291 11.006339,8.63648 5.625958,-8.324 z" id="path4362" />
    <path style="display:inline;fill:none;stroke:#34a814;stroke-width:0.98585486;stroke-linejoin:bevel;stroke-opacity:1" d="m 99.871277,185.32689 7.704793,13.9874 7.19911,-15.8666 z" id="path4364" />
    <path style="display:inline;fill:none;stroke:#34a814;stroke-width:0.98585486;stroke-linejoin:bevel;stroke-opacity:1" d="m 107.47758,199.1173 11.73998,5.25895 -4.34389,-20.73158 z" id="path4366" />
    <path style="display:inline;fill:none;stroke:#34a814;stroke-width:0.98585486;stroke-linejoin:bevel;stroke-opacity:1" d="m 101.3312,205.17347 5.94939,-6.15466 -13.527743,-4.87544 z" id="path4368" />
    <path style="display:inline;fill:none;stroke:#34a814;stroke-width:0.98585486;stroke-linejoin:bevel;stroke-opacity:1" d="m 105.62953,218.31819 1.74955,-19.49637 -5.94939,6.15466 z" id="path4370" />
    <path style="display:inline;fill:none;stroke:#34a814;stroke-width:0.98585486;stroke-linejoin:bevel;stroke-opacity:1" d="m 105.62953,218.31819 13.68653,-13.84345 -11.93698,-5.35745 z" id="path4372" />
    <path style="display:inline;fill:none;stroke:#34a814;stroke-width:0.98585486;stroke-linejoin:bevel;stroke-opacity:1" d="m 105.62953,218.31819 12.95135,7.48983 0.73518,-21.43178 z" id="path4374" />
    <path style="display:inline;fill:none;stroke:#34a814;stroke-width:0.98585486;stroke-linejoin:bevel;stroke-opacity:1" d="m 98.984828,223.12433 6.644702,-4.80614 -4.29833,-13.34171 z" id="path4376" />


    <path style="display:inline;fill:none;stroke:#34a814;stroke-width:0.98585486;stroke-linejoin:bevel;stroke-opacity:1" d="m 107.01163,229.55503 7.5915,6.22008 3.93889,-9.94367 z" id="path4614" />
    <path style="display:inline;fill:none;stroke:#34a814;stroke-width:0.98585486;stroke-linejoin:bevel;stroke-opacity:1" d="m 114.62903,235.81218 -4.58502,11.4273 -3.16128,-17.79366 z" id="path4616" />
    <path style="display:inline;fill:none;stroke:#34a814;stroke-width:0.98585486;stroke-linejoin:bevel;stroke-opacity:1" d="m 107.01163,229.55503 -1.26956,-11.30771 12.79995,7.58412 z" id="path4618" />
    <path style="display:inline;fill:none;stroke:#34a814;stroke-width:0.98585486;stroke-linejoin:bevel;stroke-opacity:1" d="m 92.820567,237.16278 6.825056,1.1142 -0.562305,-15.25115 z" id="path4620" inkscape:connector-curvature="0" sodipodi:nodetypes="cccc" />
    <path style="display:inline;fill:none;stroke:#34a814;stroke-width:0.98585486;stroke-linejoin:bevel;stroke-opacity:1" d="m 104.44099,234.83092 -4.850329,3.44606 -0.507343,-15.25115 z" id="path4622" />
    
    
    <path style="display:inline;fill:none;stroke:#34a814;stroke-width:0.98585486;stroke-linejoin:bevel;stroke-opacity:1" d="m 99.083318,223.02583 10.960692,24.21365 -3.16128,-17.79366 z" id="path4378" />
    <path style="display:inline;fill:none;stroke:#34a814;stroke-width:0.98585486;stroke-linejoin:bevel;stroke-opacity:1" d="m 99.525981,238.20706 10.518029,9.03242 -5.73926,-12.28681 z" id="path4380" />

    <path id="path4624" d="m 99.525981,238.20706 10.518029,9.03242 -10.466026,-2.44854 z" style="display:inline;fill:none;stroke:#34a814;stroke-width:0.98585486;stroke-linejoin:bevel;stroke-opacity:1" inkscape:connector-curvature="0" sodipodi:nodetypes="cccc" />


    <path style="display:inline;fill:none;stroke:#34a814;stroke-width:0.98585486;stroke-linejoin:bevel;stroke-opacity:1" d="m 87.380819,258.31353 12.165776,-13.50165 -6.726028,-7.6491 z" id="path4382" />
    <path style="display:inline;fill:none;stroke:#34a814;stroke-width:0.98585486;stroke-linejoin:bevel;stroke-opacity:1" d="m 83.719804,257.03512 3.661015,1.27841 5.439748,-21.15075 z" id="path4384" />
    <path style="display:inline;fill:none;stroke:#34a814;stroke-width:0.98585486;stroke-linejoin:bevel;stroke-opacity:1" d="m 95.653562,264.42747 14.390448,-17.18798 -10.497415,-2.4276 z" id="path4386" />
    <path style="display:inline;fill:none;stroke:#34a814;stroke-width:0.98585486;stroke-linejoin:bevel;stroke-opacity:1" d="m 84.32788,280.84006 11.325682,-16.4126 -8.272743,-6.11394 z" id="path4388" />
    <path style="display:inline;fill:none;stroke:#34a814;stroke-width:0.98585486;stroke-linejoin:bevel;stroke-opacity:1" d="m 83.719804,257.03512 -7.220622,31.12006 7.828698,-7.31512 z" id="path4390" />
    <path style="display:inline;fill:none;stroke:#34a814;stroke-width:0.98585486;stroke-linejoin:bevel;stroke-opacity:1" d="m 89.813983,291.6854 9.159198,-14.40144 -14.645301,3.5561 z" id="path4392" />
    <path style="display:inline;fill:none;stroke:#34a814;stroke-width:0.98585486;stroke-linejoin:bevel;stroke-opacity:1" d="M 98.776192,277.67794 110.04401,247.23949 95.653562,264.42747 Z" id="path4394" />
    <path style="display:inline;fill:none;stroke:#34a814;stroke-width:0.98585486;stroke-linejoin:bevel;stroke-opacity:1" d="M 76.499182,288.15518 79.4265,308.41722 89.813983,291.6854 Z" id="path4396" />
    <path style="display:inline;fill:none;stroke:#34a814;stroke-width:0.98585486;stroke-linejoin:bevel;stroke-opacity:1" d="M 79.4265,308.41722 90.649611,303.54288 89.813983,291.6854 Z" id="path4398" />
    <path style="display:inline;fill:none;stroke:#34a814;stroke-width:0.98585486;stroke-linejoin:bevel;stroke-opacity:1" d="m 90.649611,303.54288 8.32357,-26.06193 -9.159198,14.20445 z" id="path4400" />
    <path style="display:inline;fill:none;stroke:#34a814;stroke-width:0.98585486;stroke-linejoin:bevel;stroke-opacity:1" d="m 79.4265,308.41722 -10.604656,6.01739 9.423175,2.15825 z" id="path4402" />
    <path style="display:inline;fill:none;stroke:#34a814;stroke-width:0.98585486;stroke-linejoin:bevel;stroke-opacity:1" d="M 76.499182,288.15518 68.821844,314.43461 79.4265,308.41723 Z" id="path4404" />
    <path style="display:inline;fill:none;stroke:#34a814;stroke-width:0.98585486;stroke-linejoin:bevel;stroke-opacity:1" d="M 78.245019,316.59286 90.649611,303.54288 79.4265,308.41722 Z" id="path4406" />
    <path style="display:inline;fill:none;stroke:#34a814;stroke-width:0.98585486;stroke-linejoin:bevel;stroke-opacity:1" d="m 84.217743,334.99241 6.431868,-31.44953 -12.404592,13.04998 z" id="path4408" />
    <path style="display:inline;fill:none;stroke:#34a814;stroke-width:0.98585486;stroke-linejoin:bevel;stroke-opacity:1" d="M 68.821844,314.43461 84.217743,334.9924 78.245019,316.59286 Z" id="path4410" />
    <path style="display:inline;fill:none;stroke:#34a814;stroke-width:0.98585486;stroke-linejoin:bevel;stroke-opacity:1" d="m 91.349004,340.72271 -0.699392,-37.17983 -6.431868,31.44953 z" id="path4412" />
    <path style="display:inline;fill:none;stroke:#34a814;stroke-width:0.98585486;stroke-linejoin:bevel;stroke-opacity:1" d="m 83.487779,347.22027 7.861225,-6.49755 -7.13126,-5.73031 z" id="path4414" />
    <path style="display:inline;fill:none;stroke:#34a814;stroke-width:0.98585486;stroke-linejoin:bevel;stroke-opacity:1" d="m 68.821845,314.43461 14.665934,32.78566 0.729965,-12.22787 z" id="path4416" />
    <path style="display:inline;fill:none;stroke:#34a814;stroke-width:0.98585486;stroke-linejoin:bevel;stroke-opacity:1" d="m 83.487779,347.22027 -4.581137,8.19052 6.707515,-0.086 z" id="path4418" />
    <path style="display:inline;fill:none;stroke:#34a814;stroke-width:0.98585486;stroke-linejoin:bevel;stroke-opacity:1" d="m 85.614157,355.32477 5.734847,-14.60205 -7.861225,6.49755 z" id="path4420" />
    <path style="display:inline;fill:none;stroke:#34a814;stroke-width:0.98585486;stroke-linejoin:bevel;stroke-opacity:1" d="m 91.030562,364.03362 0.318442,-23.31091 -5.734847,14.60206 z" id="path4422" />
    <path style="display:inline;fill:none;stroke:#34a814;stroke-width:0.98585486;stroke-linejoin:bevel;stroke-opacity:1" d="m 68.821845,314.43461 10.084797,40.97617 4.581137,-8.19051 z" id="path4424" />
    <path style="display:inline;fill:none;stroke:#34a814;stroke-width:0.98585486;stroke-linejoin:bevel;stroke-opacity:1" d="m 78.906642,355.41079 12.12392,8.62283 -5.416405,-8.70885 z" id="path4426" />
    <path style="display:inline;fill:none;stroke:#34a814;stroke-width:0.98585486;stroke-linejoin:bevel;stroke-opacity:1" d="m 99.647446,368.12387 -8.298442,-27.40116 -0.318442,23.3109 z" id="path4428" />
    <path style="display:inline;fill:none;stroke:#34a814;stroke-width:0.98585486;stroke-linejoin:bevel;stroke-opacity:1" d="m 78.906642,355.41079 13.572923,19.24072 -1.449003,-10.61789 z" id="path4430" />
    <path style="display:inline;fill:none;stroke:#34a814;stroke-width:0.98585486;stroke-linejoin:bevel;stroke-opacity:1" d="m 92.479565,374.65151 7.167881,-6.52764 -8.616884,-4.09025 z" id="path4432" />
    <path style="display:inline;fill:none;stroke:#34a814;stroke-width:0.98585486;stroke-linejoin:bevel;stroke-opacity:1" d="m 92.479565,374.65151 7.658395,8.51853 -0.490514,-15.04617 z" id="path4434" />
    <path style="display:inline;fill:none;stroke:#34a814;stroke-width:0.98585486;stroke-linejoin:bevel;stroke-opacity:1" d="m 90.378633,383.07003 9.759327,0.10001 -7.658395,-8.51853 z" id="path4436" />
    <path style="display:inline;fill:none;stroke:#34a814;stroke-width:0.98585486;stroke-linejoin:bevel;stroke-opacity:1" d="m 100.13796,383.17004 8.00027,2.86726 -8.490784,-17.91343 z" id="path4438" />
    <path style="display:inline;fill:none;stroke:#34a814;stroke-width:0.98585486;stroke-linejoin:bevel;stroke-opacity:1" d="m 90.378633,383.07003 7.77233,11.45539 1.986997,-11.35538 z" id="path4440" />
    <path style="display:inline;fill:none;stroke:#34a814;stroke-width:0.98585486;stroke-linejoin:bevel;stroke-opacity:1" d="m 98.150963,394.52542 9.987267,-8.48812 -8.00027,-2.86726 z" id="path4442" />
    <path style="display:inline;fill:none;stroke:#34a814;stroke-width:0.98585486;stroke-linejoin:bevel;stroke-opacity:1" d="m 98.150963,394.52542 9.599467,6.38877 0.3878,-14.87689 z" id="path4444" />
    <path style="display:inline;fill:none;stroke:#34a814;stroke-width:0.98585486;stroke-linejoin:bevel;stroke-opacity:1" d="m 78.906642,355.41079 11.471991,27.65924 2.100932,-8.41852 z" id="path4446" />
    <path style="display:inline;fill:none;stroke:#34a814;stroke-width:0.98585486;stroke-linejoin:bevel;stroke-opacity:1" d="m 107.75043,400.91419 6.81835,2.06896 -6.43055,-16.94585 z" id="path4448" />
    <path style="display:inline;fill:none;stroke:#34a814;stroke-width:0.98585486;stroke-linejoin:bevel;stroke-opacity:1" d="m 107.75043,400.91419 3.20951,16.01503 3.60887,-13.94607 z" id="path4450" />
    <path style="display:inline;fill:none;stroke:#34a814;stroke-width:0.98585486;stroke-linejoin:bevel;stroke-opacity:1" d="m 98.150963,394.52542 2.735817,15.47737 6.86365,-9.0886 z" id="path4452" />
    <path style="display:inline;fill:none;stroke:#34a814;stroke-width:0.98585486;stroke-linejoin:bevel;stroke-opacity:1" d="m 100.88678,410.00279 10.07313,6.92644 -3.20951,-16.01503 z" id="path4454" />
    <path style="display:inline;fill:none;stroke:#34a814;stroke-width:0.98585486;stroke-linejoin:bevel;stroke-opacity:1" d="m 108.2141,425.224 2.74581,-8.29477 -10.07313,-6.92644 z" id="path4456" />
    <path style="display:inline;fill:none;stroke:#34a814;stroke-width:0.98585486;stroke-linejoin:bevel;stroke-opacity:1" d="m 118.09054,424.84644 -3.52176,-21.86329 -3.60887,13.94608 z" id="path4458" />
    <path style="display:inline;fill:none;stroke:#34a814;stroke-width:0.98585486;stroke-linejoin:bevel;stroke-opacity:1" d="m 108.2141,425.224 9.87644,-0.37756 -7.13063,-7.91721 z" id="path4460" />
    <path style="display:inline;fill:none;stroke:#34a814;stroke-width:0.98585486;stroke-linejoin:bevel;stroke-opacity:1" d="m 108.2141,425.224 1.30846,14.46952 8.56798,-14.84708 z" id="path4462" />
    <path style="display:inline;fill:none;stroke:#34a814;stroke-width:0.98585486;stroke-linejoin:bevel;stroke-opacity:1" d="m 102.94176,452.28497 6.5808,-12.59145 -7.68133,0.53383 z" id="path4464" />
    <path style="display:inline;fill:none;stroke:#34a814;stroke-width:0.98585486;stroke-linejoin:bevel;stroke-opacity:1" d="m 90.378633,383.07003 10.508147,26.93276 -2.735817,-15.47736 z" id="path4466" />
    <path style="display:inline;fill:none;stroke:#34a814;stroke-width:0.98585486;stroke-linejoin:bevel;stroke-opacity:1" d="m 100.88678,410.00279 0.95445,30.22456 6.37287,-15.00335 z" id="path4468" />
    <path style="display:inline;fill:none;stroke:#34a814;stroke-width:0.98585486;stroke-linejoin:bevel;stroke-opacity:1" d="m 113.86762,451.65996 4.22292,-26.81352 -8.56798,14.84708 z" id="path4470" />
    <path style="display:inline;fill:none;stroke:#34a814;stroke-width:0.98585486;stroke-linejoin:bevel;stroke-opacity:1" d="m 117.06579,465.53585 1.02484,-40.68901 -4.22292,26.81352 z" id="path4472" />
    <path style="display:inline;fill:none;stroke:#34a814;stroke-width:0.98585486;stroke-linejoin:bevel;stroke-opacity:1" d="m 102.94176,452.28497 5.20772,8.11116 5.71814,-8.73617 z" id="path4474" />
    <path style="display:inline;fill:none;stroke:#34a814;stroke-width:0.98585486;stroke-linejoin:bevel;stroke-opacity:1" d="m 105.79224,468.45626 2.35724,-8.06013 -5.20772,-8.11116 z" id="path4476" />
    <path style="display:inline;fill:none;stroke:#34a814;stroke-width:0.98585486;stroke-linejoin:bevel;stroke-opacity:1" d="m 117.06579,465.53545 -3.19817,-13.87549 -5.71814,8.73617 z" id="path4478" />
    <path style="display:inline;fill:none;stroke:#34a814;stroke-width:0.98585486;stroke-linejoin:bevel;stroke-opacity:1" d="m 102.94176,452.28497 -2.80341,19.19785 5.65389,-3.02656 z" id="path4480" />
    <path style="display:inline;fill:none;stroke:#34a814;stroke-width:0.98585486;stroke-linejoin:bevel;stroke-opacity:1" d="m 105.79224,468.45626 11.27355,-2.92081 -8.91631,-5.13932 z" id="path4482" />
    <path style="display:inline;fill:none;stroke:#34a814;stroke-width:0.98585486;stroke-linejoin:bevel;stroke-opacity:1" d="m 105.79224,468.45626 5.30623,12.52335 5.96732,-15.44416 z" id="path4484" />
    <path style="display:inline;fill:none;stroke:#34a814;stroke-width:0.98585486;stroke-linejoin:bevel;stroke-opacity:1" d="m 101.38379,481.12916 4.40845,-12.6729 -5.65389,3.02656 z" id="path4486" />
    <path style="display:inline;fill:none;stroke:#34a814;stroke-width:0.98585486;stroke-linejoin:bevel;stroke-opacity:1" d="m 101.38379,481.12916 9.71468,-0.14955 -5.30623,-12.52335 z" id="path4488" />
    <path style="display:inline;fill:none;stroke:#34a814;stroke-width:0.98585486;stroke-linejoin:bevel;stroke-opacity:1" d="m 101.38379,481.12916 6.01535,11.1489 3.69933,-11.29845 z" id="path4490" />
    <path style="display:inline;fill:none;stroke:#34a814;stroke-width:0.98585486;stroke-linejoin:bevel;stroke-opacity:1" d="m 97.843397,497.26641 9.555743,-4.98835 -6.01535,-11.1489 z" id="path4492" />
    <path style="display:inline;fill:none;stroke:#34a814;stroke-width:0.98585486;stroke-linejoin:bevel;stroke-opacity:1" d="m 91.739364,495.6663 6.104033,1.60011 3.540393,-16.13725 z" id="path4494" />
    <path style="display:inline;fill:none;stroke:#34a814;stroke-width:0.98585486;stroke-linejoin:bevel;stroke-opacity:1" d="m 100.13835,471.48282 -8.398986,24.18348 9.644426,-14.53714 z" id="path4496" />
    <path style="display:inline;fill:none;stroke:#34a814;stroke-width:0.98585486;stroke-linejoin:bevel;stroke-opacity:1" d="m 89.431708,508.36338 8.411689,-11.09697 -6.104033,-1.60012 z" id="path4498" />
    <path style="display:inline;fill:none;stroke:#34a814;stroke-width:0.98585486;stroke-linejoin:bevel;stroke-opacity:1" d="m 91.739364,495.6663 -9.918758,22.79547 7.611102,-10.09838 z" id="path4500" />
    <path style="display:inline;fill:none;stroke:#34a814;stroke-width:0.98585486;stroke-linejoin:bevel;stroke-opacity:1" d="m 94.039525,517.0827 3.803872,-19.81629 -8.411689,11.09698 z" id="path4502" />
    <path style="display:inline;fill:none;stroke:#34a814;stroke-width:0.98585486;stroke-linejoin:bevel;stroke-opacity:1" d="m 94.039525,517.0827 13.359615,-24.80464 -9.555743,4.98835 z" id="path4504" />
    <path style="display:inline;fill:none;stroke:#34a814;stroke-width:0.98585486;stroke-linejoin:bevel;stroke-opacity:1" d="m 81.820606,518.46177 12.218919,-1.37907 -4.607817,-8.71932 z" id="path4506" />
    <path style="display:inline;fill:none;stroke:#34a814;stroke-width:0.98585486;stroke-linejoin:bevel;stroke-opacity:1" d="m 81.820606,518.46177 7.437058,8.87515 4.781861,-10.25421 z" id="path4508" />
    <path style="display:inline;fill:none;stroke:#34a814;stroke-width:0.98585486;stroke-linejoin:bevel;stroke-opacity:1" d="m 81.854276,529.89108 7.403392,-2.55416 -7.437058,-8.87515 z" id="path4510" />
    <path style="display:inline;fill:none;stroke:#34a814;stroke-width:0.98585486;stroke-linejoin:bevel;stroke-opacity:1" d="m 81.820606,518.46177 -7.61932,17.82171 7.652986,-6.39239 z" id="path4512" />
    <path style="display:inline;fill:none;stroke:#34a814;stroke-width:0.98585486;stroke-linejoin:bevel;stroke-opacity:1" d="m 77.184534,543.13791 4.669738,-13.24683 -7.652986,6.39239 z" id="path4514" />
    <path style="display:inline;fill:none;stroke:#34a814;stroke-width:0.98585486;stroke-linejoin:bevel;stroke-opacity:1" d="m 81.395996,543.63402 0.458276,-13.74294 -4.669738,13.24683 z" id="path4516" />
    <path style="display:inline;fill:none;stroke:#34a814;stroke-width:0.98585486;stroke-linejoin:bevel;stroke-opacity:1" d="m 81.395996,543.63402 7.861668,-16.29711 -7.403392,2.55417 z" id="path4518" />
    <path style="display:inline;fill:none;stroke:#34a814;stroke-width:0.98585486;stroke-linejoin:bevel;stroke-opacity:1" d="m 69.763069,548.05776 7.421465,-4.91985 -2.983248,-6.85444 z" id="path4520" />
    <path style="display:inline;fill:none;stroke:#34a814;stroke-width:0.98585486;stroke-linejoin:bevel;stroke-opacity:1" d="m 69.763069,548.05776 11.632927,-4.42374 -4.211462,-0.49611 z" id="path4522" />
    <path style="display:inline;fill:none;stroke:#34a814;stroke-width:0.98585486;stroke-linejoin:bevel;stroke-opacity:1" d="m 69.711439,565.89858 11.68456,-22.26456 -11.632927,4.42374 z" id="path4524" />
    <path style="display:inline;fill:none;stroke:#34a814;stroke-width:0.98585486;stroke-linejoin:bevel;stroke-opacity:1" d="m 75.455587,565.90558 5.940412,-22.27116 -11.68456,22.26456 z" id="path4526" />
    <path style="display:inline;fill:none;stroke:#34a814;stroke-width:0.98585486;stroke-linejoin:bevel;stroke-opacity:1" d="m 68.158873,581.58811 7.296714,-15.68253 -5.744148,-0.007 z" id="path4528" />
    <path style="display:inline;fill:none;stroke:#34a814;stroke-width:0.98585486;stroke-linejoin:bevel;stroke-opacity:1" d="m 69.711439,565.89898 -5.578776,12.97572 4.02621,2.71342 z" id="path4530" />
    <path style="display:inline;fill:none;stroke:#34a814;stroke-width:0.98585486;stroke-linejoin:bevel;stroke-opacity:1" d="m 73.470948,589.33938 1.984639,-23.4338 -7.296714,15.68254 z" id="path4532" />
    <path style="display:inline;fill:none;stroke:#34a814;stroke-width:0.98585486;stroke-linejoin:bevel;stroke-opacity:1" d="m 69.398411,593.75826 4.072537,-4.41888 -5.312075,-7.75127 z" id="path4534" />
    <path style="display:inline;fill:none;stroke:#34a814;stroke-width:0.98585486;stroke-linejoin:bevel;stroke-opacity:1" d="m 69.763072,548.05816 -5.630409,30.81653 5.578776,-12.97572 z" id="path4536" />
    <path style="display:inline;fill:none;stroke:#34a814;stroke-width:0.98585486;stroke-linejoin:bevel;stroke-opacity:1" d="m 64.132663,578.87469 5.265748,14.88356 -1.239538,-12.17014 z" id="path4538" />
    <path style="display:inline;fill:none;stroke:#34a814;stroke-width:0.98585486;stroke-linejoin:bevel;stroke-opacity:1" d="m 64.132663,578.87469 -0.95029,22.36669 6.216038,-7.48312 z" id="path4540" />
    <path style="display:inline;fill:none;stroke:#34a814;stroke-width:0.98585486;stroke-linejoin:bevel;stroke-opacity:1" d="m 67.550392,609.74956 1.848019,-15.9913 -6.216038,7.48312 z" id="path4542" />
    <path style="display:inline;fill:none;stroke:#34a814;stroke-width:0.98585486;stroke-linejoin:bevel;stroke-opacity:1" d="m 67.550392,609.74956 5.202254,-2.73455 -3.354235,-13.25675 z" id="path4544" />
    <path style="display:inline;fill:none;stroke:#34a814;stroke-width:0.98585486;stroke-linejoin:bevel;stroke-opacity:1" d="m 72.752646,607.01501 0.718302,-17.67563 -4.072537,4.41888 z" id="path4546" />
    <path style="display:inline;fill:none;stroke:#34a814;stroke-width:0.98585486;stroke-linejoin:bevel;stroke-opacity:1" d="m 67.550392,609.74956 2.87931,12.74767 2.322944,-15.48222 z" id="path4548" />
    <path style="display:inline;fill:none;stroke:#34a814;stroke-width:0.98585486;stroke-linejoin:bevel;stroke-opacity:1" d="m 66.125067,621.45677 4.304635,1.04045 -2.87931,-12.74766 z" id="path4550" />
    <path style="display:inline;fill:none;stroke:#34a814;stroke-width:0.98585486;stroke-linejoin:bevel;stroke-opacity:1" d="m 63.182372,601.24138 2.942665,20.2154 1.425325,-11.70721 z" id="path4552" />
    <path style="display:inline;fill:none;stroke:#34a814;stroke-width:0.98585486;stroke-linejoin:bevel;stroke-opacity:1" d="m 73.424643,629.38579 -0.671998,-22.37078 -2.322944,15.48222 z" id="path4554" />
    <path style="display:inline;fill:none;stroke:#34a814;stroke-width:0.98585486;stroke-linejoin:bevel;stroke-opacity:1" d="m 66.125066,621.45677 7.299577,7.92902 -2.994942,-6.88857 z" id="path4556" />
    <path style="display:inline;fill:none;stroke:#34a814;stroke-width:0.98585486;stroke-linejoin:bevel;stroke-opacity:1" d="m 70.325747,636.99411 3.098896,-7.60832 -7.299577,-7.92902 z" id="path4558" />
    <path style="display:inline;fill:none;stroke:#34a814;stroke-width:0.98585486;stroke-linejoin:bevel;stroke-opacity:1" d="m 70.325747,636.99411 3.040847,12.60485 0.05805,-20.21316 z" id="path4560" />
    <path style="display:inline;fill:none;stroke:#34a814;stroke-width:0.98585486;stroke-linejoin:bevel;stroke-opacity:1" d="m 65.888066,657.11488 7.478528,-7.51592 -3.040847,-12.60485 z" id="path4562" />
    <path style="display:inline;fill:none;stroke:#34a814;stroke-width:0.98585486;stroke-linejoin:bevel;stroke-opacity:1" d="m 65.888066,657.11488 7.038262,3.30563 0.440266,-10.82156 z" id="path4564" />
    <path style="display:inline;fill:none;stroke:#34a814;stroke-width:0.98585486;stroke-linejoin:bevel;stroke-opacity:1" d="m 68.726495,670.88221 4.199833,-10.4617 -7.038262,-3.30563 z" id="path4566" />
    <path style="display:inline;fill:none;stroke:#34a814;stroke-width:0.98585486;stroke-linejoin:bevel;stroke-opacity:1" d="m 66.125066,621.45677 -0.237,35.65811 4.437681,-20.12077 z" id="path4568" />
    <path style="display:inline;fill:none;stroke:#34a814;stroke-width:0.98585486;stroke-linejoin:bevel;stroke-opacity:1" d="m 70.643858,686.72089 -1.917363,-15.83868 -2.740349,13.0736 z" id="path4570" />
    <path style="display:inline;fill:none;stroke:#34a814;stroke-width:0.98585486;stroke-linejoin:bevel;stroke-opacity:1" d="m 65.888066,657.11488 0.09808,26.84093 2.740349,-13.0736 z" id="path4572" />
    <path style="display:inline;fill:none;stroke:#34a814;stroke-width:0.98585486;stroke-linejoin:bevel;stroke-opacity:1" d="m 70.643858,686.72089 2.28247,-26.30038 -4.199833,10.4617 z" id="path4574" />
    <path style="display:inline;fill:none;stroke:#34a814;stroke-width:0.98585486;stroke-linejoin:bevel;stroke-opacity:1" d="m 63.396883,696.38068 7.246975,-9.65979 -4.657712,-2.76508 z" id="path4576" />
    <path style="display:inline;fill:none;stroke:#34a814;stroke-width:0.98585486;stroke-linejoin:bevel;stroke-opacity:1" d="m 65.888066,657.11488 -2.491183,39.2658 2.589263,-12.42487 z" id="path4578" />
    <path style="display:inline;fill:none;stroke:#34a814;stroke-width:0.98585486;stroke-linejoin:bevel;stroke-opacity:1" d="m 66.044166,706.24826 -2.647283,-9.86758 -0.967427,9.98613 z" id="path4580" />
    <path style="display:inline;fill:none;stroke:#34a814;stroke-width:0.98585486;stroke-linejoin:bevel;stroke-opacity:1" d="m 66.044166,706.24826 4.599692,-19.52737 -7.246975,9.65979 z" id="path4582" />
    <path style="display:inline;fill:none;stroke:#34a814;stroke-width:0.98585486;stroke-linejoin:bevel;stroke-opacity:1" d="m 62.429456,706.36681 1.633129,11.99015 1.981581,-12.1087 z" id="path4584" />
    <path style="display:inline;fill:none;stroke:#34a814;stroke-width:0.98585486;stroke-linejoin:bevel;stroke-opacity:1" d="m 62.429456,706.36681 -0.417344,21.63649 2.050473,-9.64634 z" id="path4586" />
    <path style="display:inline;fill:none;stroke:#34a814;stroke-width:0.98585486;stroke-linejoin:bevel;stroke-opacity:1" d="m 64.062585,718.35696 6.581273,-31.63607 -4.599692,19.52737 z" id="path4588" />
    <path style="display:inline;fill:none;stroke:#34a814;stroke-width:0.98585486;stroke-linejoin:bevel;stroke-opacity:1" d="m 64.838869,739.31807 -0.776284,-20.96111 -2.050473,9.64634 z" id="path4590" />
    <path style="display:inline;fill:none;stroke:#34a814;stroke-width:0.98585486;stroke-linejoin:bevel;stroke-opacity:1" d="m 59.584821,730.88095 4.122075,20.035 1.131973,-11.59788 z" id="path4592" />
    <path style="display:inline;fill:none;stroke:#34a814;stroke-width:0.98585486;stroke-linejoin:bevel;stroke-opacity:1" d="m 62.429456,706.36681 -2.844635,24.51414 2.427291,-2.87765 z" id="path4594" />
    <path style="display:inline;fill:none;stroke:#34a814;stroke-width:0.98585486;stroke-linejoin:bevel;stroke-opacity:1" d="m 61.299308,775.25745 -0.109775,-16.39563 -2.033335,11.23926 z" id="path4596" />
    <path style="display:inline;fill:none;stroke:#34a814;stroke-width:0.98585486;stroke-linejoin:bevel;stroke-opacity:1" d="m 61.299308,775.25745 2.212046,-23.79568 -2.321821,7.40005 z" id="path4598" />
    <path style="display:inline;fill:none;stroke:#34a814;stroke-width:0.98585486;stroke-linejoin:bevel;stroke-opacity:1" d="m 59.584821,730.88095 -0.428623,39.22013 2.033335,-11.23926 z" id="path4600" />
    <path style="display:inline;fill:none;stroke:#34a814;stroke-width:0.98585486;stroke-linejoin:bevel;stroke-opacity:1" d="m 61.299308,775.25745 -4.014502,17.58793 2.623881,-4.98309 z" id="path4602" />
    <path style="display:inline;fill:none;stroke:#34a814;stroke-width:0.98585486;stroke-linejoin:bevel;stroke-opacity:1" d="m 59.156198,770.10108 -1.871392,22.74429 4.014502,-17.58793 z" id="path4604" />
    <path style="display:inline;fill:none;stroke:#34a814;stroke-width:0.98585486;stroke-linejoin:bevel;stroke-opacity:1" d="m 59.908687,787.86228 3.737246,-36.29994 -2.346625,23.6951 z" id="path4606" />
    <path style="display:inline;fill:none;stroke:#34a814;stroke-width:0.98585486;stroke-linejoin:bevel;stroke-opacity:1" d="m 48.536711,819.48135 11.371976,-31.61907 -2.623881,4.98309 z" id="path4608" />
    <path style="display:inline;fill:none;stroke:#34a814;stroke-width:0.98585486;stroke-linejoin:bevel;stroke-opacity:1" d="m 52.276511,815.16737 7.632176,-27.30509 -11.371976,31.61907 z" id="path4610" />
    <path style="display:inline;fill:none;stroke:#34a814;stroke-width:0.98585486;stroke-linejoin:bevel;stroke-opacity:1" d="m 48.536711,819.48135 -6.650223,13.63437 10.390023,-17.94834 z" id="path4612" />
  </g>
</svg>
