<?xml version="1.0" encoding="UTF-8" standalone="no"?>
<svg
   xmlns:dc="http://purl.org/dc/elements/1.1/"
   xmlns:cc="http://creativecommons.org/ns#"
   xmlns:rdf="http://www.w3.org/1999/02/22-rdf-syntax-ns#"
   xmlns:svg="http://www.w3.org/2000/svg"
   xmlns="http://www.w3.org/2000/svg"
   xmlns:sodipodi="http://sodipodi.sourceforge.net/DTD/sodipodi-0.dtd"
   xmlns:inkscape="http://www.inkscape.org/namespaces/inkscape"
   version="1.1"
   id="svg6073"
   viewBox="0 0 148.52761 942.715"
   height="1130"
   width="600"
   inkscape:version="0.91 r13725"
   sodipodi:docname="rootsNotWireframe_main.svg"
   inkscape:export-filename="C:\Users\Corypheus\Dropbox\Web Design\Andrew Web\img\rootsCentered.png"
   inkscape:export-xdpi="90"
   inkscape:export-ydpi="90">
  <sodipodi:namedview
     pagecolor="#ffffff"
     bordercolor="#666666"
     borderopacity="1"
     objecttolerance="10"
     gridtolerance="10"
     guidetolerance="10"
     inkscape:pageopacity="0"
     inkscape:pageshadow="2"
     inkscape:window-width="1366"
     inkscape:window-height="705"
     id="namedview197"
     showgrid="false"
     fit-margin-top="0"
     fit-margin-left="0"
     fit-margin-right="0"
     fit-margin-bottom="0"
     inkscape:zoom="0.47433628"
     inkscape:cx="300"
     inkscape:cy="565"
     inkscape:window-x="-8"
     inkscape:window-y="-8"
     inkscape:window-maximized="1"
     inkscape:current-layer="layer1"
     showguides="true"
     inkscape:guide-bbox="true">
    <inkscape:grid
       type="xygrid"
       id="grid4325"
       originx="-314.65208"
       originy="60.426726" />
    <sodipodi:guide
       position="74.263805,942.715"
       orientation="1,0"
       id="guide4338"
       inkscape:label="center"
       inkscape:color="rgb(0,0,255)" />
  </sodipodi:namedview>
  <defs
     id="defs6075" />
  <metadata
     id="metadata6078">
    <rdf:RDF>
      <cc:Work
         rdf:about="">
        <dc:format>image/svg+xml</dc:format>
        <dc:type
           rdf:resource="http://purl.org/dc/dcmitype/StillImage" />
        <dc:title />
        <cc:license
           rdf:resource="http://creativecommons.org/licenses/by-nc/3.0/" />
      </cc:Work>
      <cc:License
         rdf:about="http://creativecommons.org/licenses/by-nc/3.0/">
        <cc:permits
           rdf:resource="http://creativecommons.org/ns#Reproduction" />
        <cc:permits
           rdf:resource="http://creativecommons.org/ns#Distribution" />
        <cc:requires
           rdf:resource="http://creativecommons.org/ns#Notice" />
        <cc:requires
           rdf:resource="http://creativecommons.org/ns#Attribution" />
        <cc:prohibits
           rdf:resource="http://creativecommons.org/ns#CommercialUse" />
        <cc:permits
           rdf:resource="http://creativecommons.org/ns#DerivativeWorks" />
      </cc:License>
    </rdf:RDF>
  </metadata>
  <g
     inkscape:groupmode="layer"
     id="layer1"
     inkscape:label="roots"
     style="display:inline">
    <path
       id="taprootOutsideRight"
       style="display:inline;opacity:1;fill:none;stroke:#34a814;stroke-width:1.08635676;stroke-opacity:1"
       d="m 120.16148,475.3016 c -0.79326,0.39598 -1.26776,1.76061 -1.58921,4.17663 -0.6454,4.85079 -6.79165,18.40024 -12.85334,28.33521 -2.5894,4.24398 -4.70801,8.23923 -4.70801,8.87835 0,0.6391 -0.92471,2.62365 -2.054917,4.41009 -1.13021,1.78646 -3.69837,6.81115 -5.70701,11.16596 -2.00866,4.35481 -4.75749,9.67914 -6.10855,11.83176 -2.36567,3.76927 -5.66634,16.98164 -7.94295,31.79498 -1.30896,8.51714 -1.40391,43.7906 -0.15299,56.82941 0.86835,9.0509 -0.7257,36.6062 -2.61018,45.1204 -0.26979,1.219 -0.58328,6.4051 -0.69664,11.5247 -0.17186,7.7615 -0.72401,10.5608 -3.32241,16.8439 -3.45546,8.3556 -3.86249,14.115 -2.29438,32.4648 0.60937,7.1306 0.48891,10.6875 -0.43537,12.8545 -0.70284,1.6479 -1.70252,8.9801 -2.22153,16.2939 -1.41073,19.8794 -3.48549,32.3783 -6.91642,41.6664 -1.91856,5.1939 -9.99317,20.9827 -16.00845,31.3025 -2.32196,3.9835 -4.22174,7.5024 -4.22174,7.8197 0,0.3173 -0.88151,2.2164 -1.95892,4.2202 -1.07742,2.0037 -2.54693,5.2389 -3.26559,7.1892 -2.68405,7.2841 -9.00837,18.8599 -14.36165,26.2871 -3.04063,4.2187 -5.52841,7.9256 -5.52841,8.2375 0,0.312 -0.82408,1.322 -1.83126,2.2446 -5.1571385,8.78995 -11.8537699,16.90314 -19.77007,23.3212 -1.06896,0.869 -2.45407,2.8636 -3.07801,4.4326 -0.76213,1.9164 -3.860024,3.4939 -5.461424,3.6929 M 124.35076,228.70034 c -0.22557,0.19106 -0.63593,1.49342 -0.91193,2.89413 -0.70167,3.56079 -3.82011,11.45643 -12.03518,30.47207 -14.451597,33.45148 -17.095467,46.82094 -14.200397,71.80811 1.93776,16.72478 5.687847,29.90733 11.076117,38.93565 5.39079,9.03249 11.61994,28.42505 14.83052,46.17025 1.71341,9.47013 2.02454,14.09586 1.49071,22.16301 -0.37104,5.60725 -0.81862,12.38911 -0.99457,15.07084 -0.48756,7.43026 -0.98948,8.60297 -2.21844,12.91562 -0.22134,0.77672 -0.11001,1.72217 0.32821,2.40058 M 84.706433,0.543176 c 0.309945,0 0.655235,0.24451375 1.048724,0.761397 0.393489,0.5168833 0.835177,1.3061361 1.337917,2.3956143 1.005482,2.1789562 2.255174,5.5588137 3.851909,10.3624187 5.645676,16.984408 6.71899,21.019699 7.4867,28.146999 3.059187,28.40145 3.327707,34.1607 2.460157,52.76602 -0.5958,12.777725 -1.433667,20.790655 -2.450877,23.439415 -1.90023,4.94811 -3.69019,14.2762 -3.70079,19.28609 -0.015,7.07522 5.876347,18.42339 16.239147,31.28082 13.25474,16.44551 15.53929,21.89303 15.61481,37.23383 0.03,6.09483 -0.32927,11.73615 -0.79843,12.53626 -0.30212,0.51525 -0.28182,1.10431 0.0976,1.83821"
       inkscape:label="#path4241" />
    <path
       id="taprootOutsideLeft"
       style="display:inline;opacity:1;fill:none;stroke:#34a814;stroke-width:1.08635676;stroke-opacity:1"
       d="m -14.937951,928.24009 c 2.628611,-5.09087 0.0771,-1.0698 5.946254,-10.3914 l -5e-5,-1e-5 c 3.51275,-5.5788 7.57182,-12.8107 9.02012001,-16.0704 3.34628999,-7.5317 10.28545999,-19.3088 19.63965999,-33.33209 1.46358,-2.19421 3.94605,-7.38031 5.51661,-11.52481 3.7287,-9.8396 7.44429,-17.2255 16.27814,-32.35799 3.9849,-6.8262 7.70208,-14.5164 8.26036,-17.0893 0.55831,-2.573 1.49579,-5.439 2.08328,-6.369 0.58751,-0.93 1.06819,-5.6431 1.06819,-10.4735 0,-5.2392 0.62873,-10.5384 1.55833,-13.1345 1.96075,-5.4756 1.98693,-9.0746 0.0939,-12.9127 -1.55527,-3.1534 -1.53364,-3.8946 0.51581,-17.6677 1.09729,-7.3742 1.02829,-9.5067 -0.5216,-16.1237 -1.28087,-5.4684 -1.58011,-9.3966 -1.05788,-13.8864 0.40451,-3.4778 0.31924,-6.2595 -0.19181,-6.2577"
       inkscape:label="#path4172" />
    <path
       id="path4179"
       style="display:inline;opacity:1;fill:none;stroke:#34a814;stroke-width:1.08635676;stroke-opacity:1"
       d="m 65.428027,172.67775 c -0.002,-0.32589 -0.86889,-1.79413 -1.92608,-3.26277 -4.80959,-6.68141 -5.85519,-11.65014 -5.68768,-27.02816 0.15823,-14.5288 0.41457,-16.07723 5.65034,-34.13102 2.74608,-9.468935 4.17091,-41.855045 2.28163,-51.861395 -2.58216,-13.67625 -3.81158,-19.08526 -4.53371,-19.9467 -0.40872,-0.48757 -1.33773,-3.08066 -2.06444,-5.762379 -0.72672,-2.68172 -3.14188,-9.92368 -5.36702,-16.09326 -4.4801,-12.42174 -4.76681,-14.04841 -2.47606,-14.04841 M 91.359886,197.76069 c -3.310156,-4.04951 -7.299683,-6.07247 -7.299683,-6.07247 -4.39961,-3.46811 -9.23861,-8.02682 -10.75336,-10.13049 0,0 -1.746228,-2.99376 -3.453637,-3.203 m -0.364342,108.64916 c 1.047598,-1.61819 1.399698,-3.37884 2.074463,-6.85467 2.332004,-12.01255 9.82291,-32.92535 17.90353,-49.98224 2.51789,-5.31481 5.704618,-20.47008 4.766439,-22.97427 -0.168943,-0.45095 -0.442237,-1.53473 -1.168691,-1.28091 m 1.708077,205.94696 c 0.106229,-0.94271 0.136382,-1.89035 0.04426,-2.82796 -0.249752,-2.54183 -1.200805,-4.21416 -2.208965,-7.3369 -1.574153,-4.87588 -5.30401,-14.64974 -8.28862,-21.71974 -8.63343,-20.45112 -15.8489,-38.90581 -18.02394,-46.09904 -2.41838,-7.99804 -3.6803,-26.52444 -2.12807,-31.24286 0.6246,-1.89868 0.694,-3.52553 0.16225,-3.80395 M 60.8241,562.61151 c 0.476456,-1.19695 0.874703,-2.50434 1.247833,-4.00407 4.023792,-16.17287 6.32573,-23.33937 10.33125,-32.1645 2.49672,-5.50081 4.53947,-10.3121 4.53947,-10.69175 0,-0.37967 1.22302,-3.25927 2.71783,-6.39914 6.61618,-13.89745 12.26212,-28.70573 14.85168,-38.95334 2.54326,-10.06442 2.801885,-12.84716 2.81818,-30.31921 0.0052,-5.57562 -0.03398,-9.88612 -0.169372,-13.08651 -0.349849,-2.39489 0.04789,-7.71331 -1.213854,-8.25609 M 54.658528,704.33281 c 0.612874,-0.82026 1.168768,-1.68906 1.669198,-2.60919 2.001719,-3.68055 3.116022,-8.18248 3.439947,-13.68423 1.456216,-24.7333 1.6077,-53.5272 0.34662,-65.89501 -0.77904,-7.64049 -1.43173,-21.96947 -1.4504,-31.84216 -0.0186,-9.87268 -0.36497,-17.9511 -0.76953,-17.95203" />
    <path
       style="display:inline;opacity:1;fill:none;stroke:#34a814;stroke-width:1.0862079;stroke-opacity:1;stroke-miterlimit:4;stroke-dasharray:none"
       d="m 51.305007,0.543656 c 0.8633,0 1.56965,0.1409 1.56965,0.31311 0,0.17223 1.17724,3.06277 2.6161,6.42343 1.43885,3.36067 2.61609,6.8284 2.61609,7.70607 0,0.87767 1.1958,4.86874 2.65733,8.86905 2.89453,7.92251 3.99243,11.369979 5.56312,17.468249 0.56514,2.19413 1.65439,6.38294 2.42058,9.30847 2.66776,10.18644 1.23681,46.69423 -2.31075,58.953555 -6.2615,21.63796 -7.44542,40.05071 -3.21667,50.02656 1.2257,2.89152 2.88246,5.88354 3.68164,6.64889 0.79922,0.76539 1.6365,2.18946 1.86067,3.16463 0.25915,1.12732 1.480023,0.54065 2.332412,1.38775 1.07948,1.07277 0.822379,1.39607 1.286897,2.23665 1.513884,2.73951 4.799081,8.83641 12.685901,15.20714 4.42284,4.61873 9.056298,5.54593 12.668535,9.88395 1.639056,2.62776 -0.564255,3.26641 -0.106545,11.42614 0.51332,9.15149 -0.59563,13.23341 -7.75998,28.56367 -12.96368,27.73961 -12.313364,38.36118 -14.818367,47.39173 -1.521913,5.4865 -1.90068,5.94356 -4.600008,9.58878 -4.509968,6.09034 -3.098565,4.12623 -3.047915,19.06936 0.043,12.69275 0.64232,17.0168 2.87707,20.7584 0.7864,1.31666 1.42981,3.217 1.42981,4.22301 0,1.00599 0.46707,2.52179 1.03796,3.36847 0.57086,0.84666 1.96644,4.53139 3.10128,8.18828 2.09281,6.74388 9.18433,24.11086 14.09598,34.52074 1.48148,3.13986 2.69359,6.17878 2.69359,6.75312 0,0.57437 1.412698,4.67598 3.13932,9.1147 1.81525,4.66657 2.289304,5.58345 2.942991,8.5143 0.599325,2.68711 0.527378,5.48182 0.874629,8.21297 0.164692,1.29531 0.467093,2.57363 0.573133,3.87506 0.51415,6.31001 0.30778,9.09743 0.29943,18.9904 -0.0177,20.93012 -0.17133,22.68082 -2.762813,31.47146 -1.50925,5.11965 -3.22176,10.50527 -3.80554,11.96803 -0.5838,1.46276 -2.31849,6.0505 -3.85488,10.19498 -2.52333,6.80681 -16.40963,39.30511 -20.08032,46.99428 -0.81697,1.71134 -1.92702,6.29908 -2.46676,10.19496 -0.53976,3.8959 -1.68891,9.67652 -2.55367,12.84583 -2.20535,8.08252 -3.98167,29.22532 -3.16546,37.67709 0.3767,3.9007 1.34364,12.27829 2.14879,18.61693 1.13696,8.95114 1.24296,15.28624 0.47467,28.36864 -0.54405,9.2641 -1.2659,24.8225 -1.60409,34.5743 -0.53033,15.2911 -0.92604,18.4012 -2.87648,22.6062 -1.89676,4.0894 -2.23762,6.5204 -2.11315,15.0709 0.0815,5.6072 0.62658,11.2595 1.21104,12.5605 0.72152,1.6062 0.71293,5.1634 -0.0268,11.0815 -0.59917,4.7938 -0.79383,13.1373 -0.43261,18.5412 0.49702,7.4354 0.26715,11.0927 -0.94509,15.0355 -0.88102,2.8656 -1.60187,8.8032 -1.60187,13.1946 0,4.6735 -0.62143,9.4671 -1.49863,11.5601 -0.82425,1.9667 -2.26521,5.9693 -3.20213,8.8949 -0.93692,2.9255 -2.61701,6.7944 -3.73358,8.5975 -1.243885,2.0088 -1.921235,3.46835 -2.014392,4.23361"
       id="taprootInsideLeft"
       inkscape:label="#path4237" />
    <path
       style="display:inline;opacity:1;fill:none;stroke:#34a814;stroke-width:1.08635676;stroke-opacity:1"
       d="m 45.565125,824.9833 c -0.09316,0.76527 0.397877,0.83624 1.490762,0.0679 2.05475,-1.4447 7.36033,-11.2218 9.23477,-17.0179 0.84424,-2.6105 2.33538,-8.7357 3.31365,-13.6115 0.97826,-4.8759 2.40821,-11.8572 3.17766,-15.5141 0.76945,-3.6569 1.15898,-9.2848 0.86559,-12.5064 -0.34082,-3.7425 0.12141,-8.653 1.28015,-13.6001 1.37743,-5.8807 1.61557,-9.3755 0.99025,-14.5325 -1.67114,-13.7819 0.0659,-30.736 3.74563,-36.5611 0.54696,-0.8658 1.48065,-6.689 2.07486,-12.9404 0.59423,-6.2513 1.53077,-13.9591 2.0812,-17.1285 0.55045,-3.1693 0.93101,-18.3287 0.84568,-33.6877 -0.40073,-72.13214 1.28367,-83.96869 15.44739,-108.55114 1.3896,-2.41176 2.52655,-4.87277 2.52655,-5.4689 0,-0.59614 0.67629,-2.21327 1.50286,-3.59364 0.8266,-1.38039 2.76295,-4.90338 4.30301,-7.8289 1.54007,-2.92552 3.944913,-7.23958 5.344073,-9.5868 3.27764,-5.49858 9.27501,-20.04216 10.86748,-26.35364 1.13296,-4.49021 1.04985,-5.17572 -0.96712,-7.97868 -2.2732,-3.15904 -3.02323,-8.82881 -1.16794,-8.82881 0.57554,0 1.04644,1.1526 1.04644,2.56135 0,1.40872 0.90208,3.50314 2.0046,4.65423 l 2.0046,2.09288 0.57706,-2.21631 c 3.99057,-15.3263 2.74917,-48.90936 -2.425,-65.60247 -2.98016,-9.61469 -9.08914,-25.28727 -10.96719,-28.13623 -2.90988,-4.41426 -9.918913,-24.46188 -11.035753,-31.56506 -1.45942,-9.28207 -1.47756,-32.20515 -0.0319,-40.47545 1.76695,-10.10945 9.613863,-33.47523 12.698493,-37.81235 1.09324,-1.53714 3.36266,-6.92275 5.04317,-11.96802 1.68051,-5.04526 3.8285,-10.96842 4.77333,-13.16255 4.1562,-9.65178 4.74152,-12.92646 2.87858,-16.10435 -0.95302,-1.62569 -2.34941,-3.48299 -3.10309,-4.1273 -1.74353,-1.49055 -1.72912,-2.34847 0.0605,-3.60678 1.08831,-0.76517 1.74524,-0.68504 2.74424,0.33472 2.63679,2.69162 4.19647,1.56632 4.19647,-3.02775 0,-6.7005 -2.07057,-18.13231 -3.46384,-19.12431 -0.68484,-0.48759 -1.0996,-1.95328 -0.92169,-3.2571 0.39027,-2.86043 -3.10934,-8.97671 -6.17831,-10.79779 -1.22118,-0.72464 -1.91666,-1.73378 -1.54549,-2.24256 0.37116,-0.50875 -0.28414,-1.73744 -1.45623,-2.73041 -1.1721,-0.99295 -2.13107,-2.38973 -2.13107,-3.10396 0,-0.71423 -0.90407,-1.70849 -2.00907,-2.20949 -1.105,-0.501 -2.54416,-2.28447 -3.19816,-3.96328 -0.65402,-1.6788 -1.51581,-3.17786 -1.91511,-3.33124 -1.516423,-0.58251 -7.678923,-12.58861 -8.723713,-16.99593 -1.10991,-4.68203 0.65407,-21.31467 3.25713,-30.71177 1.77146,-6.395 2.67753,-32.498325 1.18108,-34.025895 -0.90383,-0.92261 -0.92923,-1.44556 -0.0916,-1.88416 1.30073,-0.68102 0.65294,-18.93587 -1.02221,-28.80591 -0.5379,-3.16929 -1.27074,-8.05624 -1.62857,-10.85986 -0.50453,-3.95331 -1.04472,-5.10054 -2.40655,-5.11107 -1.40878,-0.0109 -1.47007,-0.16696 -0.30996,-0.789429 1.03724,-0.55655 1.24274,-1.69385 0.72691,-4.02317 -0.58601,-2.64639 -1.12608,-3.19754 -2.91839,-2.97827 -1.20962,0.14798 -2.40004,-0.22964 -2.64538,-0.83912 -0.26745,-0.66441 0.47236,-1.10814 1.84745,-1.10814 1.97262,0 2.19643,-0.34111 1.59957,-2.43794 -0.38165,-1.34085 -1.42165,-2.91004 -2.3111,-3.4871 -0.88945,-0.57703 -1.29402,-1.4921 -0.89908,-2.0335 0.39496,-0.54139 0.15399,-1.56018 -0.5355,-2.26399 -0.6895,-0.70381 -0.95479,-1.93935 -0.58956,-2.74564 0.36521,-0.80629 -0.0245,-2.35633 -0.86623,-3.44453 -1.66519,-2.153 -1.11786,-5.7503 0.87489,-5.7503"
       id="taprootInsideRight"
       inkscape:label="#path4567" />
    <path
       style="display:inline;opacity:1;fill:none;stroke:#34a814;stroke-width:1.08635676;stroke-opacity:1"
       d="m 9.970603,893.68408 c 6.41814,-8.5298 8.29302,-11.3451 12.08376,-18.1458 2.03837,-3.65689 4.40617,-7.7288 5.26177,-9.0488 1.54071,-2.3768 8.802,-19.9858 8.81087,-21.3668 0.0143,-2.2219 -2.23626,1.0891 -4.26012,6.2676 -3.05433,7.8152 -15.00961,28.2789 -20.84077,35.6728 -1.72359,2.18551 -6.28772,10.02801 -6.28772,10.80421 0,1.7885 1.85432,0.306 5.23221,-4.18321 z"
       id="path4583" />
    <path
       style="display:inline;opacity:1;fill:none;stroke:#34a814;stroke-width:1.08635676;stroke-opacity:1"
       d="m 40.933373,837.40608 c 0.63254,-2.9502 0.58887,-3.0069 -0.95886,-1.2457 -0.89189,1.0149 -1.94441,3.0096 -2.33895,4.4326 -0.65126,2.349 -0.56292,2.4637 0.95888,1.2457 0.92191,-0.7379 1.97445,-2.7326 2.33893,-4.4326 z"
       id="path4581" />
  </g>
</svg>
